<?xml version="1.0" encoding="UTF-8" standalone="no"?>
<!-- Created with Inkscape (http://www.inkscape.org/) -->
<svg id="svg2" xmlns:rdf="http://www.w3.org/1999/02/22-rdf-syntax-ns#" xmlns="http://www.w3.org/2000/svg" xml:space="preserve" height="47" width="119" version="1.1" xmlns:cc="http://creativecommons.org/ns#" xmlns:dc="http://purl.org/dc/elements/1.1/"><metadata id="metadata8"><rdf:RDF><cc:Work rdf:about=""><dc:format>image/svg+xml</dc:format><dc:type rdf:resource="http://purl.org/dc/dcmitype/StillImage"/><dc:title/></cc:Work></rdf:RDF></metadata><defs id="defs6"><clipPath id="clipPath18"><path id="path20" d="M0,47,116,47,116,0,0,0,0,47z"/></clipPath></defs><g id="g10" transform="matrix(1.0064304,0,0,-1.0064304,0,47.227916)"><path id="path12" fill-rule="nonzero" fill="#002e6e" d="m0,9.636,116,0,0,37.363-116,0,0-37.363z"/><g id="g14"><g id="g16" clip-path="url(#clipPath18)"><g id="g22" transform="translate(41.8824,33.9292)"><path id="path24" fill-rule="nonzero" fill="#FFF" d="m0,0c-0.043-0.295-0.113-0.634-0.356-0.686-0.131-0.026-0.191-0.026-0.261-0.026-0.087,0-0.139-0.018-0.139-0.061,0-0.078,0.07-0.096,0.156-0.096,0.279,0,0.696,0.026,0.861,0.026,0.156,0,0.547-0.026,0.912-0.026,0.13,0,0.209,0.018,0.209,0.096,0,0.043-0.061,0.061-0.131,0.061-0.087,0-0.208,0.008-0.365,0.043-0.148,0.035-0.26,0.113-0.26,0.278,0,0.139,0.008,0.252,0.026,0.409l0.451,3.458h0.035c0.304-0.652,0.826-1.747,0.904-1.929,0.104-0.244,0.791-1.573,0.999-1.973,0.139-0.26,0.226-0.434,0.304-0.434,0.079,0,0.122,0.078,0.322,0.487l1.894,3.944h0.035l0.521-3.823c0.035-0.243,0.009-0.356-0.043-0.373-0.061-0.027-0.096-0.053-0.096-0.096,0-0.052,0.052-0.078,0.252-0.096,0.348-0.026,1.547-0.052,1.764-0.052,0.122,0,0.226,0.026,0.226,0.096,0,0.052-0.061,0.061-0.139,0.061-0.113,0-0.287,0.008-0.539,0.087-0.261,0.077-0.347,0.33-0.426,0.877l-0.79,5.37c-0.027,0.183-0.079,0.269-0.157,0.269s-0.13-0.069-0.191-0.208l-2.363-4.962-2.373,4.901c-0.113,0.226-0.165,0.269-0.234,0.269s-0.122-0.078-0.148-0.226l-0.86-5.665z"/></g><g id="g26" transform="translate(51.5447,35.5802)"><path id="path28" fill-rule="nonzero" fill="#FFF" d="m0,0c0-0.843,0-1.529-0.043-1.894-0.027-0.253-0.079-0.4-0.252-0.435-0.079-0.017-0.183-0.034-0.314-0.034-0.104,0-0.138-0.026-0.138-0.07,0-0.061,0.061-0.087,0.174-0.087,0.347,0,0.895,0.026,1.094,0.026,0.235,0,0.782-0.026,1.356-0.026,0.096,0,0.165,0.026,0.165,0.087,0,0.044-0.044,0.07-0.139,0.07-0.13,0-0.322,0.017-0.443,0.034-0.261,0.035-0.322,0.191-0.348,0.426-0.035,0.374-0.035,1.06-0.035,1.903v1.529c0,1.321,0,1.564,0.018,1.842,0.017,0.305,0.087,0.452,0.321,0.496,0.105,0.017,0.174,0.026,0.261,0.026s0.139,0.017,0.139,0.087c0,0.052-0.07,0.069-0.182,0.069-0.331,0-0.843-0.026-1.06-0.026-0.252,0-0.8,0.026-1.13,0.026-0.139,0-0.209-0.017-0.209-0.069,0-0.07,0.052-0.087,0.139-0.087,0.105,0,0.218-0.009,0.313-0.035,0.191-0.044,0.278-0.191,0.296-0.487,0.017-0.278,0.017-0.521,0.017-1.842v-1.529z"/></g><g id="g30" transform="translate(55.926,37.8915)"><path id="path32" fill-rule="nonzero" fill="#FFF" d="m0,0,0.027,0c0.156-0.165,1.12-1.251,2.066-2.19,0.903-0.895,2.014-2.033,2.561-2.554,0.096-0.096,0.2-0.192,0.296-0.192,0.078,0,0.112,0.079,0.112,0.27l0.096,5.483c0.008,0.486,0.078,0.669,0.322,0.738,0.104,0.026,0.173,0.026,0.26,0.026,0.104,0,0.156,0.026,0.156,0.079,0,0.069-0.086,0.078-0.199,0.078-0.426,0-0.756-0.026-0.852-0.026-0.183,0-0.599,0.026-1.05,0.026-0.131,0-0.226-0.009-0.226-0.078,0-0.053,0.034-0.079,0.138-0.079,0.122,0,0.331,0,0.46-0.052,0.209-0.087,0.287-0.252,0.296-0.781l0.087-3.902h-0.044c-0.147,0.139-1.319,1.39-1.909,1.981-1.268,1.26-2.588,2.676-2.693,2.789-0.149,0.157-0.227,0.269-0.323,0.269-0.088,0-0.114-0.121-0.114-0.295l-0.078-5.144c-0.009-0.756-0.044-1.008-0.27-1.077-0.121-0.035-0.278-0.044-0.391-0.044-0.087,0-0.139-0.017-0.139-0.069,0-0.078,0.079-0.087,0.192-0.087,0.451,0,0.861,0.026,0.939,0.026,0.167,0,0.515-0.026,1.079-0.026,0.122,0,0.2,0.017,0.2,0.087-0.003,0.052-0.055,0.069-0.151,0.069-0.139,0-0.304,0.009-0.452,0.061-0.173,0.061-0.287,0.287-0.304,0.964l-0.092,3.65z"/></g><g id="g34" transform="translate(63.8179,35.5802)"><path id="path36" fill-rule="nonzero" fill="#FFF" d="m0,0c0-0.843,0-1.529-0.043-1.894-0.026-0.253-0.078-0.4-0.252-0.435-0.078-0.017-0.183-0.034-0.313-0.034-0.105,0-0.139-0.026-0.139-0.07,0-0.061,0.06-0.087,0.174-0.087,0.347,0,0.894,0.026,1.094,0.026,0.235,0,0.782-0.026,1.356-0.026,0.096,0,0.165,0.026,0.165,0.087,0,0.044-0.044,0.07-0.139,0.07-0.131,0-0.321,0.017-0.443,0.034-0.261,0.035-0.321,0.191-0.347,0.426-0.036,0.374-0.036,1.06-0.036,1.903v1.529c0,1.321,0,1.564,0.018,1.842,0.018,0.305,0.087,0.452,0.322,0.496,0.104,0.017,0.173,0.026,0.26,0.026s0.139,0.017,0.139,0.087c0,0.052-0.069,0.069-0.182,0.069-0.331,0-0.844-0.026-1.061-0.026-0.252,0-0.799,0.026-1.129,0.026-0.139,0-0.209-0.017-0.209-0.069,0-0.07,0.052-0.087,0.14-0.087,0.104,0,0.217-0.009,0.312-0.035,0.192-0.044,0.278-0.191,0.296-0.487,0.017-0.278,0.017-0.521,0.017-1.842v-1.529z"/></g><g id="g38" transform="translate(68.5955,32.9387)"><path id="path40" fill-rule="nonzero" fill="#FFF" d="m0,0c0.461,0,0.947,0.078,1.382,0.356,0.625,0.409,0.817,1.008,0.817,1.512,0,0.826-0.383,1.408-1.426,2.216l-0.243,0.183c-0.721,0.547-0.921,0.851-0.921,1.251,0,0.521,0.391,0.895,1.034,0.895,0.565,0,0.817-0.261,0.947-0.426,0.183-0.226,0.226-0.496,0.226-0.574,0-0.104,0.026-0.156,0.087-0.156,0.07,0,0.096,0.069,0.096,0.261,0,0.677,0.034,0.929,0.034,1.042,0,0.061-0.043,0.087-0.121,0.105-0.226,0.06-0.591,0.147-1.156,0.147-1.208,0-2.007-0.686-2.007-1.642,0-0.704,0.33-1.312,1.286-2.059l0.4-0.313c0.721-0.556,0.851-0.965,0.851-1.39,0-0.461-0.382-0.991-1.164-0.991-0.539,0-1.052,0.235-1.243,0.878-0.044,0.147-0.078,0.33-0.078,0.443,0,0.069-0.009,0.148-0.087,0.148-0.069,0-0.096-0.096-0.105-0.226-0.008-0.139-0.043-0.66-0.043-1.139,0-0.191,0.026-0.234,0.165-0.295,0.374-0.165,0.765-0.226,1.269-0.226"/></g><g id="g42" transform="translate(74.075,35.5802)"><path id="path44" fill-rule="nonzero" fill="#FFF" d="m0,0c0-0.8,0-1.486-0.043-1.851-0.026-0.252-0.078-0.443-0.252-0.478-0.078-0.017-0.183-0.034-0.313-0.034-0.105,0-0.139-0.026-0.139-0.07,0-0.061,0.06-0.087,0.174-0.087,0.347,0,0.894,0.026,1.094,0.026,0.243,0,0.791-0.026,1.364-0.026,0.096,0,0.165,0.026,0.165,0.087,0,0.044-0.043,0.07-0.138,0.07-0.131,0-0.322,0.017-0.443,0.034-0.261,0.035-0.313,0.226-0.339,0.47-0.044,0.373-0.044,1.059-0.044,1.859v3.563l1.095-0.027c0.773-0.017,1.008-0.26,1.025-0.486l0.009-0.096c0.009-0.13,0.026-0.174,0.095-0.174,0.052,0,0.07,0.053,0.079,0.14,0,0.225,0.026,0.825,0.026,1.007,0,0.131-0.009,0.183-0.07,0.183-0.069,0-0.278-0.087-0.834-0.087h-3.441c-0.287,0-0.617,0.017-0.869,0.044-0.217,0.017-0.304,0.104-0.374,0.104-0.052,0-0.078-0.053-0.104-0.165-0.017-0.07-0.182-0.861-0.182-0.999,0-0.096,0.017-0.14,0.078-0.14,0.053,0,0.078,0.035,0.096,0.104,0.017,0.07,0.06,0.174,0.147,0.305,0.131,0.191,0.339,0.235,0.843,0.252l1.295,0.035v-3.563z"/></g><g id="g46" transform="translate(79.1485,35.5802)"><path id="path48" fill-rule="nonzero" fill="#FFF" d="m0,0c0-0.8,0-1.486-0.044-1.851-0.034-0.252-0.078-0.443-0.251-0.478-0.078-0.017-0.183-0.034-0.313-0.034-0.105,0-0.139-0.026-0.139-0.07,0-0.061,0.06-0.087,0.174-0.087,0.347,0,0.894,0.026,1.059,0.026,0.13,0,0.774-0.026,1.278-0.026,0.112,0,0.174,0.026,0.174,0.087,0,0.044-0.035,0.07-0.105,0.07-0.104,0-0.295,0.017-0.425,0.034-0.261,0.035-0.314,0.226-0.34,0.478-0.043,0.365-0.043,1.051-0.043,1.86v0.121c0,0.052,0.026,0.07,0.069,0.07l0.756-0.018c0.062,0,0.114-0.008,0.157-0.06,0.113-0.131,0.513-0.722,0.86-1.2,0.487-0.669,0.817-1.077,1.19-1.277,0.226-0.121,0.444-0.165,0.931-0.165h0.825c0.105,0,0.165,0.018,0.165,0.087,0,0.044-0.035,0.07-0.104,0.07-0.07,0-0.148,0.008-0.244,0.026-0.13,0.025-0.487,0.086-0.972,0.59-0.513,0.539-1.113,1.312-1.886,2.286,0.877,0.712,1.147,1.303,1.147,1.946,0,0.582-0.348,1.026-0.592,1.191-0.469,0.321-1.051,0.373-1.598,0.373-0.269,0-0.93-0.026-1.225-0.026-0.183,0-0.73,0.026-1.191,0.026-0.13,0-0.191-0.017-0.191-0.078s0.053-0.078,0.148-0.078c0.122,0,0.269-0.009,0.339-0.026,0.287-0.061,0.356-0.2,0.374-0.496,0.017-0.278,0.017-0.521,0.017-1.842v-1.529zm1.025,3.484c0,0.07,0.017,0.104,0.078,0.122,0.087,0.026,0.244,0.035,0.46,0.035,0.513,0,1.331-0.357,1.331-1.59,0-0.713-0.252-1.113-0.513-1.304-0.157-0.113-0.27-0.147-0.617-0.147-0.218,0-0.478,0.026-0.661,0.086-0.061,0.026-0.078,0.061-0.078,0.157v2.641z"/></g><g id="g50" transform="translate(86.5675,34.5984)"><path id="path52" fill-rule="nonzero" fill="#FFF" d="m0,0c0-0.139,0-0.504-0.026-0.869-0.018-0.252-0.096-0.443-0.27-0.478-0.078-0.017-0.182-0.035-0.304-0.035-0.096,0-0.139-0.026-0.139-0.069,0-0.07,0.069-0.087,0.191-0.087,0.322,0,0.869,0.026,1.086,0.026,0.235,0,0.782-0.026,1.329-0.026,0.114,0,0.183,0.026,0.183,0.087,0,0.043-0.043,0.069-0.138,0.069-0.123,0-0.314,0.018-0.435,0.035-0.261,0.035-0.339,0.226-0.357,0.478-0.026,0.365-0.026,0.73-0.026,0.869v0.713c0,0.287,0,0.556,0.131,0.868,0.157,0.374,1.372,2.416,1.66,2.763,0.19,0.235,0.287,0.339,0.468,0.427,0.131,0.069,0.296,0.103,0.383,0.103,0.095,0,0.165,0.027,0.165,0.087,0,0.053-0.061,0.07-0.156,0.07-0.166,0-0.739-0.026-0.93-0.026-0.252,0-0.53,0.026-0.817,0.026-0.104,0-0.147-0.017-0.147-0.078,0-0.052,0.078-0.07,0.156-0.087,0.148-0.035,0.182-0.13,0.182-0.217,0-0.113-0.034-0.261-0.121-0.452-0.122-0.269-1.217-2.181-1.304-2.39-0.139,0.244-1.355,2.338-1.477,2.598-0.061,0.122-0.104,0.226-0.104,0.296s0.043,0.139,0.121,0.156c0.131,0.035,0.192,0.044,0.192,0.096s-0.044,0.078-0.131,0.078c-0.391,0-0.747-0.026-0.929-0.026-0.287,0-0.939,0.026-1.096,0.026-0.104,0-0.164-0.026-0.164-0.078,0-0.061,0.06-0.079,0.13-0.079,0.105,0,0.252-0.052,0.365-0.112,0.165-0.096,0.382-0.313,0.599-0.635,0.305-0.451,1.469-2.363,1.53-2.502,0.113-0.252,0.2-0.443,0.2-0.912v-0.713z"/></g><g id="g54" transform="translate(96.6955,32.9387)"><path id="path56" fill-rule="nonzero" fill="#FFF" d="m0,0c2.207,0,3.597,1.573,3.597,3.563,0,1.989-1.347,3.249-3.509,3.249-2.608,0-3.59-1.92-3.59-3.406,0-1.538,1.008-3.406,3.502-3.406m0.365,0.434c-1.668,0-2.668,1.434-2.668,3.242,0,2.163,1.138,2.719,2.138,2.719,1.425,0,2.546-1.208,2.546-3.154,0-2.511-1.408-2.807-2.016-2.807"/></g><g id="g58" transform="translate(103.2615,36.2841)"><path id="path60" fill-rule="nonzero" fill="#FFF" d="m0,0c0,0.061,0.018,0.078,0.061,0.078,0.148,0,1.069,0,1.286-0.026,0.27-0.035,0.4-0.191,0.443-0.313,0.035-0.104,0.052-0.208,0.052-0.269s0.017-0.122,0.07-0.122c0.087,0,0.087,0.087,0.087,0.165,0,0.061,0.017,0.461,0.035,0.635,0.025,0.269,0.069,0.486,0.069,0.538s-0.018,0.079-0.052,0.079c-0.052,0-0.069-0.035-0.113-0.087-0.087-0.113-0.208-0.148-0.374-0.157-0.121-0.008-0.243-0.008-0.39-0.008l-1.113-0.009c-0.052,0-0.061,0.026-0.061,0.078v2.172c0,0.096,0.026,0.122,0.078,0.122l1.338-0.026c0.331-0.009,0.513-0.139,0.574-0.261,0.052-0.122,0.052-0.26,0.052-0.33,0.009-0.095,0.026-0.139,0.087-0.139s0.079,0.052,0.087,0.122c0.017,0.104,0.035,0.617,0.043,0.704,0.026,0.226,0.07,0.33,0.07,0.39,0,0.044-0.026,0.079-0.061,0.079-0.043,0-0.087-0.035-0.139-0.052-0.087-0.027-0.191-0.027-0.356-0.035-0.2-0.009-1.964-0.009-2.294-0.009-0.252,0-0.799,0.026-1.251,0.026-0.131,0-0.2-0.017-0.2-0.087,0-0.052,0.06-0.069,0.148-0.069,0.121,0,0.269-0.009,0.338-0.026,0.287-0.061,0.357-0.2,0.374-0.495,0.018-0.278,0.018-0.522,0.018-1.843v-1.529c0-0.834,0-1.486-0.044-1.851-0.035-0.252-0.078-0.443-0.252-0.478-0.078-0.017-0.182-0.034-0.313-0.034-0.095,0-0.13-0.026-0.13-0.07,0-0.069,0.061-0.087,0.183-0.087,0.33,0,0.877,0.026,1.103,0.026s0.773-0.026,1.321-0.026c0.13,0,0.191,0.026,0.191,0.087,0,0.044-0.035,0.07-0.148,0.07-0.121,0-0.313,0.017-0.434,0.034-0.262,0.035-0.314,0.226-0.339,0.478-0.044,0.365-0.044,1.017-0.044,1.851v0.704z"/></g><g id="g62" transform="translate(44.4762,23.9324)"><path id="path64" fill-rule="nonzero" fill="#FFF" d="m0,0c-0.043,0-0.086,0.029-0.086,0.1v0.301c0,2.18,0,2.581,0.029,3.04,0.028,0.502,0.143,0.746,0.53,0.817,0.172,0.028,0.301,0.043,0.416,0.043,0.172,0,0.258,0.029,0.258,0.129,0,0.101-0.1,0.129-0.301,0.129-0.559,0-1.462-0.043-1.807-0.043-0.387,0-1.29,0.043-2.064,0.043-0.201,0-0.301-0.028-0.301-0.129,0-0.1,0.086-0.129,0.244-0.129,0.2,0,0.444-0.015,0.559-0.043,0.473-0.1,0.588-0.33,0.616-0.817,0.029-0.459,0.029-0.86,0.029-3.04v-2.523c0-1.319,0-2.452-0.072-3.053-0.057-0.416-0.129-0.732-0.416-0.789-0.129-0.029-0.301-0.058-0.516-0.058-0.172,0-0.229-0.043-0.229-0.114,0-0.1,0.1-0.144,0.287-0.144,0.573,0,1.476,0.044,1.806,0.044,0.402,0,1.305-0.044,2.237-0.044,0.172,0,0.286,0.044,0.286,0.144,0,0.071-0.071,0.114-0.229,0.114-0.215,0-0.531,0.029-0.731,0.058-0.43,0.057-0.517,0.373-0.559,0.774-0.072,0.616-0.072,1.749-0.072,3.068v1.262c0,0.071,0.043,0.086,0.086,0.086h5.477c0.043,0,0.086-0.029,0.086-0.086v-1.262c0-1.319,0-2.452-0.072-3.053-0.058-0.416-0.129-0.732-0.416-0.789-0.129-0.029-0.301-0.058-0.516-0.058-0.172,0-0.229-0.043-0.229-0.114,0-0.1,0.1-0.144,0.301-0.144,0.559,0,1.462,0.044,1.792,0.044,0.401,0,1.305-0.044,2.237-0.044,0.172,0,0.286,0.044,0.286,0.144,0,0.071-0.071,0.114-0.229,0.114-0.215,0-0.531,0.029-0.731,0.058-0.43,0.057-0.516,0.373-0.559,0.774-0.072,0.616-0.072,1.749-0.072,3.068v2.523c0,2.18,0,2.581,0.028,3.04,0.029,0.502,0.144,0.746,0.531,0.817,0.172,0.028,0.301,0.043,0.416,0.043,0.172,0,0.258,0.029,0.258,0.129,0,0.101-0.101,0.129-0.301,0.129-0.559,0-1.463-0.043-1.807-0.043-0.387,0-1.29,0.043-2.064,0.043-0.201,0-0.301-0.028-0.301-0.129,0-0.1,0.086-0.129,0.243-0.129,0.201,0,0.445-0.015,0.56-0.043,0.473-0.1,0.588-0.33,0.616-0.817,0.029-0.459,0.029-0.86,0.029-3.04v-0.301c0-0.071-0.043-0.1-0.086-0.1h-5.477z"/></g><g id="g66" transform="translate(56.5312,21.8103)"><path id="path68" fill-rule="nonzero" fill="#FFF" d="M0,0c0-1.319,0-2.452-0.072-3.053-0.057-0.416-0.129-0.732-0.416-0.789-0.129-0.029-0.301-0.058-0.516-0.058-0.172,0-0.229-0.043-0.229-0.114,0-0.1,0.1-0.144,0.287-0.144,0.573,0,1.476,0.044,1.806,0.044,0.846,0,1.807-0.087,3.971-0.087,0.545,0,0.675,0,0.775,0.373,0.071,0.287,0.186,1.262,0.186,1.591,0,0.144,0,0.258-0.115,0.258-0.1,0-0.129-0.057-0.157-0.214-0.101-0.588-0.273-0.889-0.645-1.061-0.373-0.172-0.975-0.172-1.348-0.172-1.463,0-1.692,0.215-1.721,1.204-0.014,0.415,0,1.735,0,2.222v1.133c0,0.086,0.015,0.143,0.086,0.143,0.345,0,1.764-0.014,2.037-0.043,0.529-0.057,0.73-0.272,0.802-0.559,0.043-0.186,0.043-0.373,0.058-0.516,0-0.072,0.028-0.129,0.129-0.129,0.129,0,0.129,0.158,0.129,0.272,0,0.101,0.028,0.674,0.056,0.961,0.044,0.731,0.116,0.96,0.116,1.046s-0.044,0.115-0.101,0.115c-0.071,0-0.129-0.071-0.229-0.186-0.13-0.144-0.344-0.187-0.688-0.215-0.33-0.029-1.979-0.029-2.294-0.029-0.086,0-0.101,0.057-0.101,0.158v3.627c0,0.1,0.029,0.143,0.101,0.143,0.287,0,1.792-0.028,2.035-0.057,0.717-0.086,0.861-0.258,0.961-0.516,0.072-0.172,0.086-0.416,0.086-0.516,0-0.129,0.029-0.201,0.129-0.201,0.101,0,0.129,0.086,0.144,0.158,0.028,0.172,0.057,0.803,0.071,0.946,0.043,0.66,0.115,0.831,0.115,0.932,0,0.072-0.014,0.129-0.086,0.129s-0.158-0.043-0.229-0.057c-0.115-0.029-0.344-0.058-0.617-0.086-0.272-0.015-3.125-0.015-3.584-0.015-0.402,0-1.305,0.043-2.065,0.043-0.215,0-0.315-0.028-0.315-0.129,0-0.1,0.086-0.129,0.243-0.129,0.201,0,0.445-0.015,0.56-0.043,0.473-0.1,0.588-0.33,0.616-0.817,0.029-0.459,0.029-0.86,0.029-3.04v-2.523z"/></g><g id="g70" transform="translate(69.6459,21.3943)"><path id="path72" fill-rule="nonzero" fill="#FFF" d="M0,0c0.072,0,0.115-0.029,0.143-0.1l1.147-3.039c0.072-0.173-0.028-0.301-0.129-0.33-0.143-0.014-0.2-0.044-0.2-0.129,0-0.101,0.172-0.101,0.43-0.115,1.147-0.029,2.193-0.029,2.71-0.029,0.53,0,0.659,0.029,0.659,0.144,0,0.1-0.072,0.115-0.187,0.115-0.172,0-0.387,0.014-0.601,0.057-0.302,0.071-0.717,0.272-1.262,1.563-0.917,2.179-3.212,8.029-3.556,8.817-0.143,0.33-0.229,0.458-0.359,0.458-0.143,0-0.229-0.157-0.401-0.573l-3.598-9.004c-0.287-0.716-0.559-1.204-1.219-1.29-0.114-0.014-0.315-0.028-0.445-0.028-0.114,0-0.172-0.03-0.172-0.115,0-0.115,0.087-0.144,0.273-0.144,0.746,0,1.534,0.043,1.692,0.043,0.444,0,1.061-0.043,1.519-0.043,0.158,0,0.244,0.029,0.244,0.144,0,0.085-0.043,0.115-0.215,0.115h-0.215c-0.444,0-0.573,0.186-0.573,0.444,0,0.172,0.071,0.516,0.214,0.874l0.775,2.051c0.029,0.085,0.057,0.114,0.129,0.114h3.197zm-2.911,0.717c-0.057,0-0.071,0.043-0.057,0.101l1.319,3.526c0.015,0.058,0.043,0.13,0.086,0.13s0.057-0.072,0.072-0.13l1.29-3.541c0.015-0.043,0-0.086-0.071-0.086h-2.639z"/></g><g id="g74" transform="translate(77.9888,24.3335)"><path id="path76" fill-rule="nonzero" fill="#FFF" d="M0,0c0,2.18,0,2.581,0.029,3.04,0.028,0.501,0.143,0.745,0.529,0.817,0.173,0.028,0.403,0.043,0.56,0.043,0.172,0,0.258,0.029,0.258,0.129s-0.1,0.129-0.301,0.129c-0.559,0-1.606-0.043-1.95-0.043-0.387,0-1.29,0.043-1.964,0.043-0.215,0-0.315-0.029-0.315-0.129s0.086-0.129,0.243-0.129c0.187,0,0.359-0.015,0.473-0.043,0.473-0.1,0.588-0.33,0.617-0.817,0.028-0.459,0.028-0.86,0.028-3.04v-2.523c0-1.319,0-2.452-0.072-3.054-0.056-0.416-0.128-0.731-0.414-0.789-0.13-0.028-0.302-0.057-0.517-0.057-0.172,0-0.23-0.043-0.23-0.114,0-0.101,0.101-0.144,0.288-0.144,0.573,0,1.476,0.043,1.806,0.043,1.161,0,2.107-0.086,4.172-0.086,0.746,0,0.817,0.072,0.903,0.387,0.115,0.416,0.215,1.491,0.215,1.649,0,0.172-0.015,0.244-0.114,0.244-0.115,0-0.143-0.086-0.158-0.215-0.029-0.273-0.201-0.674-0.373-0.861-0.359-0.387-0.917-0.401-1.677-0.401-1.118,0-1.491,0.1-1.735,0.315-0.301,0.258-0.301,1.248-0.301,3.083v2.523z"/></g><g id="g78" transform="translate(86.3733,21.8103)"><path id="path80" fill-rule="nonzero" fill="#FFF" d="M0,0c0-1.319,0-2.452-0.071-3.053-0.043-0.416-0.129-0.732-0.416-0.789-0.129-0.029-0.301-0.058-0.516-0.058-0.172,0-0.23-0.043-0.23-0.114,0-0.1,0.1-0.144,0.287-0.144,0.574,0,1.477,0.044,1.806,0.044,0.402,0,1.305-0.044,2.251-0.044,0.158,0,0.273,0.044,0.273,0.144,0,0.071-0.072,0.114-0.23,0.114-0.215,0-0.53,0.029-0.731,0.058-0.43,0.057-0.516,0.373-0.559,0.774-0.071,0.616-0.071,1.749-0.071,3.068v5.878l1.806-0.043c1.275-0.028,1.663-0.43,1.692-0.802l0.014-0.158c0.014-0.215,0.043-0.287,0.158-0.287,0.086,0,0.115,0.086,0.128,0.229,0,0.373,0.044,1.362,0.044,1.664,0,0.214-0.015,0.301-0.114,0.301-0.116,0-0.46-0.144-1.377-0.144h-5.678c-0.473,0-1.018,0.029-1.434,0.072-0.358,0.029-0.501,0.172-0.616,0.172-0.086,0-0.129-0.086-0.172-0.272-0.029-0.115-0.301-1.42-0.301-1.649,0-0.158,0.028-0.23,0.129-0.23,0.086,0,0.129,0.058,0.158,0.172,0.028,0.115,0.1,0.287,0.244,0.502,0.214,0.316,0.558,0.387,1.39,0.416l2.136,0.057v-5.878z"/></g><g id="g82" transform="translate(96.809,23.9324)"><path id="path84" fill-rule="nonzero" fill="#FFF" d="m0,0c-0.042,0-0.086,0.029-0.086,0.1v0.301c0,2.18,0,2.581,0.029,3.04,0.028,0.502,0.143,0.746,0.53,0.817,0.172,0.028,0.302,0.043,0.416,0.043,0.172,0,0.258,0.029,0.258,0.129,0,0.101-0.101,0.129-0.301,0.129-0.559,0-1.463-0.043-1.807-0.043-0.386,0-1.29,0.043-2.064,0.043-0.201,0-0.301-0.028-0.301-0.129,0-0.1,0.086-0.129,0.244-0.129,0.201,0,0.444-0.015,0.559-0.043,0.473-0.1,0.588-0.33,0.616-0.817,0.029-0.459,0.029-0.86,0.029-3.04v-2.523c0-1.319,0-2.452-0.072-3.053-0.057-0.416-0.129-0.732-0.415-0.789-0.13-0.029-0.302-0.058-0.516-0.058-0.172,0-0.23-0.043-0.23-0.114,0-0.1,0.101-0.144,0.287-0.144,0.573,0,1.477,0.044,1.806,0.044,0.401,0,1.305-0.044,2.237-0.044,0.172,0,0.286,0.044,0.286,0.144,0,0.071-0.071,0.114-0.229,0.114-0.215,0-0.531,0.029-0.731,0.058-0.43,0.057-0.516,0.373-0.559,0.774-0.072,0.616-0.072,1.749-0.072,3.068v1.262c0,0.071,0.044,0.086,0.086,0.086h5.477c0.043,0,0.086-0.029,0.086-0.086v-1.262c0-1.319,0-2.452-0.072-3.053-0.057-0.416-0.129-0.732-0.415-0.789-0.13-0.029-0.302-0.058-0.516-0.058-0.172,0-0.23-0.043-0.23-0.114,0-0.1,0.1-0.144,0.301-0.144,0.559,0,1.463,0.044,1.792,0.044,0.401,0,1.305-0.044,2.236-0.044,0.172,0,0.287,0.044,0.287,0.144,0,0.071-0.071,0.114-0.229,0.114-0.215,0-0.531,0.029-0.731,0.058-0.43,0.057-0.516,0.373-0.559,0.774-0.072,0.616-0.072,1.749-0.072,3.068v2.523c0,2.18,0,2.581,0.029,3.04,0.028,0.502,0.143,0.746,0.53,0.817,0.172,0.028,0.301,0.043,0.416,0.043,0.172,0,0.258,0.029,0.258,0.129,0,0.101-0.101,0.129-0.301,0.129-0.559,0-1.463-0.043-1.807-0.043-0.386,0-1.29,0.043-2.064,0.043-0.2,0-0.301-0.028-0.301-0.129,0-0.1,0.086-0.129,0.243-0.129,0.202,0,0.445-0.015,0.56-0.043,0.473-0.1,0.588-0.33,0.616-0.817,0.029-0.459,0.029-0.86,0.029-3.04v-0.301c0-0.071-0.043-0.1-0.086-0.1h-5.477z"/></g><g id="g86" transform="translate(41.6054,0.9942)"><path id="path88" fill-rule="nonzero" fill="#002e6e" d="m0,0c-0.03-0.207-0.079-0.444-0.249-0.481-0.092-0.018-0.134-0.018-0.183-0.018-0.061,0-0.097-0.012-0.097-0.042,0-0.055,0.048-0.067,0.109-0.067,0.195,0,0.487,0.018,0.603,0.018,0.109,0,0.383-0.018,0.638-0.018,0.091,0,0.146,0.012,0.146,0.067,0,0.03-0.043,0.042-0.091,0.042-0.061,0-0.146,0.006-0.256,0.031-0.103,0.024-0.182,0.079-0.182,0.194,0,0.098,0.006,0.176,0.018,0.286l0.316,2.421h0.025c0.213-0.456,0.578-1.222,0.632-1.35,0.073-0.17,0.554-1.102,0.7-1.381,0.097-0.183,0.158-0.304,0.213-0.304,0.054,0,0.085,0.055,0.225,0.341l1.326,2.761h0.024l0.365-2.676c0.024-0.171,0.006-0.25-0.03-0.262-0.043-0.018-0.067-0.036-0.067-0.067,0-0.036,0.036-0.054,0.176-0.067,0.243-0.018,1.082-0.036,1.235-0.036,0.085,0,0.158,0.018,0.158,0.067,0,0.036-0.043,0.042-0.098,0.042-0.079,0-0.2,0.006-0.377,0.061-0.182,0.055-0.243,0.231-0.298,0.614l-0.553,3.759c-0.018,0.128-0.055,0.189-0.11,0.189-0.054,0-0.091-0.049-0.133-0.146l-1.655-3.473-1.66,3.43c-0.079,0.159-0.116,0.189-0.164,0.189-0.049,0-0.086-0.055-0.104-0.158l-0.602-3.966z"/></g><g id="g90" transform="translate(50.2301,1.9735)"><path id="path92" fill-rule="nonzero" fill="#002e6e" d="m0,0c0.03,0,0.048-0.012,0.061-0.042l0.486-1.29c0.031-0.073-0.012-0.128-0.055-0.14-0.06-0.006-0.084-0.018-0.084-0.055,0-0.043,0.073-0.043,0.182-0.049,0.487-0.011,0.931-0.011,1.15-0.011,0.225,0,0.279,0.011,0.279,0.06,0,0.043-0.03,0.049-0.079,0.049-0.073,0-0.164,0.006-0.255,0.024-0.128,0.031-0.304,0.116-0.535,0.664-0.39,0.924-1.363,3.405-1.509,3.74-0.061,0.14-0.097,0.194-0.152,0.194-0.061,0-0.097-0.066-0.17-0.242l-1.527-3.821c-0.122-0.303-0.237-0.51-0.517-0.547-0.049-0.006-0.134-0.012-0.188-0.012-0.049,0-0.074-0.012-0.074-0.049,0-0.049,0.037-0.06,0.116-0.06,0.316,0,0.651,0.017,0.718,0.017,0.188,0,0.45-0.017,0.644-0.017,0.067,0,0.104,0.011,0.104,0.06,0,0.037-0.018,0.049-0.091,0.049h-0.091c-0.189,0-0.244,0.079-0.244,0.189,0,0.073,0.03,0.218,0.091,0.37l0.329,0.87c0.012,0.037,0.024,0.049,0.055,0.049h1.356zm-1.235,0.304c-0.024,0-0.03,0.019-0.024,0.043l0.559,1.496c0.007,0.024,0.019,0.055,0.037,0.055s0.024-0.031,0.03-0.055l0.548-1.503c0.006-0.017,0-0.036-0.031-0.036h-1.119z"/></g><g id="g94" transform="translate(53.4069,3.7678)"><path id="path96" fill-rule="nonzero" fill="#002e6e" d="m0,0,0.019,0c0.109-0.115,0.783-0.876,1.446-1.533,0.632-0.626,1.41-1.423,1.792-1.788,0.067-0.067,0.141-0.134,0.208-0.134,0.054,0,0.079,0.055,0.079,0.189l0.066,3.838c0.006,0.341,0.055,0.468,0.225,0.517,0.073,0.018,0.122,0.018,0.183,0.018,0.073,0,0.11,0.018,0.11,0.055,0,0.048-0.062,0.054-0.141,0.054-0.297,0-0.529-0.018-0.596-0.018-0.127,0-0.419,0.018-0.735,0.018-0.091,0-0.158-0.006-0.158-0.054,0-0.037,0.024-0.055,0.097-0.055,0.085,0,0.231,0,0.322-0.037,0.146-0.06,0.201-0.176,0.207-0.547l0.061-2.731h-0.031c-0.103,0.097-0.923,0.973-1.337,1.387-0.887,0.882-1.811,1.873-1.884,1.952-0.104,0.11-0.159,0.189-0.227,0.189-0.061,0-0.079-0.086-0.079-0.207l-0.055-3.601c-0.006-0.529-0.03-0.705-0.189-0.754-0.085-0.024-0.194-0.03-0.273-0.03-0.061,0-0.098-0.013-0.098-0.049,0-0.054,0.055-0.061,0.134-0.061,0.316,0,0.603,0.018,0.658,0.018,0.116,0,0.36-0.018,0.755-0.018,0.085,0,0.14,0.012,0.14,0.061-0.002,0.036-0.039,0.049-0.105,0.049-0.098,0-0.213,0.006-0.317,0.042-0.121,0.043-0.2,0.201-0.213,0.675l-0.064,2.555z"/></g><g id="g98" transform="translate(60.7315,1.9735)"><path id="path100" fill-rule="nonzero" fill="#002e6e" d="m0,0c0.03,0,0.049-0.012,0.061-0.042l0.486-1.29c0.031-0.073-0.012-0.128-0.055-0.14-0.06-0.006-0.084-0.018-0.084-0.055,0-0.043,0.072-0.043,0.182-0.049,0.486-0.011,0.931-0.011,1.15-0.011,0.225,0,0.279,0.011,0.279,0.06,0,0.043-0.03,0.049-0.079,0.049-0.073,0-0.164,0.006-0.255,0.024-0.128,0.031-0.304,0.116-0.535,0.664-0.39,0.924-1.363,3.405-1.509,3.74-0.061,0.14-0.097,0.194-0.152,0.194-0.061,0-0.098-0.066-0.17-0.242l-1.527-3.821c-0.121-0.303-0.237-0.51-0.517-0.547-0.049-0.006-0.134-0.012-0.188-0.012-0.049,0-0.074-0.012-0.074-0.049,0-0.049,0.037-0.06,0.116-0.06,0.317,0,0.651,0.017,0.718,0.017,0.188,0,0.45-0.017,0.644-0.017,0.068,0,0.104,0.011,0.104,0.06,0,0.037-0.018,0.049-0.092,0.049h-0.09c-0.189,0-0.244,0.079-0.244,0.189,0,0.073,0.03,0.218,0.091,0.37l0.329,0.87c0.012,0.037,0.024,0.049,0.055,0.049h1.356zm-1.235,0.304c-0.024,0-0.03,0.019-0.024,0.043l0.559,1.496c0.007,0.024,0.019,0.055,0.037,0.055s0.024-0.031,0.03-0.055l0.548-1.503c0.006-0.017,0-0.036-0.031-0.036h-1.119z"/></g><g id="g102" transform="translate(64.0459,2.1497)"><path id="path104" fill-rule="nonzero" fill="#002e6e" d="m0,0c0-0.559,0-1.04-0.03-1.295-0.019-0.177-0.055-0.311-0.177-0.335-0.055-0.012-0.128-0.024-0.219-0.024-0.073,0-0.097-0.019-0.097-0.049,0-0.043,0.042-0.061,0.122-0.061,0.243,0,0.626,0.018,0.765,0.018,0.171,0,0.554-0.018,0.955-0.018,0.067,0,0.116,0.018,0.116,0.061,0,0.03-0.03,0.049-0.097,0.049-0.091,0-0.225,0.012-0.311,0.024-0.181,0.024-0.218,0.158-0.236,0.328-0.031,0.262-0.031,0.743-0.031,1.302v2.494l0.767-0.018c0.541-0.013,0.705-0.183,0.717-0.341l0.006-0.067c0.006-0.091,0.019-0.122,0.067-0.122,0.037,0,0.049,0.037,0.055,0.098,0,0.158,0.018,0.577,0.018,0.705,0,0.092-0.006,0.128-0.049,0.128-0.048,0-0.194-0.061-0.584-0.061h-2.408c-0.2,0-0.432,0.012-0.608,0.031-0.152,0.012-0.213,0.072-0.262,0.072-0.036,0-0.055-0.036-0.073-0.115-0.012-0.049-0.128-0.602-0.128-0.699,0-0.067,0.013-0.098,0.055-0.098,0.036,0,0.055,0.025,0.067,0.073,0.012,0.049,0.043,0.122,0.103,0.213,0.092,0.134,0.238,0.164,0.591,0.177l0.906,0.024v-2.494z"/></g><g id="g106" transform="translate(67.5363,2.3323)"><path id="path108" fill-rule="nonzero" fill="#002e6e" d="m0,0c0-0.882,0.231-1.332,0.542-1.612,0.443-0.402,1.027-0.42,1.349-0.42,0.396,0,0.834,0.067,1.266,0.438,0.51,0.438,0.577,1.156,0.577,1.831v0.651c0,0.925,0,1.095,0.013,1.29,0.012,0.212,0.061,0.316,0.225,0.346,0.072,0.012,0.109,0.018,0.176,0.018,0.073,0,0.11,0.013,0.11,0.055,0,0.043-0.043,0.055-0.128,0.055-0.237,0-0.621-0.018-0.693-0.018-0.007,0-0.39,0.018-0.7,0.018-0.085,0-0.128-0.012-0.128-0.055,0-0.042,0.037-0.055,0.103-0.055,0.067,0,0.171-0.006,0.22-0.018,0.201-0.042,0.249-0.14,0.261-0.346,0.012-0.195,0.012-0.365,0.012-1.29v-0.76c0-0.627-0.018-1.174-0.352-1.509-0.244-0.243-0.572-0.328-0.839-0.328-0.207,0-0.487,0.024-0.761,0.249-0.298,0.244-0.475,0.614-0.475,1.496v0.852c0,0.925,0,1.095,0.012,1.29,0.012,0.212,0.061,0.316,0.225,0.346,0.074,0.012,0.11,0.018,0.177,0.018,0.061,0,0.097,0.013,0.097,0.055,0,0.043-0.042,0.055-0.133,0.055-0.22,0-0.602-0.018-0.748-0.018-0.183,0-0.566,0.018-0.888,0.018-0.092,0-0.134-0.012-0.134-0.055,0-0.042,0.036-0.055,0.103-0.055,0.085,0,0.189-0.006,0.237-0.018,0.2-0.042,0.249-0.14,0.262-0.346,0.012-0.195,0.012-0.365,0.012-1.29v-0.888z"/></g><g id="g110" transform="translate(76.0848,3.0501)"><path id="path112" fill-rule="nonzero" fill="#002e6e" d="m0,0c-0.018,0-0.037,0.012-0.037,0.042v0.128c0,0.925,0,1.095,0.012,1.29,0.013,0.213,0.062,0.316,0.226,0.346,0.073,0.013,0.128,0.019,0.176,0.019,0.073,0,0.11,0.012,0.11,0.054,0,0.043-0.043,0.055-0.128,0.055-0.238,0-0.621-0.018-0.767-0.018-0.164,0-0.547,0.018-0.876,0.018-0.085,0-0.127-0.012-0.127-0.055,0-0.042,0.037-0.054,0.104-0.054,0.085,0,0.188-0.006,0.236-0.019,0.202-0.042,0.25-0.14,0.262-0.346,0.012-0.195,0.012-0.365,0.012-1.29v-1.07c0-0.56,0-1.04-0.03-1.296-0.024-0.176-0.055-0.31-0.176-0.334-0.056-0.012-0.128-0.025-0.219-0.025-0.073,0-0.098-0.018-0.098-0.048,0-0.043,0.043-0.061,0.122-0.061,0.243,0,0.626,0.018,0.766,0.018,0.17,0,0.553-0.018,0.949-0.018,0.073,0,0.122,0.018,0.122,0.061,0,0.03-0.031,0.048-0.097,0.048-0.092,0-0.226,0.013-0.31,0.025-0.183,0.024-0.22,0.158-0.238,0.328-0.031,0.262-0.031,0.742-0.031,1.302v0.535c0,0.031,0.019,0.036,0.037,0.036h2.323c0.018,0,0.037-0.011,0.037-0.036v-0.535c0-0.56,0-1.04-0.031-1.296-0.024-0.176-0.054-0.31-0.176-0.334-0.055-0.012-0.127-0.025-0.219-0.025-0.073,0-0.097-0.018-0.097-0.048,0-0.043,0.043-0.061,0.128-0.061,0.237,0,0.62,0.018,0.76,0.018,0.17,0,0.553-0.018,0.949-0.018,0.073,0,0.121,0.018,0.121,0.061,0,0.03-0.03,0.048-0.096,0.048-0.092,0-0.226,0.013-0.311,0.025-0.182,0.024-0.219,0.158-0.238,0.328-0.03,0.262-0.03,0.742-0.03,1.302v1.07c0,0.925,0,1.095,0.012,1.29,0.013,0.213,0.062,0.316,0.225,0.346,0.073,0.013,0.129,0.019,0.177,0.019,0.073,0,0.109,0.012,0.109,0.054,0,0.043-0.043,0.055-0.127,0.055-0.238,0-0.621-0.018-0.767-0.018-0.164,0-0.547,0.018-0.876,0.018-0.084,0-0.127-0.012-0.127-0.055,0-0.042,0.036-0.054,0.103-0.054,0.085,0,0.189-0.006,0.237-0.019,0.201-0.042,0.25-0.14,0.262-0.346,0.012-0.195,0.012-0.365,0.012-1.29v-0.128c0-0.03-0.019-0.042-0.037-0.042h-2.323z"/></g><g id="g114" transform="translate(83.0421,1.9735)"><path id="path116" fill-rule="nonzero" fill="#002e6e" d="m0,0c0.03,0,0.048-0.012,0.06-0.042l0.487-1.29c0.03-0.073-0.012-0.128-0.054-0.14-0.062-0.006-0.086-0.018-0.086-0.055,0-0.043,0.073-0.043,0.183-0.049,0.486-0.011,0.93-0.011,1.15-0.011,0.225,0,0.279,0.011,0.279,0.06,0,0.043-0.03,0.049-0.079,0.049-0.073,0-0.164,0.006-0.255,0.024-0.128,0.031-0.304,0.116-0.536,0.664-0.389,0.924-1.362,3.405-1.508,3.74-0.061,0.14-0.098,0.194-0.152,0.194-0.061,0-0.097-0.066-0.171-0.242l-1.527-3.821c-0.121-0.303-0.236-0.51-0.516-0.547-0.049-0.006-0.134-0.012-0.189-0.012-0.048,0-0.072-0.012-0.072-0.049,0-0.049,0.036-0.06,0.115-0.06,0.316,0,0.651,0.017,0.718,0.017,0.188,0,0.45-0.017,0.644-0.017,0.067,0,0.104,0.011,0.104,0.06,0,0.037-0.018,0.049-0.092,0.049h-0.091c-0.188,0-0.243,0.079-0.243,0.189,0,0.073,0.03,0.218,0.091,0.37l0.329,0.87c0.012,0.037,0.024,0.049,0.055,0.049h1.356zm-1.235,0.304c-0.024,0-0.03,0.019-0.024,0.043l0.559,1.496c0.007,0.024,0.018,0.055,0.037,0.055,0.018,0,0.024-0.031,0.03-0.055l0.547-1.503c0.007-0.017,0-0.036-0.03-0.036h-1.119z"/></g><g id="g118" transform="translate(85.6509,2.3323)"><path id="path120" fill-rule="nonzero" fill="#002e6e" d="m0,0c0-0.882,0.231-1.332,0.541-1.612,0.444-0.402,1.028-0.42,1.35-0.42,0.396,0,0.834,0.067,1.265,0.438,0.511,0.438,0.578,1.156,0.578,1.831v0.651c0,0.925,0,1.095,0.013,1.29,0.012,0.212,0.06,0.316,0.225,0.346,0.072,0.012,0.109,0.018,0.176,0.018,0.073,0,0.109,0.013,0.109,0.055,0,0.043-0.042,0.055-0.127,0.055-0.237,0-0.621-0.018-0.694-0.018-0.006,0-0.389,0.018-0.699,0.018-0.086,0-0.128-0.012-0.128-0.055,0-0.042,0.037-0.055,0.104-0.055,0.066,0,0.17-0.006,0.218-0.018,0.201-0.042,0.25-0.14,0.262-0.346,0.012-0.195,0.012-0.365,0.012-1.29v-0.76c0-0.627-0.018-1.174-0.353-1.509-0.243-0.243-0.572-0.328-0.839-0.328-0.206,0-0.486,0.024-0.76,0.249-0.299,0.244-0.475,0.614-0.475,1.496v0.852c0,0.925,0,1.095,0.012,1.29,0.012,0.212,0.061,0.316,0.225,0.346,0.074,0.012,0.11,0.018,0.177,0.018,0.061,0,0.098,0.013,0.098,0.055,0,0.043-0.043,0.055-0.134,0.055-0.22,0-0.603-0.018-0.749-0.018-0.182,0-0.565,0.018-0.888,0.018-0.091,0-0.134-0.012-0.134-0.055,0-0.042,0.037-0.055,0.104-0.055,0.085,0,0.188-0.006,0.237-0.018,0.201-0.042,0.249-0.14,0.262-0.346,0.012-0.195,0.012-0.365,0.012-1.29v-0.888z"/></g><g id="g122" transform="translate(93.1246,0.3008)"><path id="path124" fill-rule="nonzero" fill="#002e6e" d="m0,0c1.545,0,2.518,1.101,2.518,2.494,0,1.392-0.942,2.275-2.457,2.275-1.825,0-2.513-1.345-2.513-2.385,0-1.076,0.706-2.384,2.452-2.384m0.255,0.304c-1.168,0-1.867,1.004-1.867,2.269,0,1.514,0.797,1.903,1.496,1.903,0.998,0,1.783-0.845,1.783-2.207,0-1.758-0.986-1.965-1.412-1.965"/></g><g id="g126" transform="translate(96.7904,2.1497)"><path id="path128" fill-rule="nonzero" fill="#002e6e" d="m0,0c0-0.559,0-1.04-0.031-1.295-0.024-0.177-0.055-0.311-0.176-0.335-0.055-0.012-0.128-0.024-0.219-0.024-0.073,0-0.098-0.019-0.098-0.049,0-0.043,0.044-0.061,0.123-0.061,0.243,0,0.626,0.018,0.741,0.018,0.092,0,0.542-0.018,0.895-0.018,0.079,0,0.121,0.018,0.121,0.061,0,0.03-0.024,0.049-0.073,0.049-0.073,0-0.207,0.012-0.298,0.024-0.183,0.024-0.219,0.158-0.237,0.335-0.03,0.255-0.03,0.736-0.03,1.301v0.086c0,0.036,0.018,0.048,0.048,0.048l0.529-0.012c0.043,0,0.079-0.006,0.11-0.043,0.079-0.091,0.359-0.505,0.602-0.839,0.341-0.468,0.572-0.754,0.834-0.894,0.158-0.085,0.309-0.116,0.65-0.116h0.578c0.073,0,0.116,0.012,0.116,0.061,0,0.03-0.025,0.049-0.074,0.049-0.048,0-0.103,0.006-0.17,0.018-0.091,0.018-0.341,0.061-0.681,0.414-0.359,0.377-0.778,0.918-1.32,1.599,0.614,0.499,0.803,0.913,0.803,1.363,0,0.407-0.244,0.717-0.414,0.833-0.328,0.225-0.735,0.261-1.119,0.261-0.188,0-0.651-0.018-0.858-0.018-0.127,0-0.51,0.018-0.832,0.018-0.092,0-0.134-0.011-0.134-0.054s0.036-0.055,0.103-0.055c0.085,0,0.188-0.006,0.237-0.018,0.201-0.043,0.249-0.14,0.262-0.347,0.012-0.194,0.012-0.365,0.012-1.289v-1.071zm0.718,2.439c0,0.049,0.012,0.073,0.054,0.085,0.061,0.018,0.171,0.025,0.322,0.025,0.359,0,0.931-0.25,0.931-1.113,0-0.499-0.176-0.779-0.359-0.913-0.109-0.079-0.188-0.103-0.431-0.103-0.153,0-0.335,0.018-0.463,0.061-0.042,0.018-0.054,0.042-0.054,0.109v1.849z"/></g><g id="g130" transform="translate(103.5888,1.9735)"><path id="path132" fill-rule="nonzero" fill="#002e6e" d="m0,0c0.031,0,0.049-0.012,0.061-0.042l0.487-1.29c0.03-0.073-0.012-0.128-0.055-0.14-0.061-0.006-0.085-0.018-0.085-0.055,0-0.043,0.073-0.043,0.182-0.049,0.487-0.011,0.931-0.011,1.15-0.011,0.225,0,0.279,0.011,0.279,0.06,0,0.043-0.03,0.049-0.078,0.049-0.073,0-0.165,0.006-0.256,0.024-0.127,0.031-0.304,0.116-0.535,0.664-0.389,0.924-1.363,3.405-1.509,3.74-0.06,0.14-0.097,0.194-0.152,0.194-0.061,0-0.096-0.066-0.17-0.242l-1.527-3.821c-0.121-0.303-0.237-0.51-0.517-0.547-0.049-0.006-0.133-0.012-0.188-0.012-0.049,0-0.073-0.012-0.073-0.049,0-0.049,0.036-0.06,0.115-0.06,0.317,0,0.651,0.017,0.718,0.017,0.189,0,0.45-0.017,0.645-0.017,0.067,0,0.103,0.011,0.103,0.06,0,0.037-0.018,0.049-0.091,0.049h-0.091c-0.188,0-0.243,0.079-0.243,0.189,0,0.073,0.03,0.218,0.09,0.37l0.329,0.87c0.012,0.037,0.024,0.049,0.055,0.049h1.356zm-1.235,0.304c-0.023,0-0.03,0.019-0.023,0.043l0.559,1.496c0.006,0.024,0.018,0.055,0.036,0.055,0.019,0,0.024-0.031,0.031-0.055l0.547-1.503c0.007-0.017,0-0.036-0.03-0.036h-1.12z"/></g><g id="g134" transform="translate(70.4795,6.377)"><path id="path136" fill-rule="nonzero" fill="#002e6e" d="M0,0c0.064,0,0.091,0.012,0.1,0.037l0.073,0.219c0.019,0.042-0.009,0.06-0.073,0.06h-2.189c-0.064,0-0.092-0.012-0.101-0.055l-0.073-0.219c-0.009-0.03,0.01-0.042,0.073-0.042h2.19z"/></g><g id="g138" transform="translate(0,15.6464)"><path id="path140" fill-rule="nonzero" fill="#f7941e" d="m0,0,2.767,0.003c4.461,9.743,11.575,13.029,16.57,13.003,5.079-0.028,6.934-3.021,6.952-5.592,0.028-3.885-3.692-5.461-3.692-5.461s0.597,0.218,0.571,1.736c-0.029,1.635-1.168,2.283-3.067,2.284-1.768,0.001-4.072-1.406-4.045-3.503,0.024-1.983,1.3-3.449,4.125-3.449,5.321,0.001,12.001,3.719,11.983,9.268-0.016,5.019-4.327,8.403-9.544,8.638-10.138,0.457-16.315-7.344-16.315-7.344,7.051,13.585,23.949,21.77,23.949,21.77l-11.774,0.001s-14.375-13.657-18.48-31.354"/></g></g></g></g></svg>
