<?xml version="1.0" encoding="UTF-8" standalone="no"?>
<!-- Created with Inkscape (http://www.inkscape.org/) -->

<svg
   xmlns:dc="http://purl.org/dc/elements/1.1/"
   xmlns:cc="http://creativecommons.org/ns#"
   xmlns:rdf="http://www.w3.org/1999/02/22-rdf-syntax-ns#"
   xmlns:svg="http://www.w3.org/2000/svg"
   xmlns="http://www.w3.org/2000/svg"
   xmlns:sodipodi="http://sodipodi.sourceforge.net/DTD/sodipodi-0.dtd"
   xmlns:inkscape="http://www.inkscape.org/namespaces/inkscape"
   version="1.1"
   width="119"
   height="47"
   id="svg2"
   xml:space="preserve"
   inkscape:version="0.48.4 r9939"
   sodipodi:docname="moh-logo.svg"><sodipodi:namedview
     pagecolor="#ffffff"
     bordercolor="#666666"
     borderopacity="1"
     objecttolerance="10"
     gridtolerance="10"
     guidetolerance="10"
     inkscape:pageopacity="0"
     inkscape:pageshadow="2"
     inkscape:window-width="1274"
     inkscape:window-height="841"
     id="namedview71"
     showgrid="false"
     inkscape:zoom="6.6431949"
     inkscape:cx="20.067117"
     inkscape:cy="39.784859"
     inkscape:window-x="96"
     inkscape:window-y="32"
     inkscape:window-maximized="0"
     inkscape:current-layer="svg2" /><metadata
     id="metadata8"><rdf:RDF><cc:Work
         rdf:about=""><dc:format>image/svg+xml</dc:format><dc:type
           rdf:resource="http://purl.org/dc/dcmitype/StillImage" /><dc:title /></cc:Work></rdf:RDF></metadata><defs
     id="defs6"><clipPath
       id="clipPath18"><path
         d="M 0,47 116,47 116,0 0,0 0,47 z"
         id="path20"
         inkscape:connector-curvature="0" /></clipPath></defs><g
     transform="matrix(1.0064304,0,0,-1.0064304,0,47.227916)"
     id="g10"><path
       d="m 0,9.636 116,0 0,37.363 -116,0 0,-37.363 z"
       id="path12"
       style="fill:#002e6e;fill-opacity:1;fill-rule:nonzero;stroke:none"
       inkscape:connector-curvature="0" /><g
       id="g14"><g
         clip-path="url(#clipPath18)"
         id="g16"><g
           transform="translate(41.8824,33.9292)"
           id="g22"><path
             d="m 0,0 c -0.043,-0.295 -0.113,-0.634 -0.356,-0.686 -0.131,-0.026 -0.191,-0.026 -0.261,-0.026 -0.087,0 -0.139,-0.018 -0.139,-0.061 0,-0.078 0.07,-0.096 0.156,-0.096 0.279,0 0.696,0.026 0.861,0.026 0.156,0 0.547,-0.026 0.912,-0.026 0.13,0 0.209,0.018 0.209,0.096 0,0.043 -0.061,0.061 -0.131,0.061 -0.087,0 -0.208,0.008 -0.365,0.043 -0.148,0.035 -0.26,0.113 -0.26,0.278 0,0.139 0.008,0.252 0.026,0.409 l 0.451,3.458 0.035,0 C 1.442,2.824 1.964,1.729 2.042,1.547 2.146,1.303 2.833,-0.026 3.041,-0.426 3.18,-0.686 3.267,-0.86 3.345,-0.86 c 0.079,0 0.122,0.078 0.322,0.487 l 1.894,3.944 0.035,0 0.521,-3.823 C 6.152,-0.495 6.126,-0.608 6.074,-0.625 6.013,-0.652 5.978,-0.678 5.978,-0.721 c 0,-0.052 0.052,-0.078 0.252,-0.096 0.348,-0.026 1.547,-0.052 1.764,-0.052 0.122,0 0.226,0.026 0.226,0.096 0,0.052 -0.061,0.061 -0.139,0.061 -0.113,0 -0.287,0.008 -0.539,0.087 -0.261,0.077 -0.347,0.33 -0.426,0.877 l -0.79,5.37 C 6.299,5.805 6.247,5.891 6.169,5.891 6.091,5.891 6.039,5.822 5.978,5.683 L 3.615,0.721 1.242,5.622 C 1.129,5.848 1.077,5.891 1.008,5.891 0.939,5.891 0.886,5.813 0.86,5.665 L 0,0 z"
             id="path24"
             style="fill:#ffffff;fill-opacity:1;fill-rule:nonzero;stroke:none"
             inkscape:connector-curvature="0" /></g><g
           transform="translate(51.5447,35.5802)"
           id="g26"><path
             d="m 0,0 c 0,-0.843 0,-1.529 -0.043,-1.894 -0.027,-0.253 -0.079,-0.4 -0.252,-0.435 -0.079,-0.017 -0.183,-0.034 -0.314,-0.034 -0.104,0 -0.138,-0.026 -0.138,-0.07 0,-0.061 0.061,-0.087 0.174,-0.087 0.347,0 0.895,0.026 1.094,0.026 0.235,0 0.782,-0.026 1.356,-0.026 0.096,0 0.165,0.026 0.165,0.087 0,0.044 -0.044,0.07 -0.139,0.07 -0.13,0 -0.322,0.017 -0.443,0.034 C 1.199,-2.294 1.138,-2.138 1.112,-1.903 1.077,-1.529 1.077,-0.843 1.077,0 l 0,1.529 c 0,1.321 0,1.564 0.018,1.842 0.017,0.305 0.087,0.452 0.321,0.496 0.105,0.017 0.174,0.026 0.261,0.026 0.087,0 0.139,0.017 0.139,0.087 0,0.052 -0.07,0.069 -0.182,0.069 -0.331,0 -0.843,-0.026 -1.06,-0.026 -0.252,0 -0.8,0.026 -1.13,0.026 -0.139,0 -0.209,-0.017 -0.209,-0.069 0,-0.07 0.052,-0.087 0.139,-0.087 0.105,0 0.218,-0.009 0.313,-0.035 C -0.122,3.814 -0.035,3.667 -0.017,3.371 0,3.093 0,2.85 0,1.529 L 0,0 z"
             id="path28"
             style="fill:#ffffff;fill-opacity:1;fill-rule:nonzero;stroke:none"
             inkscape:connector-curvature="0" /></g><g
           transform="translate(55.926,37.8915)"
           id="g30"><path
             d="m 0,0 0.027,0 c 0.156,-0.165 1.12,-1.251 2.066,-2.19 0.903,-0.895 2.014,-2.033 2.561,-2.554 0.096,-0.096 0.2,-0.192 0.296,-0.192 0.078,0 0.112,0.079 0.112,0.27 l 0.096,5.483 c 0.008,0.486 0.078,0.669 0.322,0.738 0.104,0.026 0.173,0.026 0.26,0.026 0.104,0 0.156,0.026 0.156,0.079 0,0.069 -0.086,0.078 -0.199,0.078 -0.426,0 -0.756,-0.026 -0.852,-0.026 -0.183,0 -0.599,0.026 -1.05,0.026 -0.131,0 -0.226,-0.009 -0.226,-0.078 0,-0.053 0.034,-0.079 0.138,-0.079 0.122,0 0.331,0 0.46,-0.052 C 4.376,1.442 4.454,1.277 4.463,0.748 l 0.087,-3.902 -0.044,0 c -0.147,0.139 -1.319,1.39 -1.909,1.981 -1.268,1.26 -2.588,2.676 -2.693,2.789 -0.149,0.157 -0.227,0.269 -0.323,0.269 -0.088,0 -0.114,-0.121 -0.114,-0.295 l -0.078,-5.144 c -0.009,-0.756 -0.044,-1.008 -0.27,-1.077 -0.121,-0.035 -0.278,-0.044 -0.391,-0.044 -0.087,0 -0.139,-0.017 -0.139,-0.069 0,-0.078 0.079,-0.087 0.192,-0.087 0.451,0 0.861,0.026 0.939,0.026 0.167,0 0.515,-0.026 1.079,-0.026 0.122,0 0.2,0.017 0.2,0.087 -0.003,0.052 -0.055,0.069 -0.151,0.069 -0.139,0 -0.304,0.009 -0.452,0.061 -0.173,0.061 -0.287,0.287 -0.304,0.964 L 0,0 z"
             id="path32"
             style="fill:#ffffff;fill-opacity:1;fill-rule:nonzero;stroke:none"
             inkscape:connector-curvature="0" /></g><g
           transform="translate(63.8179,35.5802)"
           id="g34"><path
             d="m 0,0 c 0,-0.843 0,-1.529 -0.043,-1.894 -0.026,-0.253 -0.078,-0.4 -0.252,-0.435 -0.078,-0.017 -0.183,-0.034 -0.313,-0.034 -0.105,0 -0.139,-0.026 -0.139,-0.07 0,-0.061 0.06,-0.087 0.174,-0.087 0.347,0 0.894,0.026 1.094,0.026 0.235,0 0.782,-0.026 1.356,-0.026 0.096,0 0.165,0.026 0.165,0.087 0,0.044 -0.044,0.07 -0.139,0.07 -0.131,0 -0.321,0.017 -0.443,0.034 C 1.199,-2.294 1.139,-2.138 1.113,-1.903 1.077,-1.529 1.077,-0.843 1.077,0 l 0,1.529 c 0,1.321 0,1.564 0.018,1.842 0.018,0.305 0.087,0.452 0.322,0.496 0.104,0.017 0.173,0.026 0.26,0.026 0.087,0 0.139,0.017 0.139,0.087 0,0.052 -0.069,0.069 -0.182,0.069 -0.331,0 -0.844,-0.026 -1.061,-0.026 -0.252,0 -0.799,0.026 -1.129,0.026 -0.139,0 -0.209,-0.017 -0.209,-0.069 0,-0.07 0.052,-0.087 0.14,-0.087 0.104,0 0.217,-0.009 0.312,-0.035 C -0.121,3.814 -0.035,3.667 -0.017,3.371 0,3.093 0,2.85 0,1.529 L 0,0 z"
             id="path36"
             style="fill:#ffffff;fill-opacity:1;fill-rule:nonzero;stroke:none"
             inkscape:connector-curvature="0" /></g><g
           transform="translate(68.5955,32.9387)"
           id="g38"><path
             d="m 0,0 c 0.461,0 0.947,0.078 1.382,0.356 0.625,0.409 0.817,1.008 0.817,1.512 0,0.826 -0.383,1.408 -1.426,2.216 L 0.53,4.267 c -0.721,0.547 -0.921,0.851 -0.921,1.251 0,0.521 0.391,0.895 1.034,0.895 0.565,0 0.817,-0.261 0.947,-0.426 0.183,-0.226 0.226,-0.496 0.226,-0.574 0,-0.104 0.026,-0.156 0.087,-0.156 0.07,0 0.096,0.069 0.096,0.261 0,0.677 0.034,0.929 0.034,1.042 0,0.061 -0.043,0.087 -0.121,0.105 -0.226,0.06 -0.591,0.147 -1.156,0.147 -1.208,0 -2.007,-0.686 -2.007,-1.642 0,-0.704 0.33,-1.312 1.286,-2.059 l 0.4,-0.313 C 1.156,2.242 1.286,1.833 1.286,1.408 1.286,0.947 0.904,0.417 0.122,0.417 c -0.539,0 -1.052,0.235 -1.243,0.878 -0.044,0.147 -0.078,0.33 -0.078,0.443 0,0.069 -0.009,0.148 -0.087,0.148 C -1.355,1.886 -1.382,1.79 -1.391,1.66 -1.399,1.521 -1.434,1 -1.434,0.521 -1.434,0.33 -1.408,0.287 -1.269,0.226 -0.895,0.061 -0.504,0 0,0"
             id="path40"
             style="fill:#ffffff;fill-opacity:1;fill-rule:nonzero;stroke:none"
             inkscape:connector-curvature="0" /></g><g
           transform="translate(74.075,35.5802)"
           id="g42"><path
             d="m 0,0 c 0,-0.8 0,-1.486 -0.043,-1.851 -0.026,-0.252 -0.078,-0.443 -0.252,-0.478 -0.078,-0.017 -0.183,-0.034 -0.313,-0.034 -0.105,0 -0.139,-0.026 -0.139,-0.07 0,-0.061 0.06,-0.087 0.174,-0.087 0.347,0 0.894,0.026 1.094,0.026 0.243,0 0.791,-0.026 1.364,-0.026 0.096,0 0.165,0.026 0.165,0.087 0,0.044 -0.043,0.07 -0.138,0.07 -0.131,0 -0.322,0.017 -0.443,0.034 C 1.208,-2.294 1.156,-2.103 1.13,-1.859 1.086,-1.486 1.086,-0.8 1.086,0 l 0,3.563 1.095,-0.027 C 2.954,3.519 3.189,3.276 3.206,3.05 L 3.215,2.954 C 3.224,2.824 3.241,2.78 3.31,2.78 c 0.052,0 0.07,0.053 0.079,0.14 0,0.225 0.026,0.825 0.026,1.007 0,0.131 -0.009,0.183 -0.07,0.183 -0.069,0 -0.278,-0.087 -0.834,-0.087 l -3.441,0 c -0.287,0 -0.617,0.017 -0.869,0.044 -0.217,0.017 -0.304,0.104 -0.374,0.104 -0.052,0 -0.078,-0.053 -0.104,-0.165 -0.017,-0.07 -0.182,-0.861 -0.182,-0.999 0,-0.096 0.017,-0.14 0.078,-0.14 0.053,0 0.078,0.035 0.096,0.104 0.017,0.07 0.06,0.174 0.147,0.305 0.131,0.191 0.339,0.235 0.843,0.252 L 0,3.563 0,0 z"
             id="path44"
             style="fill:#ffffff;fill-opacity:1;fill-rule:nonzero;stroke:none"
             inkscape:connector-curvature="0" /></g><g
           transform="translate(79.1485,35.5802)"
           id="g46"><path
             d="m 0,0 c 0,-0.8 0,-1.486 -0.044,-1.851 -0.034,-0.252 -0.078,-0.443 -0.251,-0.478 -0.078,-0.017 -0.183,-0.034 -0.313,-0.034 -0.105,0 -0.139,-0.026 -0.139,-0.07 0,-0.061 0.06,-0.087 0.174,-0.087 0.347,0 0.894,0.026 1.059,0.026 0.13,0 0.774,-0.026 1.278,-0.026 0.112,0 0.174,0.026 0.174,0.087 0,0.044 -0.035,0.07 -0.105,0.07 -0.104,0 -0.295,0.017 -0.425,0.034 -0.261,0.035 -0.314,0.226 -0.34,0.478 -0.043,0.365 -0.043,1.051 -0.043,1.86 l 0,0.121 c 0,0.052 0.026,0.07 0.069,0.07 L 1.85,0.182 c 0.062,0 0.114,-0.008 0.157,-0.06 0.113,-0.131 0.513,-0.722 0.86,-1.2 0.487,-0.669 0.817,-1.077 1.19,-1.277 0.226,-0.121 0.444,-0.165 0.931,-0.165 l 0.825,0 c 0.105,0 0.165,0.018 0.165,0.087 0,0.044 -0.035,0.07 -0.104,0.07 -0.07,0 -0.148,0.008 -0.244,0.026 -0.13,0.025 -0.487,0.086 -0.972,0.59 -0.513,0.539 -1.113,1.312 -1.886,2.286 0.877,0.712 1.147,1.303 1.147,1.946 0,0.582 -0.348,1.026 -0.592,1.191 -0.469,0.321 -1.051,0.373 -1.598,0.373 -0.269,0 -0.93,-0.026 -1.225,-0.026 -0.183,0 -0.73,0.026 -1.191,0.026 -0.13,0 -0.191,-0.017 -0.191,-0.078 0,-0.061 0.053,-0.078 0.148,-0.078 0.122,0 0.269,-0.009 0.339,-0.026 0.287,-0.061 0.356,-0.2 0.374,-0.496 C 0,3.093 0,2.85 0,1.529 L 0,0 z m 1.025,3.484 c 0,0.07 0.017,0.104 0.078,0.122 0.087,0.026 0.244,0.035 0.46,0.035 0.513,0 1.331,-0.357 1.331,-1.59 C 2.894,1.338 2.642,0.938 2.381,0.747 2.224,0.634 2.111,0.6 1.764,0.6 1.546,0.6 1.286,0.626 1.103,0.686 1.042,0.712 1.025,0.747 1.025,0.843 l 0,2.641 z"
             id="path48"
             style="fill:#ffffff;fill-opacity:1;fill-rule:nonzero;stroke:none"
             inkscape:connector-curvature="0" /></g><g
           transform="translate(86.5675,34.5984)"
           id="g50"><path
             d="m 0,0 c 0,-0.139 0,-0.504 -0.026,-0.869 -0.018,-0.252 -0.096,-0.443 -0.27,-0.478 -0.078,-0.017 -0.182,-0.035 -0.304,-0.035 -0.096,0 -0.139,-0.026 -0.139,-0.069 0,-0.07 0.069,-0.087 0.191,-0.087 0.322,0 0.869,0.026 1.086,0.026 0.235,0 0.782,-0.026 1.329,-0.026 0.114,0 0.183,0.026 0.183,0.087 0,0.043 -0.043,0.069 -0.138,0.069 -0.123,0 -0.314,0.018 -0.435,0.035 C 1.216,-1.312 1.138,-1.121 1.12,-0.869 1.094,-0.504 1.094,-0.139 1.094,0 l 0,0.713 c 0,0.287 0,0.556 0.131,0.868 0.157,0.374 1.372,2.416 1.66,2.763 0.19,0.235 0.287,0.339 0.468,0.427 0.131,0.069 0.296,0.103 0.383,0.103 0.095,0 0.165,0.027 0.165,0.087 0,0.053 -0.061,0.07 -0.156,0.07 -0.166,0 -0.739,-0.026 -0.93,-0.026 -0.252,0 -0.53,0.026 -0.817,0.026 -0.104,0 -0.147,-0.017 -0.147,-0.078 0,-0.052 0.078,-0.07 0.156,-0.087 C 2.155,4.831 2.189,4.736 2.189,4.649 2.189,4.536 2.155,4.388 2.068,4.197 1.946,3.928 0.851,2.016 0.764,1.807 0.625,2.051 -0.591,4.145 -0.713,4.405 c -0.061,0.122 -0.104,0.226 -0.104,0.296 0,0.07 0.043,0.139 0.121,0.156 0.131,0.035 0.192,0.044 0.192,0.096 0,0.052 -0.044,0.078 -0.131,0.078 -0.391,0 -0.747,-0.026 -0.929,-0.026 -0.287,0 -0.939,0.026 -1.096,0.026 -0.104,0 -0.164,-0.026 -0.164,-0.078 0,-0.061 0.06,-0.079 0.13,-0.079 0.105,0 0.252,-0.052 0.365,-0.112 C -2.164,4.666 -1.947,4.449 -1.73,4.127 -1.425,3.676 -0.261,1.764 -0.2,1.625 -0.087,1.373 0,1.182 0,0.713 L 0,0 z"
             id="path52"
             style="fill:#ffffff;fill-opacity:1;fill-rule:nonzero;stroke:none"
             inkscape:connector-curvature="0" /></g><g
           transform="translate(96.6955,32.9387)"
           id="g54"><path
             d="m 0,0 c 2.207,0 3.597,1.573 3.597,3.563 0,1.989 -1.347,3.249 -3.509,3.249 -2.608,0 -3.59,-1.92 -3.59,-3.406 C -3.502,1.868 -2.494,0 0,0 m 0.365,0.434 c -1.668,0 -2.668,1.434 -2.668,3.242 0,2.163 1.138,2.719 2.138,2.719 1.425,0 2.546,-1.208 2.546,-3.154 0,-2.511 -1.408,-2.807 -2.016,-2.807"
             id="path56"
             style="fill:#ffffff;fill-opacity:1;fill-rule:nonzero;stroke:none"
             inkscape:connector-curvature="0" /></g><g
           transform="translate(103.2615,36.2841)"
           id="g58"><path
             d="m 0,0 c 0,0.061 0.018,0.078 0.061,0.078 0.148,0 1.069,0 1.286,-0.026 0.27,-0.035 0.4,-0.191 0.443,-0.313 0.035,-0.104 0.052,-0.208 0.052,-0.269 0,-0.061 0.017,-0.122 0.07,-0.122 0.087,0 0.087,0.087 0.087,0.165 0,0.061 0.017,0.461 0.035,0.635 0.025,0.269 0.069,0.486 0.069,0.538 0,0.052 -0.018,0.079 -0.052,0.079 C 1.999,0.765 1.982,0.73 1.938,0.678 1.851,0.565 1.73,0.53 1.564,0.521 1.443,0.513 1.321,0.513 1.174,0.513 L 0.061,0.504 C 0.009,0.504 0,0.53 0,0.582 L 0,2.754 C 0,2.85 0.026,2.876 0.078,2.876 L 1.416,2.85 C 1.747,2.841 1.929,2.711 1.99,2.589 2.042,2.467 2.042,2.329 2.042,2.259 2.051,2.164 2.068,2.12 2.129,2.12 c 0.061,0 0.079,0.052 0.087,0.122 0.017,0.104 0.035,0.617 0.043,0.704 0.026,0.226 0.07,0.33 0.07,0.39 0,0.044 -0.026,0.079 -0.061,0.079 C 2.225,3.415 2.181,3.38 2.129,3.363 2.042,3.336 1.938,3.336 1.773,3.328 1.573,3.319 -0.191,3.319 -0.521,3.319 c -0.252,0 -0.799,0.026 -1.251,0.026 -0.131,0 -0.2,-0.017 -0.2,-0.087 0,-0.052 0.06,-0.069 0.148,-0.069 0.121,0 0.269,-0.009 0.338,-0.026 0.287,-0.061 0.357,-0.2 0.374,-0.495 0.018,-0.278 0.018,-0.522 0.018,-1.843 l 0,-1.529 c 0,-0.834 0,-1.486 -0.044,-1.851 -0.035,-0.252 -0.078,-0.443 -0.252,-0.478 -0.078,-0.017 -0.182,-0.034 -0.313,-0.034 -0.095,0 -0.13,-0.026 -0.13,-0.07 0,-0.069 0.061,-0.087 0.183,-0.087 0.33,0 0.877,0.026 1.103,0.026 0.226,0 0.773,-0.026 1.321,-0.026 0.13,0 0.191,0.026 0.191,0.087 0,0.044 -0.035,0.07 -0.148,0.07 -0.121,0 -0.313,0.017 -0.434,0.034 C 0.121,-2.998 0.069,-2.807 0.044,-2.555 0,-2.19 0,-1.538 0,-0.704 L 0,0 z"
             id="path60"
             style="fill:#ffffff;fill-opacity:1;fill-rule:nonzero;stroke:none"
             inkscape:connector-curvature="0" /></g><g
           transform="translate(44.4762,23.9324)"
           id="g62"><path
             d="m 0,0 c -0.043,0 -0.086,0.029 -0.086,0.1 l 0,0.301 c 0,2.18 0,2.581 0.029,3.04 0.028,0.502 0.143,0.746 0.53,0.817 0.172,0.028 0.301,0.043 0.416,0.043 0.172,0 0.258,0.029 0.258,0.129 0,0.101 -0.1,0.129 -0.301,0.129 -0.559,0 -1.462,-0.043 -1.807,-0.043 -0.387,0 -1.29,0.043 -2.064,0.043 -0.201,0 -0.301,-0.028 -0.301,-0.129 0,-0.1 0.086,-0.129 0.244,-0.129 0.2,0 0.444,-0.015 0.559,-0.043 0.473,-0.1 0.588,-0.33 0.616,-0.817 0.029,-0.459 0.029,-0.86 0.029,-3.04 l 0,-2.523 c 0,-1.319 0,-2.452 -0.072,-3.053 -0.057,-0.416 -0.129,-0.732 -0.416,-0.789 -0.129,-0.029 -0.301,-0.058 -0.516,-0.058 -0.172,0 -0.229,-0.043 -0.229,-0.114 0,-0.1 0.1,-0.144 0.287,-0.144 0.573,0 1.476,0.044 1.806,0.044 0.402,0 1.305,-0.044 2.237,-0.044 0.172,0 0.286,0.044 0.286,0.144 0,0.071 -0.071,0.114 -0.229,0.114 -0.215,0 -0.531,0.029 -0.731,0.058 -0.43,0.057 -0.517,0.373 -0.559,0.774 -0.072,0.616 -0.072,1.749 -0.072,3.068 l 0,1.262 c 0,0.071 0.043,0.086 0.086,0.086 l 5.477,0 c 0.043,0 0.086,-0.029 0.086,-0.086 l 0,-1.262 c 0,-1.319 0,-2.452 -0.072,-3.053 C 5.433,-5.591 5.362,-5.907 5.075,-5.964 4.946,-5.993 4.774,-6.022 4.559,-6.022 c -0.172,0 -0.229,-0.043 -0.229,-0.114 0,-0.1 0.1,-0.144 0.301,-0.144 0.559,0 1.462,0.044 1.792,0.044 0.401,0 1.305,-0.044 2.237,-0.044 0.172,0 0.286,0.044 0.286,0.144 0,0.071 -0.071,0.114 -0.229,0.114 -0.215,0 -0.531,0.029 -0.731,0.058 -0.43,0.057 -0.516,0.373 -0.559,0.774 -0.072,0.616 -0.072,1.749 -0.072,3.068 l 0,2.523 c 0,2.18 0,2.581 0.028,3.04 0.029,0.502 0.144,0.746 0.531,0.817 0.172,0.028 0.301,0.043 0.416,0.043 0.172,0 0.258,0.029 0.258,0.129 0,0.101 -0.101,0.129 -0.301,0.129 -0.559,0 -1.463,-0.043 -1.807,-0.043 -0.387,0 -1.29,0.043 -2.064,0.043 -0.201,0 -0.301,-0.028 -0.301,-0.129 0,-0.1 0.086,-0.129 0.243,-0.129 0.201,0 0.445,-0.015 0.56,-0.043 0.473,-0.1 0.588,-0.33 0.616,-0.817 0.029,-0.459 0.029,-0.86 0.029,-3.04 l 0,-0.301 C 5.563,0.029 5.52,0 5.477,0 L 0,0 z"
             id="path64"
             style="fill:#ffffff;fill-opacity:1;fill-rule:nonzero;stroke:none"
             inkscape:connector-curvature="0" /></g><g
           transform="translate(56.5312,21.8103)"
           id="g66"><path
             d="M 0,0 C 0,-1.319 0,-2.452 -0.072,-3.053 -0.129,-3.469 -0.201,-3.785 -0.488,-3.842 -0.617,-3.871 -0.789,-3.9 -1.004,-3.9 c -0.172,0 -0.229,-0.043 -0.229,-0.114 0,-0.1 0.1,-0.144 0.287,-0.144 0.573,0 1.476,0.044 1.806,0.044 0.846,0 1.807,-0.087 3.971,-0.087 0.545,0 0.675,0 0.775,0.373 0.071,0.287 0.186,1.262 0.186,1.591 0,0.144 0,0.258 -0.115,0.258 -0.1,0 -0.129,-0.057 -0.157,-0.214 C 5.419,-2.781 5.247,-3.082 4.875,-3.254 4.502,-3.426 3.9,-3.426 3.527,-3.426 c -1.463,0 -1.692,0.215 -1.721,1.204 -0.014,0.415 0,1.735 0,2.222 l 0,1.133 c 0,0.086 0.015,0.143 0.086,0.143 0.345,0 1.764,-0.014 2.037,-0.043 C 4.458,1.176 4.659,0.961 4.731,0.674 4.774,0.488 4.774,0.301 4.789,0.158 c 0,-0.072 0.028,-0.129 0.129,-0.129 0.129,0 0.129,0.158 0.129,0.272 0,0.101 0.028,0.674 0.056,0.961 0.044,0.731 0.116,0.96 0.116,1.046 0,0.086 -0.044,0.115 -0.101,0.115 C 5.047,2.423 4.989,2.352 4.889,2.237 4.759,2.093 4.545,2.05 4.201,2.022 3.871,1.993 2.222,1.993 1.907,1.993 1.821,1.993 1.806,2.05 1.806,2.151 l 0,3.627 c 0,0.1 0.029,0.143 0.101,0.143 0.287,0 1.792,-0.028 2.035,-0.057 C 4.659,5.778 4.803,5.606 4.903,5.348 4.975,5.176 4.989,4.932 4.989,4.832 c 0,-0.129 0.029,-0.201 0.129,-0.201 0.101,0 0.129,0.086 0.144,0.158 0.028,0.172 0.057,0.803 0.071,0.946 0.043,0.66 0.115,0.831 0.115,0.932 0,0.072 -0.014,0.129 -0.086,0.129 C 5.29,6.796 5.204,6.753 5.133,6.739 5.018,6.71 4.789,6.681 4.516,6.653 4.244,6.638 1.391,6.638 0.932,6.638 c -0.402,0 -1.305,0.043 -2.065,0.043 -0.215,0 -0.315,-0.028 -0.315,-0.129 0,-0.1 0.086,-0.129 0.243,-0.129 0.201,0 0.445,-0.015 0.56,-0.043 0.473,-0.1 0.588,-0.33 0.616,-0.817 C 0,5.104 0,4.703 0,2.523 L 0,0 z"
             id="path68"
             style="fill:#ffffff;fill-opacity:1;fill-rule:nonzero;stroke:none"
             inkscape:connector-curvature="0" /></g><g
           transform="translate(69.6459,21.3943)"
           id="g70"><path
             d="M 0,0 C 0.072,0 0.115,-0.029 0.143,-0.1 L 1.29,-3.139 c 0.072,-0.173 -0.028,-0.301 -0.129,-0.33 -0.143,-0.014 -0.2,-0.044 -0.2,-0.129 0,-0.101 0.172,-0.101 0.43,-0.115 1.147,-0.029 2.193,-0.029 2.71,-0.029 0.53,0 0.659,0.029 0.659,0.144 0,0.1 -0.072,0.115 -0.187,0.115 -0.172,0 -0.387,0.014 -0.601,0.057 -0.302,0.071 -0.717,0.272 -1.262,1.563 -0.917,2.179 -3.212,8.029 -3.556,8.817 -0.143,0.33 -0.229,0.458 -0.359,0.458 -0.143,0 -0.229,-0.157 -0.401,-0.573 l -3.598,-9.004 c -0.287,-0.716 -0.559,-1.204 -1.219,-1.29 -0.114,-0.014 -0.315,-0.028 -0.445,-0.028 -0.114,0 -0.172,-0.03 -0.172,-0.115 0,-0.115 0.087,-0.144 0.273,-0.144 0.746,0 1.534,0.043 1.692,0.043 0.444,0 1.061,-0.043 1.519,-0.043 0.158,0 0.244,0.029 0.244,0.144 0,0.085 -0.043,0.115 -0.215,0.115 l -0.215,0 c -0.444,0 -0.573,0.186 -0.573,0.444 0,0.172 0.071,0.516 0.214,0.874 l 0.775,2.051 C -3.297,-0.029 -3.269,0 -3.197,0 L 0,0 z m -2.911,0.717 c -0.057,0 -0.071,0.043 -0.057,0.101 l 1.319,3.526 c 0.015,0.058 0.043,0.13 0.086,0.13 0.043,0 0.057,-0.072 0.072,-0.13 l 1.29,-3.541 c 0.015,-0.043 0,-0.086 -0.071,-0.086 l -2.639,0 z"
             id="path72"
             style="fill:#ffffff;fill-opacity:1;fill-rule:nonzero;stroke:none"
             inkscape:connector-curvature="0" /></g><g
           transform="translate(77.9888,24.3335)"
           id="g74"><path
             d="M 0,0 C 0,2.18 0,2.581 0.029,3.04 0.057,3.541 0.172,3.785 0.558,3.857 0.731,3.885 0.961,3.9 1.118,3.9 c 0.172,0 0.258,0.029 0.258,0.129 0,0.1 -0.1,0.129 -0.301,0.129 -0.559,0 -1.606,-0.043 -1.95,-0.043 -0.387,0 -1.29,0.043 -1.964,0.043 -0.215,0 -0.315,-0.029 -0.315,-0.129 0,-0.1 0.086,-0.129 0.243,-0.129 0.187,0 0.359,-0.015 0.473,-0.043 0.473,-0.1 0.588,-0.33 0.617,-0.817 C -1.793,2.581 -1.793,2.18 -1.793,0 l 0,-2.523 c 0,-1.319 0,-2.452 -0.072,-3.054 -0.056,-0.416 -0.128,-0.731 -0.414,-0.789 -0.13,-0.028 -0.302,-0.057 -0.517,-0.057 -0.172,0 -0.23,-0.043 -0.23,-0.114 0,-0.101 0.101,-0.144 0.288,-0.144 0.573,0 1.476,0.043 1.806,0.043 1.161,0 2.107,-0.086 4.172,-0.086 0.746,0 0.817,0.072 0.903,0.387 0.115,0.416 0.215,1.491 0.215,1.649 0,0.172 -0.015,0.244 -0.114,0.244 -0.115,0 -0.143,-0.086 -0.158,-0.215 C 4.057,-4.932 3.885,-5.333 3.713,-5.52 3.354,-5.907 2.796,-5.921 2.036,-5.921 c -1.118,0 -1.491,0.1 -1.735,0.315 C 0,-5.348 0,-4.358 0,-2.523 L 0,0 z"
             id="path76"
             style="fill:#ffffff;fill-opacity:1;fill-rule:nonzero;stroke:none"
             inkscape:connector-curvature="0" /></g><g
           transform="translate(86.3733,21.8103)"
           id="g78"><path
             d="M 0,0 C 0,-1.319 0,-2.452 -0.071,-3.053 -0.114,-3.469 -0.2,-3.785 -0.487,-3.842 -0.616,-3.871 -0.788,-3.9 -1.003,-3.9 c -0.172,0 -0.23,-0.043 -0.23,-0.114 0,-0.1 0.1,-0.144 0.287,-0.144 0.574,0 1.477,0.044 1.806,0.044 0.402,0 1.305,-0.044 2.251,-0.044 0.158,0 0.273,0.044 0.273,0.144 0,0.071 -0.072,0.114 -0.23,0.114 -0.215,0 -0.53,0.029 -0.731,0.058 -0.43,0.057 -0.516,0.373 -0.559,0.774 C 1.793,-2.452 1.793,-1.319 1.793,0 l 0,5.878 1.806,-0.043 C 4.874,5.807 5.262,5.405 5.291,5.033 L 5.305,4.875 C 5.319,4.66 5.348,4.588 5.463,4.588 c 0.086,0 0.115,0.086 0.128,0.229 0,0.373 0.044,1.362 0.044,1.664 0,0.214 -0.015,0.301 -0.114,0.301 -0.116,0 -0.46,-0.144 -1.377,-0.144 l -5.678,0 c -0.473,0 -1.018,0.029 -1.434,0.072 -0.358,0.029 -0.501,0.172 -0.616,0.172 -0.086,0 -0.129,-0.086 -0.172,-0.272 -0.029,-0.115 -0.301,-1.42 -0.301,-1.649 0,-0.158 0.028,-0.23 0.129,-0.23 0.086,0 0.129,0.058 0.158,0.172 0.028,0.115 0.1,0.287 0.244,0.502 0.214,0.316 0.558,0.387 1.39,0.416 L 0,5.878 0,0 z"
             id="path80"
             style="fill:#ffffff;fill-opacity:1;fill-rule:nonzero;stroke:none"
             inkscape:connector-curvature="0" /></g><g
           transform="translate(96.809,23.9324)"
           id="g82"><path
             d="m 0,0 c -0.042,0 -0.086,0.029 -0.086,0.1 l 0,0.301 c 0,2.18 0,2.581 0.029,3.04 0.028,0.502 0.143,0.746 0.53,0.817 0.172,0.028 0.302,0.043 0.416,0.043 0.172,0 0.258,0.029 0.258,0.129 0,0.101 -0.101,0.129 -0.301,0.129 -0.559,0 -1.463,-0.043 -1.807,-0.043 -0.386,0 -1.29,0.043 -2.064,0.043 -0.201,0 -0.301,-0.028 -0.301,-0.129 0,-0.1 0.086,-0.129 0.244,-0.129 0.201,0 0.444,-0.015 0.559,-0.043 0.473,-0.1 0.588,-0.33 0.616,-0.817 0.029,-0.459 0.029,-0.86 0.029,-3.04 l 0,-2.523 c 0,-1.319 0,-2.452 -0.072,-3.053 -0.057,-0.416 -0.129,-0.732 -0.415,-0.789 -0.13,-0.029 -0.302,-0.058 -0.516,-0.058 -0.172,0 -0.23,-0.043 -0.23,-0.114 0,-0.1 0.101,-0.144 0.287,-0.144 0.573,0 1.477,0.044 1.806,0.044 0.401,0 1.305,-0.044 2.237,-0.044 0.172,0 0.286,0.044 0.286,0.144 0,0.071 -0.071,0.114 -0.229,0.114 -0.215,0 -0.531,0.029 -0.731,0.058 -0.43,0.057 -0.516,0.373 -0.559,0.774 -0.072,0.616 -0.072,1.749 -0.072,3.068 l 0,1.262 c 0,0.071 0.044,0.086 0.086,0.086 l 5.477,0 c 0.043,0 0.086,-0.029 0.086,-0.086 l 0,-1.262 c 0,-1.319 0,-2.452 -0.072,-3.053 C 5.434,-5.591 5.362,-5.907 5.076,-5.964 4.946,-5.993 4.774,-6.022 4.56,-6.022 c -0.172,0 -0.23,-0.043 -0.23,-0.114 0,-0.1 0.1,-0.144 0.301,-0.144 0.559,0 1.463,0.044 1.792,0.044 0.401,0 1.305,-0.044 2.236,-0.044 0.172,0 0.287,0.044 0.287,0.144 0,0.071 -0.071,0.114 -0.229,0.114 -0.215,0 -0.531,0.029 -0.731,0.058 -0.43,0.057 -0.516,0.373 -0.559,0.774 -0.072,0.616 -0.072,1.749 -0.072,3.068 l 0,2.523 c 0,2.18 0,2.581 0.029,3.04 0.028,0.502 0.143,0.746 0.53,0.817 0.172,0.028 0.301,0.043 0.416,0.043 0.172,0 0.258,0.029 0.258,0.129 0,0.101 -0.101,0.129 -0.301,0.129 -0.559,0 -1.463,-0.043 -1.807,-0.043 -0.386,0 -1.29,0.043 -2.064,0.043 -0.2,0 -0.301,-0.028 -0.301,-0.129 0,-0.1 0.086,-0.129 0.243,-0.129 0.202,0 0.445,-0.015 0.56,-0.043 0.473,-0.1 0.588,-0.33 0.616,-0.817 0.029,-0.459 0.029,-0.86 0.029,-3.04 l 0,-0.301 C 5.563,0.029 5.52,0 5.477,0 L 0,0 z"
             id="path84"
             style="fill:#ffffff;fill-opacity:1;fill-rule:nonzero;stroke:none"
             inkscape:connector-curvature="0" /></g><g
           transform="translate(41.6054,0.9942)"
           id="g86"><path
             d="m 0,0 c -0.03,-0.207 -0.079,-0.444 -0.249,-0.481 -0.092,-0.018 -0.134,-0.018 -0.183,-0.018 -0.061,0 -0.097,-0.012 -0.097,-0.042 0,-0.055 0.048,-0.067 0.109,-0.067 0.195,0 0.487,0.018 0.603,0.018 0.109,0 0.383,-0.018 0.638,-0.018 0.091,0 0.146,0.012 0.146,0.067 0,0.03 -0.043,0.042 -0.091,0.042 -0.061,0 -0.146,0.006 -0.256,0.031 -0.103,0.024 -0.182,0.079 -0.182,0.194 0,0.098 0.006,0.176 0.018,0.286 l 0.316,2.421 0.025,0 C 1.01,1.977 1.375,1.211 1.429,1.083 c 0.073,-0.17 0.554,-1.102 0.7,-1.381 0.097,-0.183 0.158,-0.304 0.213,-0.304 0.054,0 0.085,0.055 0.225,0.341 l 1.326,2.761 0.024,0 0.365,-2.676 c 0.024,-0.171 0.006,-0.25 -0.03,-0.262 -0.043,-0.018 -0.067,-0.036 -0.067,-0.067 0,-0.036 0.036,-0.054 0.176,-0.067 0.243,-0.018 1.082,-0.036 1.235,-0.036 0.085,0 0.158,0.018 0.158,0.067 0,0.036 -0.043,0.042 -0.098,0.042 -0.079,0 -0.2,0.006 -0.377,0.061 -0.182,0.055 -0.243,0.231 -0.298,0.614 L 4.428,3.935 C 4.41,4.063 4.373,4.124 4.318,4.124 4.264,4.124 4.227,4.075 4.185,3.978 L 2.53,0.505 0.87,3.935 C 0.791,4.094 0.754,4.124 0.706,4.124 0.657,4.124 0.62,4.069 0.602,3.966 L 0,0 z"
             id="path88"
             style="fill:#002e6e;fill-opacity:1;fill-rule:nonzero;stroke:none"
             inkscape:connector-curvature="0" /></g><g
           transform="translate(50.2301,1.9735)"
           id="g90"><path
             d="m 0,0 c 0.03,0 0.048,-0.012 0.061,-0.042 l 0.486,-1.29 C 0.578,-1.405 0.535,-1.46 0.492,-1.472 0.432,-1.478 0.408,-1.49 0.408,-1.527 c 0,-0.043 0.073,-0.043 0.182,-0.049 0.487,-0.011 0.931,-0.011 1.15,-0.011 0.225,0 0.279,0.011 0.279,0.06 0,0.043 -0.03,0.049 -0.079,0.049 -0.073,0 -0.164,0.006 -0.255,0.024 -0.128,0.031 -0.304,0.116 -0.535,0.664 -0.39,0.924 -1.363,3.405 -1.509,3.74 -0.061,0.14 -0.097,0.194 -0.152,0.194 -0.061,0 -0.097,-0.066 -0.17,-0.242 l -1.527,-3.821 c -0.122,-0.303 -0.237,-0.51 -0.517,-0.547 -0.049,-0.006 -0.134,-0.012 -0.188,-0.012 -0.049,0 -0.074,-0.012 -0.074,-0.049 0,-0.049 0.037,-0.06 0.116,-0.06 0.316,0 0.651,0.017 0.718,0.017 0.188,0 0.45,-0.017 0.644,-0.017 0.067,0 0.104,0.011 0.104,0.06 0,0.037 -0.018,0.049 -0.091,0.049 l -0.091,0 c -0.189,0 -0.244,0.079 -0.244,0.189 0,0.073 0.03,0.218 0.091,0.37 l 0.329,0.87 C -1.399,-0.012 -1.387,0 -1.356,0 L 0,0 z m -1.235,0.304 c -0.024,0 -0.03,0.019 -0.024,0.043 L -0.7,1.843 c 0.007,0.024 0.019,0.055 0.037,0.055 0.018,0 0.024,-0.031 0.03,-0.055 L -0.085,0.34 c 0.006,-0.017 0,-0.036 -0.031,-0.036 l -1.119,0 z"
             id="path92"
             style="fill:#002e6e;fill-opacity:1;fill-rule:nonzero;stroke:none"
             inkscape:connector-curvature="0" /></g><g
           transform="translate(53.4069,3.7678)"
           id="g94"><path
             d="m 0,0 0.019,0 c 0.109,-0.115 0.783,-0.876 1.446,-1.533 0.632,-0.626 1.41,-1.423 1.792,-1.788 0.067,-0.067 0.141,-0.134 0.208,-0.134 0.054,0 0.079,0.055 0.079,0.189 L 3.61,0.572 c 0.006,0.341 0.055,0.468 0.225,0.517 0.073,0.018 0.122,0.018 0.183,0.018 0.073,0 0.11,0.018 0.11,0.055 0,0.048 -0.062,0.054 -0.141,0.054 -0.297,0 -0.529,-0.018 -0.596,-0.018 -0.127,0 -0.419,0.018 -0.735,0.018 -0.091,0 -0.158,-0.006 -0.158,-0.054 0,-0.037 0.024,-0.055 0.097,-0.055 0.085,0 0.231,0 0.322,-0.037 C 3.063,1.01 3.118,0.894 3.124,0.523 l 0.061,-2.731 -0.031,0 C 3.051,-2.111 2.231,-1.235 1.817,-0.821 0.93,0.061 0.006,1.052 -0.067,1.131 -0.171,1.241 -0.226,1.32 -0.294,1.32 -0.355,1.32 -0.373,1.234 -0.373,1.113 l -0.055,-3.601 c -0.006,-0.529 -0.03,-0.705 -0.189,-0.754 -0.085,-0.024 -0.194,-0.03 -0.273,-0.03 -0.061,0 -0.098,-0.013 -0.098,-0.049 0,-0.054 0.055,-0.061 0.134,-0.061 0.316,0 0.603,0.018 0.658,0.018 0.116,0 0.36,-0.018 0.755,-0.018 0.085,0 0.14,0.012 0.14,0.061 -0.002,0.036 -0.039,0.049 -0.105,0.049 -0.098,0 -0.213,0.006 -0.317,0.042 -0.121,0.043 -0.2,0.201 -0.213,0.675 L 0,0 z"
             id="path96"
             style="fill:#002e6e;fill-opacity:1;fill-rule:nonzero;stroke:none"
             inkscape:connector-curvature="0" /></g><g
           transform="translate(60.7315,1.9735)"
           id="g98"><path
             d="m 0,0 c 0.03,0 0.049,-0.012 0.061,-0.042 l 0.486,-1.29 C 0.578,-1.405 0.535,-1.46 0.492,-1.472 0.432,-1.478 0.408,-1.49 0.408,-1.527 c 0,-0.043 0.072,-0.043 0.182,-0.049 0.486,-0.011 0.931,-0.011 1.15,-0.011 0.225,0 0.279,0.011 0.279,0.06 0,0.043 -0.03,0.049 -0.079,0.049 -0.073,0 -0.164,0.006 -0.255,0.024 -0.128,0.031 -0.304,0.116 -0.535,0.664 -0.39,0.924 -1.363,3.405 -1.509,3.74 -0.061,0.14 -0.097,0.194 -0.152,0.194 -0.061,0 -0.098,-0.066 -0.17,-0.242 l -1.527,-3.821 c -0.121,-0.303 -0.237,-0.51 -0.517,-0.547 -0.049,-0.006 -0.134,-0.012 -0.188,-0.012 -0.049,0 -0.074,-0.012 -0.074,-0.049 0,-0.049 0.037,-0.06 0.116,-0.06 0.317,0 0.651,0.017 0.718,0.017 0.188,0 0.45,-0.017 0.644,-0.017 0.068,0 0.104,0.011 0.104,0.06 0,0.037 -0.018,0.049 -0.092,0.049 l -0.09,0 c -0.189,0 -0.244,0.079 -0.244,0.189 0,0.073 0.03,0.218 0.091,0.37 l 0.329,0.87 C -1.399,-0.012 -1.387,0 -1.356,0 L 0,0 z m -1.235,0.304 c -0.024,0 -0.03,0.019 -0.024,0.043 L -0.7,1.843 c 0.007,0.024 0.019,0.055 0.037,0.055 0.018,0 0.024,-0.031 0.03,-0.055 L -0.085,0.34 c 0.006,-0.017 0,-0.036 -0.031,-0.036 l -1.119,0 z"
             id="path100"
             style="fill:#002e6e;fill-opacity:1;fill-rule:nonzero;stroke:none"
             inkscape:connector-curvature="0" /></g><g
           transform="translate(64.0459,2.1497)"
           id="g102"><path
             d="m 0,0 c 0,-0.559 0,-1.04 -0.03,-1.295 -0.019,-0.177 -0.055,-0.311 -0.177,-0.335 -0.055,-0.012 -0.128,-0.024 -0.219,-0.024 -0.073,0 -0.097,-0.019 -0.097,-0.049 0,-0.043 0.042,-0.061 0.122,-0.061 0.243,0 0.626,0.018 0.765,0.018 0.171,0 0.554,-0.018 0.955,-0.018 0.067,0 0.116,0.018 0.116,0.061 0,0.03 -0.03,0.049 -0.097,0.049 -0.091,0 -0.225,0.012 -0.311,0.024 C 0.846,-1.606 0.809,-1.472 0.791,-1.302 0.76,-1.04 0.76,-0.559 0.76,0 l 0,2.494 0.767,-0.018 C 2.068,2.463 2.232,2.293 2.244,2.135 L 2.25,2.068 C 2.256,1.977 2.269,1.946 2.317,1.946 c 0.037,0 0.049,0.037 0.055,0.098 0,0.158 0.018,0.577 0.018,0.705 0,0.092 -0.006,0.128 -0.049,0.128 -0.048,0 -0.194,-0.061 -0.584,-0.061 l -2.408,0 c -0.2,0 -0.432,0.012 -0.608,0.031 -0.152,0.012 -0.213,0.072 -0.262,0.072 -0.036,0 -0.055,-0.036 -0.073,-0.115 -0.012,-0.049 -0.128,-0.602 -0.128,-0.699 0,-0.067 0.013,-0.098 0.055,-0.098 0.036,0 0.055,0.025 0.067,0.073 0.012,0.049 0.043,0.122 0.103,0.213 0.092,0.134 0.238,0.164 0.591,0.177 L 0,2.494 0,0 z"
             id="path104"
             style="fill:#002e6e;fill-opacity:1;fill-rule:nonzero;stroke:none"
             inkscape:connector-curvature="0" /></g><g
           transform="translate(67.5363,2.3323)"
           id="g106"><path
             d="m 0,0 c 0,-0.882 0.231,-1.332 0.542,-1.612 0.443,-0.402 1.027,-0.42 1.349,-0.42 0.396,0 0.834,0.067 1.266,0.438 0.51,0.438 0.577,1.156 0.577,1.831 l 0,0.651 c 0,0.925 0,1.095 0.013,1.29 0.012,0.212 0.061,0.316 0.225,0.346 0.072,0.012 0.109,0.018 0.176,0.018 0.073,0 0.11,0.013 0.11,0.055 0,0.043 -0.043,0.055 -0.128,0.055 -0.237,0 -0.621,-0.018 -0.693,-0.018 -0.007,0 -0.39,0.018 -0.7,0.018 -0.085,0 -0.128,-0.012 -0.128,-0.055 0,-0.042 0.037,-0.055 0.103,-0.055 0.067,0 0.171,-0.006 0.22,-0.018 C 3.133,2.482 3.181,2.384 3.193,2.178 3.205,1.983 3.205,1.813 3.205,0.888 l 0,-0.76 c 0,-0.627 -0.018,-1.174 -0.352,-1.509 -0.244,-0.243 -0.572,-0.328 -0.839,-0.328 -0.207,0 -0.487,0.024 -0.761,0.249 -0.298,0.244 -0.475,0.614 -0.475,1.496 l 0,0.852 c 0,0.925 0,1.095 0.012,1.29 0.012,0.212 0.061,0.316 0.225,0.346 0.074,0.012 0.11,0.018 0.177,0.018 0.061,0 0.097,0.013 0.097,0.055 0,0.043 -0.042,0.055 -0.133,0.055 -0.22,0 -0.602,-0.018 -0.748,-0.018 -0.183,0 -0.566,0.018 -0.888,0.018 -0.092,0 -0.134,-0.012 -0.134,-0.055 0,-0.042 0.036,-0.055 0.103,-0.055 0.085,0 0.189,-0.006 0.237,-0.018 0.2,-0.042 0.249,-0.14 0.262,-0.346 C 0,1.983 0,1.813 0,0.888 L 0,0 z"
             id="path108"
             style="fill:#002e6e;fill-opacity:1;fill-rule:nonzero;stroke:none"
             inkscape:connector-curvature="0" /></g><g
           transform="translate(76.0848,3.0501)"
           id="g110"><path
             d="m 0,0 c -0.018,0 -0.037,0.012 -0.037,0.042 l 0,0.128 c 0,0.925 0,1.095 0.012,1.29 0.013,0.213 0.062,0.316 0.226,0.346 0.073,0.013 0.128,0.019 0.176,0.019 0.073,0 0.11,0.012 0.11,0.054 0,0.043 -0.043,0.055 -0.128,0.055 -0.238,0 -0.621,-0.018 -0.767,-0.018 -0.164,0 -0.547,0.018 -0.876,0.018 -0.085,0 -0.127,-0.012 -0.127,-0.055 0,-0.042 0.037,-0.054 0.104,-0.054 0.085,0 0.188,-0.006 0.236,-0.019 0.202,-0.042 0.25,-0.14 0.262,-0.346 0.012,-0.195 0.012,-0.365 0.012,-1.29 l 0,-1.07 c 0,-0.56 0,-1.04 -0.03,-1.296 -0.024,-0.176 -0.055,-0.31 -0.176,-0.334 -0.056,-0.012 -0.128,-0.025 -0.219,-0.025 -0.073,0 -0.098,-0.018 -0.098,-0.048 0,-0.043 0.043,-0.061 0.122,-0.061 0.243,0 0.626,0.018 0.766,0.018 0.17,0 0.553,-0.018 0.949,-0.018 0.073,0 0.122,0.018 0.122,0.061 0,0.03 -0.031,0.048 -0.097,0.048 -0.092,0 -0.226,0.013 -0.31,0.025 -0.183,0.024 -0.22,0.158 -0.238,0.328 -0.031,0.262 -0.031,0.742 -0.031,1.302 l 0,0.535 c 0,0.031 0.019,0.036 0.037,0.036 l 2.323,0 c 0.018,0 0.037,-0.011 0.037,-0.036 l 0,-0.535 c 0,-0.56 0,-1.04 -0.031,-1.296 C 2.305,-2.372 2.275,-2.506 2.153,-2.53 2.098,-2.542 2.026,-2.555 1.934,-2.555 c -0.073,0 -0.097,-0.018 -0.097,-0.048 0,-0.043 0.043,-0.061 0.128,-0.061 0.237,0 0.62,0.018 0.76,0.018 0.17,0 0.553,-0.018 0.949,-0.018 0.073,0 0.121,0.018 0.121,0.061 0,0.03 -0.03,0.048 -0.096,0.048 -0.092,0 -0.226,0.013 -0.311,0.025 C 3.206,-2.506 3.169,-2.372 3.15,-2.202 3.12,-1.94 3.12,-1.46 3.12,-0.9 l 0,1.07 c 0,0.925 0,1.095 0.012,1.29 0.013,0.213 0.062,0.316 0.225,0.346 0.073,0.013 0.129,0.019 0.177,0.019 0.073,0 0.109,0.012 0.109,0.054 0,0.043 -0.043,0.055 -0.127,0.055 -0.238,0 -0.621,-0.018 -0.767,-0.018 -0.164,0 -0.547,0.018 -0.876,0.018 -0.084,0 -0.127,-0.012 -0.127,-0.055 0,-0.042 0.036,-0.054 0.103,-0.054 0.085,0 0.189,-0.006 0.237,-0.019 C 2.287,1.764 2.336,1.666 2.348,1.46 2.36,1.265 2.36,1.095 2.36,0.17 l 0,-0.128 C 2.36,0.012 2.341,0 2.323,0 L 0,0 z"
             id="path112"
             style="fill:#002e6e;fill-opacity:1;fill-rule:nonzero;stroke:none"
             inkscape:connector-curvature="0" /></g><g
           transform="translate(83.0421,1.9735)"
           id="g114"><path
             d="m 0,0 c 0.03,0 0.048,-0.012 0.06,-0.042 l 0.487,-1.29 C 0.577,-1.405 0.535,-1.46 0.493,-1.472 0.431,-1.478 0.407,-1.49 0.407,-1.527 c 0,-0.043 0.073,-0.043 0.183,-0.049 0.486,-0.011 0.93,-0.011 1.15,-0.011 0.225,0 0.279,0.011 0.279,0.06 0,0.043 -0.03,0.049 -0.079,0.049 -0.073,0 -0.164,0.006 -0.255,0.024 -0.128,0.031 -0.304,0.116 -0.536,0.664 -0.389,0.924 -1.362,3.405 -1.508,3.74 -0.061,0.14 -0.098,0.194 -0.152,0.194 -0.061,0 -0.097,-0.066 -0.171,-0.242 l -1.527,-3.821 c -0.121,-0.303 -0.236,-0.51 -0.516,-0.547 -0.049,-0.006 -0.134,-0.012 -0.189,-0.012 -0.048,0 -0.072,-0.012 -0.072,-0.049 0,-0.049 0.036,-0.06 0.115,-0.06 0.316,0 0.651,0.017 0.718,0.017 0.188,0 0.45,-0.017 0.644,-0.017 0.067,0 0.104,0.011 0.104,0.06 0,0.037 -0.018,0.049 -0.092,0.049 l -0.091,0 c -0.188,0 -0.243,0.079 -0.243,0.189 0,0.073 0.03,0.218 0.091,0.37 l 0.329,0.87 C -1.399,-0.012 -1.387,0 -1.356,0 L 0,0 z m -1.235,0.304 c -0.024,0 -0.03,0.019 -0.024,0.043 L -0.7,1.843 c 0.007,0.024 0.018,0.055 0.037,0.055 0.018,0 0.024,-0.031 0.03,-0.055 L -0.086,0.34 c 0.007,-0.017 0,-0.036 -0.03,-0.036 l -1.119,0 z"
             id="path116"
             style="fill:#002e6e;fill-opacity:1;fill-rule:nonzero;stroke:none"
             inkscape:connector-curvature="0" /></g><g
           transform="translate(85.6509,2.3323)"
           id="g118"><path
             d="m 0,0 c 0,-0.882 0.231,-1.332 0.541,-1.612 0.444,-0.402 1.028,-0.42 1.35,-0.42 0.396,0 0.834,0.067 1.265,0.438 0.511,0.438 0.578,1.156 0.578,1.831 l 0,0.651 c 0,0.925 0,1.095 0.013,1.29 0.012,0.212 0.06,0.316 0.225,0.346 0.072,0.012 0.109,0.018 0.176,0.018 0.073,0 0.109,0.013 0.109,0.055 0,0.043 -0.042,0.055 -0.127,0.055 -0.237,0 -0.621,-0.018 -0.694,-0.018 -0.006,0 -0.389,0.018 -0.699,0.018 -0.086,0 -0.128,-0.012 -0.128,-0.055 0,-0.042 0.037,-0.055 0.104,-0.055 0.066,0 0.17,-0.006 0.218,-0.018 C 3.132,2.482 3.181,2.384 3.193,2.178 3.205,1.983 3.205,1.813 3.205,0.888 l 0,-0.76 c 0,-0.627 -0.018,-1.174 -0.353,-1.509 -0.243,-0.243 -0.572,-0.328 -0.839,-0.328 -0.206,0 -0.486,0.024 -0.76,0.249 -0.299,0.244 -0.475,0.614 -0.475,1.496 l 0,0.852 c 0,0.925 0,1.095 0.012,1.29 0.012,0.212 0.061,0.316 0.225,0.346 0.074,0.012 0.11,0.018 0.177,0.018 0.061,0 0.098,0.013 0.098,0.055 0,0.043 -0.043,0.055 -0.134,0.055 -0.22,0 -0.603,-0.018 -0.749,-0.018 -0.182,0 -0.565,0.018 -0.888,0.018 -0.091,0 -0.134,-0.012 -0.134,-0.055 0,-0.042 0.037,-0.055 0.104,-0.055 0.085,0 0.188,-0.006 0.237,-0.018 0.201,-0.042 0.249,-0.14 0.262,-0.346 C 0,1.983 0,1.813 0,0.888 L 0,0 z"
             id="path120"
             style="fill:#002e6e;fill-opacity:1;fill-rule:nonzero;stroke:none"
             inkscape:connector-curvature="0" /></g><g
           transform="translate(93.1246,0.3008)"
           id="g122"><path
             d="m 0,0 c 1.545,0 2.518,1.101 2.518,2.494 0,1.392 -0.942,2.275 -2.457,2.275 -1.825,0 -2.513,-1.345 -2.513,-2.385 C -2.452,1.308 -1.746,0 0,0 m 0.255,0.304 c -1.168,0 -1.867,1.004 -1.867,2.269 0,1.514 0.797,1.903 1.496,1.903 0.998,0 1.783,-0.845 1.783,-2.207 0,-1.758 -0.986,-1.965 -1.412,-1.965"
             id="path124"
             style="fill:#002e6e;fill-opacity:1;fill-rule:nonzero;stroke:none"
             inkscape:connector-curvature="0" /></g><g
           transform="translate(96.7904,2.1497)"
           id="g126"><path
             d="m 0,0 c 0,-0.559 0,-1.04 -0.031,-1.295 -0.024,-0.177 -0.055,-0.311 -0.176,-0.335 -0.055,-0.012 -0.128,-0.024 -0.219,-0.024 -0.073,0 -0.098,-0.019 -0.098,-0.049 0,-0.043 0.044,-0.061 0.123,-0.061 0.243,0 0.626,0.018 0.741,0.018 0.092,0 0.542,-0.018 0.895,-0.018 0.079,0 0.121,0.018 0.121,0.061 0,0.03 -0.024,0.049 -0.073,0.049 -0.073,0 -0.207,0.012 -0.298,0.024 -0.183,0.024 -0.219,0.158 -0.237,0.335 -0.03,0.255 -0.03,0.736 -0.03,1.301 l 0,0.086 c 0,0.036 0.018,0.048 0.048,0.048 L 1.295,0.128 c 0.043,0 0.079,-0.006 0.11,-0.043 0.079,-0.091 0.359,-0.505 0.602,-0.839 0.341,-0.468 0.572,-0.754 0.834,-0.894 0.158,-0.085 0.309,-0.116 0.65,-0.116 l 0.578,0 c 0.073,0 0.116,0.012 0.116,0.061 0,0.03 -0.025,0.049 -0.074,0.049 -0.048,0 -0.103,0.006 -0.17,0.018 C 3.85,-1.618 3.6,-1.575 3.26,-1.222 2.901,-0.845 2.482,-0.304 1.94,0.377 2.554,0.876 2.743,1.29 2.743,1.74 2.743,2.147 2.499,2.457 2.329,2.573 2.001,2.798 1.594,2.834 1.21,2.834 1.022,2.834 0.559,2.816 0.352,2.816 c -0.127,0 -0.51,0.018 -0.832,0.018 -0.092,0 -0.134,-0.011 -0.134,-0.054 0,-0.043 0.036,-0.055 0.103,-0.055 0.085,0 0.188,-0.006 0.237,-0.018 C -0.073,2.664 -0.025,2.567 -0.012,2.36 0,2.166 0,1.995 0,1.071 L 0,0 z m 0.718,2.439 c 0,0.049 0.012,0.073 0.054,0.085 0.061,0.018 0.171,0.025 0.322,0.025 0.359,0 0.931,-0.25 0.931,-1.113 C 2.025,0.937 1.849,0.657 1.666,0.523 1.557,0.444 1.478,0.42 1.235,0.42 1.082,0.42 0.9,0.438 0.772,0.481 0.73,0.499 0.718,0.523 0.718,0.59 l 0,1.849 z"
             id="path128"
             style="fill:#002e6e;fill-opacity:1;fill-rule:nonzero;stroke:none"
             inkscape:connector-curvature="0" /></g><g
           transform="translate(103.5888,1.9735)"
           id="g130"><path
             d="m 0,0 c 0.031,0 0.049,-0.012 0.061,-0.042 l 0.487,-1.29 C 0.578,-1.405 0.536,-1.46 0.493,-1.472 0.432,-1.478 0.408,-1.49 0.408,-1.527 c 0,-0.043 0.073,-0.043 0.182,-0.049 0.487,-0.011 0.931,-0.011 1.15,-0.011 0.225,0 0.279,0.011 0.279,0.06 0,0.043 -0.03,0.049 -0.078,0.049 -0.073,0 -0.165,0.006 -0.256,0.024 -0.127,0.031 -0.304,0.116 -0.535,0.664 -0.389,0.924 -1.363,3.405 -1.509,3.74 -0.06,0.14 -0.097,0.194 -0.152,0.194 -0.061,0 -0.096,-0.066 -0.17,-0.242 l -1.527,-3.821 c -0.121,-0.303 -0.237,-0.51 -0.517,-0.547 -0.049,-0.006 -0.133,-0.012 -0.188,-0.012 -0.049,0 -0.073,-0.012 -0.073,-0.049 0,-0.049 0.036,-0.06 0.115,-0.06 0.317,0 0.651,0.017 0.718,0.017 0.189,0 0.45,-0.017 0.645,-0.017 0.067,0 0.103,0.011 0.103,0.06 0,0.037 -0.018,0.049 -0.091,0.049 l -0.091,0 c -0.188,0 -0.243,0.079 -0.243,0.189 0,0.073 0.03,0.218 0.09,0.37 l 0.329,0.87 C -1.399,-0.012 -1.387,0 -1.356,0 L 0,0 z m -1.235,0.304 c -0.023,0 -0.03,0.019 -0.023,0.043 l 0.559,1.496 c 0.006,0.024 0.018,0.055 0.036,0.055 0.019,0 0.024,-0.031 0.031,-0.055 L -0.085,0.34 c 0.007,-0.017 0,-0.036 -0.03,-0.036 l -1.12,0 z"
             id="path132"
             style="fill:#002e6e;fill-opacity:1;fill-rule:nonzero;stroke:none"
             inkscape:connector-curvature="0" /></g><g
           transform="translate(70.4795,6.377)"
           id="g134"><path
             d="M 0,0 C 0.064,0 0.091,0.012 0.1,0.037 L 0.173,0.256 C 0.192,0.298 0.164,0.316 0.1,0.316 l -2.189,0 c -0.064,0 -0.092,-0.012 -0.101,-0.055 L -2.263,0.042 C -2.272,0.012 -2.253,0 -2.19,0 L 0,0 z"
             id="path136"
             style="fill:#002e6e;fill-opacity:1;fill-rule:nonzero;stroke:none"
             inkscape:connector-curvature="0" /></g><g
           transform="translate(0,15.6464)"
           id="g138"><path
             d="m 0,0 2.767,0.003 c 4.461,9.743 11.575,13.029 16.57,13.003 5.079,-0.028 6.934,-3.021 6.952,-5.592 0.028,-3.885 -3.692,-5.461 -3.692,-5.461 0,0 0.597,0.218 0.571,1.736 C 23.139,5.324 22,5.972 20.101,5.973 18.333,5.974 16.029,4.567 16.056,2.47 c 0.024,-1.983 1.3,-3.449 4.125,-3.449 5.321,0.001 12.001,3.719 11.983,9.268 -0.016,5.019 -4.327,8.403 -9.544,8.638 C 12.482,17.384 6.305,9.583 6.305,9.583 c 7.051,13.585 23.949,21.77 23.949,21.77 L 18.48,31.354 C 18.48,31.354 4.105,17.697 0,0"
             id="path140"
             style="fill:#f7941e;fill-opacity:1;fill-rule:nonzero;stroke:none"
             inkscape:connector-curvature="0" /></g></g></g></g></svg>