<svg xmlns="http://www.w3.org/2000/svg" width="157" height="16" viewBox="0 0 157 16"><path d="M68.852968 11.442099H67.3382V5.8175626C67.3382 5.0681127 67.27229 4.803242 67.070888 4.53593 66.906107 4.321104 66.605839 4.2027055 66.222569 4.2027055c-0.598095 0-1.497679 0.4662701-2.061597 1.065586V11.44332h-0.7702c-0.4858 0-0.745789-0.36374-0.745789-0.934982V5.2353353c0-0.9972322-0.08178-1.3805014-0.316136-1.9810379L63.777703 2.856381c0.198958 0.3979164 0.281959 0.7653178 0.281959 1.2804119 0.482138-0.3991369 0.732361-0.6151835 1.082674-0.8153623 0.482138-0.2819592 1.030189-0.4137843 1.547724-0.4137843 0.882496 0 1.663681 0.463829 1.962729 1.1803225 0.133046 0.3002683 0.200179 0.666449 0.200179 1.0497182v6.304412M75.523561 9.3316774V4.9692439C75.091467 4.452929 74.542196 4.1868378 73.75979 4.1868378c-0.631051 0-1.132719 0.3149154-1.448855 0.8483187-0.314916 0.5480505-0.432093 1.2157201-0.432093 2.2959534 0 1.6148571 0.200178 2.0640388 0.64814 2.5315296 0.2844 0.3002685 0.666449 0.4320935 1.231587 0.4320935 0.883717 0 1.481812-0.467491 1.764992-0.9630556zm1.780859 2.1104216h-1.463503c-0.08544-0.249002-0.10131-0.36618-0.151354-0.783627-0.581007 0.617625-1.264545 0.915452-2.14582 0.915452-2.129951 0-3.381069-1.5977686-3.381069-4.2257258 0-1.7967269 0.616405-3.178449 1.749124-3.9108105 0.517535-0.3332245 1.03263-0.4833586 1.631945-0.4833586 0.798274 0 1.462282 0.2831798 2.029862 0.9667172 0-0.2331351-0.03296-1.5062235-0.03296-2.0725831V0.12223125l1.531856 0.2502236V8.6469193c0 1.3475453 0.04882 2.2800857 0.231915 2.7951797zM59.511697 7.3494188c-0.231915-0.017088-0.366181-0.032956-0.499227-0.032956-1.148587 0-1.847992 0.2148261-2.178775 0.5980953-0.317357 0.3661807-0.433314 0.666449-0.433314 1.2144996 0 0.9154523 0.46627 1.4488553 1.314589 1.4488553 0.699405 0 1.365854-0.432093 1.749123-1.0961012l0.0476-2.1323927zm2.164128 3.4091432-0.782406 1.03263c-0.517536-0.197738-0.915452-0.617625-1.115631-1.196191-0.217267 0.264871-0.915452 1.097322-2.364307 1.097322-1.663681 0-2.69509-0.848319-2.69509-2.4460879 0-1.9309932 1.547724-2.9624023 4.245255-2.9624023 0.198958 0 0.366181 0 0.581007 0.015868V5.7516502c0-0.9813644-0.131825-1.6478134-1.29628-1.6478134-0.881275 0-1.880948 0.4320933-2.562045 0.9471874L54.986923 3.9537027c0.815363-0.4662702 1.880949-1.0973217 3.495806-1.0973217 1.212058 0 2.096995 0.4491817 2.413131 1.3316774 0.133046 0.3661807 0.166002 0.6481399 0.166002 1.4635024 0 0.6005364-0.06713 1.8809485-0.06713 3.0966686-0.0012 1.1461458 0.03296 1.6099746 0.681096 2.0103326zm-7.595809 0.665228c-0.316137 0.133046-0.583448 0.183091-0.948409 0.183091-0.598095 0-0.981364-0.183091-1.298721-0.633493-0.250223-0.349093-0.313695-0.633493-0.313695-1.4464142V2.7294383c0-1.1803226-0.05127-1.74668225-0.184311-2.39482215l1.596549-0.3320039c0.151354 0.5504917 0.151354 1.34754525 0.151354 2.38017495v6.7462702c0 0.8837166 0.04882 1.0826746 0.214826 1.2315876 0.10131 0.118399 0.333225 0.169664 0.517536 0.118399l0.264871 0.944746zM48.2553 7.3494188c-0.231914-0.017088-0.36618-0.032956-0.499226-0.032956-1.148587 0-1.846772 0.2148261-2.179996 0.5980953-0.316136 0.3661807-0.432094 0.666449-0.432094 1.2144996 0 0.9154523 0.46505 1.4488553 1.314589 1.4488553 0.699406 0 1.365855-0.432093 1.746683-1.0961012l0.05004-2.132393zm2.162908 3.4091432-0.779965 1.03263c-0.517536-0.197738-0.915452-0.617625-1.118072-1.196191-0.214826 0.264871-0.914231 1.097322-2.361866 1.097322-1.664902 0-2.697531-0.848319-2.697531-2.4460878 0-1.9309932 1.548944-2.9624023 4.245255-2.9624023 0.198958 0 0.367402 0 0.582228 0.015868V5.7516502c0-0.9813644-0.133046-1.6478134-1.298722-1.6478134-0.881275 0-1.879727 0.4320933-2.562044 0.9471874L43.728086 3.9537027c0.815362-0.4662702 1.880948-1.0973217 3.495805-1.0973217 1.2145 0 2.096995 0.4491817 2.414352 1.3316774 0.131825 0.3661807 0.164781 0.6481399 0.164781 1.4635024 0 0.6005364-0.06591 1.8809485-0.06591 3.0966686 0 1.1461458 0.03296 1.6099746 0.681096 2.0103326zM40.963421 6.4657027c0-0.7982741-0.184311-1.4635025-0.517536-1.8809485-0.267312-0.3332246-0.665228-0.5822274-1.198631-0.5822274-1.163235 0-1.746683 0.9471875-1.746683 2.4619553l3.46285 0.00122 0 0zm1.597769 1.1327191h-5.077707v0.2001788c0 0.7140525 0.10131 1.2645442 0.351534 1.6636813 0.432093 0.6652281 1.113189 0.9825851 1.912684 0.9825851 0.782406 0 1.448855-0.266091 2.04695-0.7982741l0.583448 0.9154521c-0.815362 0.715273-1.796727 1.065586-2.879401 1.065586-2.311821 0-3.72772-1.6832112-3.72772-4.4100373 0-1.4488552 0.283179-2.3801749 0.999673-3.2284937 0.665228-0.7824062 1.47937-1.1485869 2.513221-1.1485869 0.931319 0 1.680769 0.3002682 2.261776 0.8983634 0.734803 0.74945 0.999674 1.6807697 1.016762 3.5946745l-0.0012 0.2648707 0 0zM27.032684 3.1053839 24.701333 11.509233H23.220742L22.006243 6.9661496C21.854888 6.3827017 21.488707 5.0034207 21.488707 5.0034207h-0.04882c0 0-0.333224 1.415899-0.449181 1.8638601l-1.248681 4.6419522h-1.463502l-2.281306-8.3379366 1.548944-0.249003 1.065586 4.6761283c0.18187 0.8312304 0.432094 2.0469506 0.432094 2.0469506h0.05127c0 0 0.18187-1.1815433 0.380828-1.8992577l1.265765-4.643172h1.579459l1.165676 4.5089057c0.231914 0.8983635 0.465049 1.9480817 0.465049 2.033524h0.06835c0-0.083001 0.264871-1.4305463 0.380828-1.9822587l1.031409-4.560171 1.60021 0.00244 0 0zM13.930737 6.4657027c0-0.7982741-0.18187-1.4635025-0.515095-1.8809485-0.26487-0.3332245-0.665228-0.5822274-1.198631-0.5822274-1.163235 0-1.746683 0.9471875-1.746683 2.4619553l3.460409 0.00122 0 0zm1.598989 1.1327191h-5.077707v0.2001788c0 0.7140525 0.10131 1.2645442 0.350313 1.6636813 0.432094 0.6652281 1.11319 0.9825851 1.912685 0.9825851 0.782406 0 1.448855-0.266091 2.04695-0.7982741l0.583448 0.9154521c-0.815363 0.715273-1.796727 1.065586-2.879401 1.065586-2.314263 0-3.7277205-1.6832112-3.7277205-4.4100373 0-1.4488552 0.2831798-2.3801749 0.9972323-3.2284937 0.6652282-0.7824062 1.4805912-1.1485869 2.5132202-1.1485869 0.933761 0 1.68077 0.3002682 2.262997 0.8983634 0.732362 0.74945 0.998453 1.6807697 1.016762 3.5946745l0.0012 0.2648707 0 0zM157 3.1285754 156.585 4.2039262h-1.63805v5.0020291c0 1.0289677 0.24778 1.3438837 1.07291 1.3438837 0.28318 0 0.51509-0.05005 0.77752-0.166002l0.18553 0.928879c-0.46505 0.230693-0.96305 0.34543-1.50866 0.34543-0.54561 0-1.14249-0.167222-1.40614-0.415005-0.34787-0.313695-0.6103-0.482138-0.6103-1.6880933V4.2039262h-0.99479V3.1285754h0.99479c0-0.6456988 0.0147-1.4903557 0.0952-2.1201866l1.57336-0.36251905c-0.0671 0.59565415-0.1477 1.63926925-0.1477 2.48270565H157zm-5.61233 8.2952146h-1.50622V5.828548c0-0.7457881-0.0647-1.0106587-0.26243-1.2755296-0.16723-0.214826-0.46505-0.3307832-0.84832-0.3307832-0.59322 0-1.49036 0.4626083-2.05306 1.059483v6.1445138h-1.50622V5.2475412c0-0.9923498-0.0806-1.3731777-0.31491-1.9700523l1.44275-0.3966958c0.19774 0.3966958 0.27952 0.7604353 0.27952 1.2743089 0.48335-0.3979164 0.73358-0.6127424 1.07535-0.8129213 0.48335-0.2819592 1.03141-0.4137841 1.54406-0.4137841 0.88005 0 1.65514 0.4638288 1.9554 1.1754401 0.13061 0.2990477 0.19774 0.6627872 0.19774 1.0436152v6.2775591h-0.004zm-9.09715-4.9495431c0-0.7933917-0.18065-1.4561788-0.51021-1.8711837-0.26731-0.3307833-0.66279-0.5797862-1.19497-0.5797862-1.15469 0-1.73814 0.9435258-1.73814 2.4509699h3.44332zm1.59289 1.1266161h-5.04964v0.1977376c0 0.7128319 0.0952 1.2584412 0.34299 1.6575783 0.4321 0.6615661 1.11075 0.9752611 1.90536 0.9752611 0.77997 0 1.44275-0.264871 2.03841-0.7921709l0.58223 0.9105699c-0.81537 0.712832-1.79063 1.059483-2.86842 1.059483-2.30084 0-3.70941-1.6722258-3.70941-4.3892871 0-1.440311 0.28318-2.3679689 0.99601-3.2126258 0.66035-0.7787444 1.47083-1.1437046 2.49613-1.1437046 0.9301 0 1.67345 0.297827 2.25568 0.8934811 0.72748 0.7445675 0.99113 1.6722254 1.01066 3.577586v0.2660913zm-7.93148 3.822927h-1.50622V5.4794558c0-0.9423051-0.29783-1.2755296-0.99235-1.2755296-0.76044 0-1.30849 0.4980058-1.93832 1.1266161v6.0944687h-1.49158V5.5136327c0-0.9276579-0.26487-1.2730884-1.02774-1.2730884-0.56514 0-1.19009 0.2807385-1.90292 0.9606142v6.2262935h-1.50867V5.3317629c0-1.1754402-0.0671-1.4903557-0.29782-2.0701419l1.42566-0.3490923c0.16478 0.2819592 0.27952 0.6957435 0.27952 1.1595724 0.71283-0.7457881 1.55504-1.1754402 2.33623-1.1754402 0.77752 0 1.55505 0.4137842 1.96761 1.3072653 0.83123-0.8776132 1.69176-1.3072653 2.53397-1.3072653 1.29384 0 2.12141 0.8117007 2.12141 2.3362332V11.42379l0.001 0zm-11.92285 0h-1.50622V5.828548c0-0.7457881-0.0696-1.0106587-0.26731-1.2755296-0.16478-0.214826-0.46261-0.3307832-0.84344-0.3307832-0.59565 0-1.49035 0.4626083-2.05305 1.059483v6.1445138h-1.50622V5.2475412c0-0.9923498-0.083-1.3731777-0.31736-1.9700523l1.44275-0.3966958c0.19774 0.3966958 0.28074 0.7604353 0.28074 1.2743089 0.48214-0.3979164 0.72992-0.6127424 1.07535-0.8129213 0.48214-0.2819592 1.02775-0.4137841 1.5404-0.4137841 0.87761 0 1.65636 0.4638288 1.95663 1.1754401 0.12938 0.2990477 0.19896 0.6627872 0.19896 1.0436152V11.42379l-0.001 0zm-7.27357-8.4770844-0.53096 1.5233118c-0.14769-0.050045-0.26243-0.08056-0.42965-0.08056-0.92766 0-1.72349 0.7763032-1.72349 1.6880934v5.3486802h-1.52087V5.3317629c0-1.0094384-0.11718-1.5550476-0.31736-2.0701419l1.47571-0.380828c0.14769 0.3136949 0.28074 0.8605248 0.28074 1.2743091v0.1489135c0.66279-0.9618348 1.37318-1.440311 2.25323-1.440311 0.19774 0.00122 0.38205 0.032956 0.51265 0.083001zm-7.12587 3.5275413c0-0.7933917-0.18065-1.4561788-0.51266-1.8711837-0.26853-0.3307833-0.66278-0.5797862-1.19497-0.5797862-1.15469 0-1.73569 0.9435258-1.73569 2.4509699h3.44332zm1.59044 1.1266161h-5.05207v0.1977376c0 0.7128319 0.10009 1.2584412 0.35031 1.6575783 0.42965 0.6615661 1.10465 0.9752611 1.90292 0.9752611 0.77997 0 1.44031-0.264871 2.03841-0.7921709l0.57734 0.9105699c-0.81048 0.712832-1.78818 1.059483-2.86353 1.059483-2.30328 0-3.70941-1.6722258-3.70941-4.3892871 0-1.440311 0.28074-2.3679689 0.99357-3.2126258 0.66034-0.7787444 1.47326-1.1437046 2.49857-1.1437046 0.92766 0 1.67345 0.297827 2.25323 0.8934811 0.72992 0.7445675 0.99357 1.6722254 1.01066 3.577586v0.2660913zm-6.93424-4.4722876-3.02832 8.3623476h-1.424439l-2.964844-8.3293914 1.570916-0.2490029 1.641707 5.0191176c0.18065 0.5639184 0.36374 1.2254849 0.49679 1.7894033 0.12938-0.4967852 0.29538-1.1449252 0.52974-1.8223596l1.57336-4.7701146h1.60509zm-9.324184 4.2904178c0-2.5681477-0.743347-3.3456715-1.935876-3.3456715-1.323133 0-1.871183 0.9447464-1.871183 3.0307561 0 2.5351914 0.645698 3.3798482 1.938317 3.3798482 1.15591-0.0012 1.868742-0.8947015 1.868742-3.0649328zm1.706402-0.065912c0 2.6316191-1.406134 4.3050648-3.609321 4.3050648-2.219056 0-3.594675-1.6893136-3.594675-4.3880658 0-2.6841049 1.375619-4.3734188 3.561718-4.3734188 2.45097 0 3.642278 1.9541846 3.642278 4.4564198zM88.36552 10.681664c-0.925217 0.581007-2.16779 0.909349-3.376187 0.909349-1.525753 0-2.734149-0.512653-3.609321-1.540401-0.913011-1.0619239-1.328016-2.4021455-1.328016-4.2721087 0-1.5855626 0.662787-3.3981573 1.971273-4.4759494 0.83001-0.67865495 1.738138-0.97648195 2.863534-0.97648195 1.245014 0 2.336233 0.3649601 3.229714 1.14248385L87.356082 2.4621264C86.510204 1.8506045 85.799813 1.6016016 84.919759 1.6016016c-1.09366 0-1.902919 0.4565053-2.45097 1.4561788-0.397916 0.7299203-0.62861 1.4439728-0.62861 2.8025034 0 1.5721361 0.279518 2.7475763 0.81048 3.4445403 0.495565 0.6432576 1.473267 1.0253059 2.449749 1.0253059 0.64692 0 1.227926-0.166002 1.692976-0.4296518V6.6561167h-2.10676l-0.26243-1.3072653h3.941326v5.3328126l0 0zm-52.365069-0.310033-0.396696 1.324354h-6.80608V10.4705l4.602893-7.2723503c0.250223-0.4308727 0.581006-0.8776132 0.8117-1.1754402-0.330783 0.032956-0.743347 0.048824-1.307265 0.048824h-3.90959l0.380828-1.32313325h6.558297V2.0227095L31.38047 9.2950593c-0.247782 0.4296521-0.512653 0.7628767-0.712832 1.0936597 0.349093-0.01831 0.7287-0.01831 1.142484-0.01831l4.190329 0.0012 0 0zM7.6141186 11.560498H5.9077162L2.9099164 5.500206C2.3313508 4.3247658 1.7344762 3.0321478 1.5196501 2.3693606l-0.097648 0.017088c0.08056 0.9764825 0.1135159 2.120187 0.1318249 3.17967L1.61974 11.560498H0.99357046c-0.7238173 0-0.98014383-0.698185-0.98014383-1.486694V0.15152575H1.8663013L5.0471914 6.4437318C5.5281088 7.3884781 6.089586 8.8617454 6.172587 9.1791021L6.271456 9.1449251C6.2384995 8.8104801 6.1066744 7.0064296 6.1066744 5.749209L6.0749388 0.15152575H7.6141186V11.560498zM0 15.208879c0 0 19.800614-2.236144 38.529539-2.236144 19.129283 0 39.048296 2.236144 39.048296 2.236144v0.788509c0 0-20.050838-2.118966-39.044634-2.118966C19.800614 13.875981 0 15.997388 0 15.997388v-0.788509z"/></svg>