<?xml version="1.0" encoding="utf-8"?>
<!-- Generator: Adobe Illustrator 19.2.0, SVG Export Plug-In . SVG Version: 6.00 Build 0)  -->
<svg version="1.1" id="Layer_1" xmlns="http://www.w3.org/2000/svg" xmlns:xlink="http://www.w3.org/1999/xlink" x="0px" y="0px"
	 viewBox="0 0 120 42" style="enable-background:new 0 0 120 42;" xml:space="preserve">
<style type="text/css">
	.st0{display:none;fill:#231F20;}
	.st1{fill:#FFFFFF;}
</style>
<path class="st0" d="M83.2,33.1c1.2,0.2,2.4,0.2,3.7,0.2c4.3,0,6.1-1.8,6.1-4.3c0-2.9-2.3-4.4-6.5-4.4c-1.3,0-2.3,0.1-3.2,0.2
	C83.2,25.7,83.2,33.1,83.2,33.1z M82.8,17.5c0.6,0.1,1.2,0.1,2.3,0.1c3.9,0,5.9-1.4,5.9-4c0-3-3.3-4-5.7-4c-1.1,0-1.9,0.1-2.5,0.2
	C82.8,10.8,82.8,17.5,82.8,17.5z M96.2,20.8c3.4,0.7,6.9,3.9,6.9,9.5c0,7.5-5.6,10.7-15.1,10.7c-5.1,0-13.8-0.4-14-0.7
	C73.7,40.1,73.4,3,73.6,2.5c0.2-0.4,10-0.7,10.8-0.7c8.6,0,16.2,2.4,16.2,10.5c0,4.5-1.8,6.6-4.4,8C96.2,20.3,96.2,20.8,96.2,20.8z"
	/>
<g>
	<g>
		<g>
			<path id="SVGID_1_" class="st1" d="M41.5,27.1c0.6,0.1,1.2,0.1,1.8,0.1c2.1,0,3-0.9,3-2.1c0-1.4-1.1-2.2-3.2-2.2
				c-0.6,0-1.1,0-1.6,0.1C41.5,23.4,41.5,27.1,41.5,27.1z M41.3,19.3c0.3,0,0.6,0,1.1,0c1.9,0,2.9-0.7,2.9-2c0-1.5-1.6-2-2.8-2
				c-0.5,0-0.9,0-1.2,0.1C41.3,15.9,41.3,19.3,41.3,19.3z M48,20.9c1.7,0.3,3.4,1.9,3.4,4.7c0,3.7-2.8,5.3-7.5,5.3
				c-2.5,0-6.9-0.2-7-0.3c-0.1-0.1-0.3-18.6-0.2-18.8c0.1-0.2,5-0.3,5.4-0.3c4.3,0,8.1,1.2,8.1,5.2c0,2.2-0.9,3.3-2.2,4
				C48,20.7,48,20.9,48,20.9z"/>
		</g>
	</g>
	<path class="st1" d="M62.1,30.5c0-0.6,0-1.4,0-1.6c-0.6,0.9-1.9,2.1-3.9,2.1c-3.2,0-4.7-2.1-4.7-6c0-2,0.2-6.8,0.3-8.1
		c0-0.3,4-0.2,4.1-0.1c0,0.3-0.2,6.7-0.2,7.8c0,1.5,0.6,2.5,2,2.5c1.4,0,2.2-1.2,2.2-2.4c0-0.8,0.1-7.7,0.2-7.8c0.1-0.1,3.9,0,4,0.1
		c0,0.1,0,7.6-0.1,13.6C65.8,30.9,62.4,30.8,62.1,30.5"/>
	<path class="st1" d="M73.2,16.6c0,0.6,0,1.5-0.1,1.7c0.6-0.9,1.8-2,4-2c2.8,0,4.6,2.4,4.6,6.1c0,1.9-0.1,6.6-0.2,8
		c0,0.3-4,0.2-4,0.1c-0.1,0,0-6.7,0-7.7c0-1.5-0.6-2.6-2-2.6c-1.4,0-2.3,1.2-2.3,2.3c0,0.9,0,7.7-0.1,7.8c-0.1,0.1-3.9,0-4-0.1
		c0-0.1-0.1-7.5-0.1-13.4C69.2,16.5,72.9,16.3,73.2,16.6"/>
	<path class="st1" d="M91.4,26.2c1.8,0,2.6-1.2,2.6-2.8c0-1.8-1.2-2.8-2.6-2.8c-1.7,0-2.6,1.1-2.6,2.8
		C88.7,25.2,89.9,26.2,91.4,26.2 M84.2,23.2c0-4.2,3.1-6.6,6.2-6.6c1.8,0,3.2,1.1,3.4,1.4c0-0.9,0-8.2,0.2-8.3
		c0.2-0.2,3.9-0.3,4.4-0.1c0,0-0.2,20.1-0.3,20.4c-0.1,0.1-3,0.3-4,0c0-0.2,0-1.3-0.1-1.5c-0.2,0.3-1.8,1.6-4,1.6
		C87,30.1,84.2,27.7,84.2,23.2"/>
	<path class="st1" d="M105.6,9.7c0.2,0.3-0.2,18.4-0.3,20.5c0,0-3.6,0-3.8-0.1s-0.2-20,0.2-20.3C102,9.5,105.5,9.5,105.6,9.7"/>
	<path class="st1" d="M116.2,21.9c0-1.4-0.6-2.4-1.8-2.4c-1.3,0-2.2,1.1-2.2,2.5L116.2,21.9z M114.9,27c1.4,0,2.4-0.5,3.1-1
		c0.2,0.3,1.3,2.6,1.3,3c-0.7,0.7-2.5,1.6-4.6,1.6c-4.7,0-6.7-3.4-6.7-7c0-3.8,2.2-7.3,6.3-7.3c3.5,0,5.6,2.8,5.6,5.9
		c0,0.8-0.1,1.6-0.2,2.1c-1.3,0.2-6.1,0.2-7.6,0.1C112.1,26.1,113.1,27,114.9,27z"/>
	<g>
		<path class="st1" d="M16.3,41.5H5.8c-3.6,0-5.8-2.4-5.8-6.3V5.4c0-4,2.2-4.9,4.1-4.9H17c3.3,0,5.7,1.4,6.7,3.8
			c1.4,3.4-0.3,8.2-4.7,12.9c6.6,3.3,10.4,6.3,10.4,12.1C29.4,36.9,24.5,41.5,16.3,41.5z M2.9,2.7c-0.6,0.4-1,1.1-1,2.7v29.8
			c0,1.6,0.5,4.4,3.9,4.4h10.6c4.2,0,11.2-1.3,11.2-10.3c0-5.3-3.3-7.7-13.3-12.3C6.4,13.5,1.9,7,2.7,3.3C2.7,3.1,2.8,2.9,2.9,2.7z
			 M6.7,2.4c-1.9,0-2.1,1-2.2,1.3C4,6.2,7.8,12.1,15,15.3c0.8,0.4,1.5,0.7,2.2,1C22.1,11.3,22.9,7.2,22,5c-0.7-1.7-2.5-2.6-5-2.6
			H6.7z"/>
	</g>
</g>
</svg>
