<?xml version="1.0" encoding="utf-8"?>
<!-- Generator: Adobe Illustrator 20.1.0, SVG Export Plug-In . SVG Version: 6.00 Build 0)  -->
<svg version="1.1" id="Layer_1" xmlns="http://www.w3.org/2000/svg" xmlns:xlink="http://www.w3.org/1999/xlink" x="0px" y="0px"
	 viewBox="0 0 205 45" style="enable-background:new 0 0 205 45;" xml:space="preserve">
<g>
	<g>
		<g>
			<path class="st0" d="M22.5,1C34.3,1,44,10.6,44,22.5S34.3,44,22.5,44C10.6,44,1,34.4,1,22.5S10.6,1,22.5,1 M22.5,0
				C10,0,0,10.1,0,22.5S10,45,22.5,45C34.9,45,45,34.9,45,22.5S34.9,0,22.5,0L22.5,0z" fill="#3E4D5D"/>
		</g>
		<g>
			<path class="st0" d="M31.8,23.8L31.8,23.8c-1,0-2.3-0.7-2.8-2c-0.1-0.3,0.1-0.7,0.4-0.8c0.3-0.1,0.7,0.1,0.8,0.4
				c0.2,0.7,1,1.1,1.6,1.1c0.4,0,0.6,0.3,0.6,0.6C32.4,23.5,32.1,23.8,31.8,23.8z" fill="#3E4D5D" />
		</g>
		<g>
			<path class="st0" d="M35.6,27.2L35.6,27.2c-1,0-2.4-0.7-2.8-2c-0.1-0.3,0.1-0.7,0.4-0.8c0.3-0.1,0.7,0.1,0.8,0.4
				c0.2,0.7,1,1.1,1.6,1.1c0.4,0,0.6,0.3,0.6,0.7S36,27.2,35.6,27.2z" fill="#3E4D5D" />
		</g>
		<path class="st0" d="M41.9,22.7c-0.3-4.5-4-8-8.6-8c-2,0-3.9,0.7-5.4,1.9c-0.3-2.8-1.5-5.5-3.6-7.4C22.1,7,19.2,5.9,16.1,6
			c-3.3,0-6.4,1.5-8.5,3.8c-0.5,0.5-0.9,1.1-1.3,1.6c-0.3,0.4-0.5,0.7-0.8,1.3c-1.5,2.7-2.4,5.8-2.6,9.9c0,1,0.1,1.7,0.2,2.9
			c1.3,9.2,9.5,16.6,19.4,16.6c9,0,14.9-6.1,17.2-10.6c0.7-1.4,1-2,1.3-3C41.7,26.8,42.2,24.8,41.9,22.7z M32.3,35
			c-3.2,1.8-6.8,2.2-10.4,1.7c-0.1,0-0.2,0-0.3,0c-2.8-0.4-5.3-1.6-7.3-3.3c-1.3-1-2.5-2.2-3.6-3.5c-3.1-4-4.4-8.5-3.6-12.7l0,0
			c0.7-4.3,4.4-7.5,8.9-7.5c5,0,9.1,4.1,9.1,9.1S21,27.9,16,27.9c-0.8,0-1.6-0.1-2.3-0.3c3.4,6.2,11.1,9.1,18,6.2
			c0.6-0.3,0.8-0.1,1,0.3c0,0.1,0,0.1,0.1,0.3C33,34.5,32.6,34.9,32.3,35z M33.3,29.9c-3.7,0.1-6.8-2.9-6.9-6.6s2.9-6.8,6.6-6.9
			s6.8,2.9,6.9,6.6C40,26.7,37,29.8,33.3,29.9z" fill="#3E4D5D" />
		<path class="st0" d="M17.4,19c0.1-0.4,0.6-0.6,1-0.5c0.7,0.3,1.7,0.1,2.4-0.9c0.3-0.4,0.8-0.5,1.1-0.2c0.4,0.3,0.5,0.8,0.2,1.1
			c-0.8,1.1-1.9,1.7-3.1,1.7c-0.4,0-0.8-0.1-1.2-0.2C17.5,19.8,17.3,19.4,17.4,19z" fill="#3E4D5D" />
		<path class="st0" d="M12.2,22.5c-0.4,0-0.8-0.1-1.1-0.2c-0.4-0.2-0.6-0.6-0.5-1.1c0.2-0.4,0.6-0.6,1.1-0.5c0.6,0.3,2.6-0.1,3-0.9
			c0.2-0.4,0.7-0.5,1.1-0.3s0.5,0.7,0.3,1.1C15.4,21.9,13.6,22.5,12.2,22.5z" fill="#3E4D5D" />
	</g>
	<g>
		<path class="st0" d="M52.6,30.9c-0.5-0.4-0.9-1-0.9-1.8c0-1.2,1-2.2,2.2-2.2c0.6,0,1,0.2,1.4,0.4c1.6,1.2,3.4,1.9,5.5,1.9
			c1.9,0,3.1-0.8,3.1-2v-0.1c0-1.2-0.7-1.8-4.3-2.7c-4.3-1.1-7.1-2.3-7.1-6.6v-0.1c0-3.9,3.1-6.5,7.6-6.5c2.6,0,4.9,0.7,6.8,1.9
			c0.5,0.3,1,1,1,1.9c0,1.2-1,2.2-2.2,2.2c-0.5,0-0.8-0.1-1.2-0.3c-1.6-0.9-3.1-1.5-4.5-1.5c-1.8,0-2.8,0.8-2.8,1.9v0.1
			c0,1.4,0.9,1.9,4.7,2.8c4.4,1.1,6.8,2.7,6.8,6.5v0.1c0,4.3-3.3,6.7-7.9,6.7C57.8,33.5,55,32.6,52.6,30.9z" fill="#3E4D5D" />
		<path class="st0" d="M71,18.8c0-1.3,1-2.3,2.3-2.3c1.3,0,2.3,1,2.3,2.3V19c1.1-1.4,2.5-2.7,4.9-2.7c2.2,0,3.8,1,4.7,2.6
			c1.4-1.7,3.2-2.6,5.4-2.6c3.5,0,5.6,2.1,5.6,6.1V31c0,1.3-1,2.3-2.3,2.3c-1.3,0-2.3-1-2.3-2.3V24c0-2.2-1-3.4-2.7-3.4
			s-2.8,1.1-2.8,3.4V31c0,1.3-1,2.3-2.3,2.3c-1.3,0-2.3-1-2.3-2.3V24c0-2.2-1-3.4-2.7-3.4s-2.8,1.1-2.8,3.4V31c0,1.3-1,2.3-2.3,2.3
			c-1.3,0-2.3-1-2.3-2.3V18.8z" fill="#3E4D5D" />
		<path class="st0" d="M97.7,28.4L97.7,28.4c0-3.7,2.7-5.3,6.7-5.3c1.7,0,2.9,0.3,4,0.7v-0.3c0-1.9-1.2-3-3.5-3
			c-1.3,0-2.3,0.2-3.2,0.5c-0.3,0.1-0.5,0.1-0.7,0.1c-1.1,0-1.9-0.8-1.9-1.9c0-0.8,0.5-1.5,1.3-1.8c1.5-0.6,3.1-0.9,5.3-0.9
			c2.6,0,4.4,0.7,5.6,1.9c1.2,1.2,1.8,3.1,1.8,5.3v7.5c0,1.3-1,2.3-2.3,2.3c-1.4,0-2.2-1-2.2-1.9v0c-1.1,1.3-2.7,2.1-5,2.1
			C100.3,33.5,97.7,31.7,97.7,28.4z M108.5,27.4v-0.8c-0.8-0.4-1.8-0.6-3-0.6c-2,0-3.2,0.8-3.2,2.3v0.1c0,1.3,1,2,2.6,2
			C107,30.3,108.5,29.1,108.5,27.4z" fill="#3E4D5D" />
		<path class="st0" d="M115.1,18.8c0-1.3,1-2.3,2.3-2.3c1.3,0,2.3,1,2.3,2.3v0.7c0.7-1.6,1.8-3.1,3.2-3.1c1.4,0,2.3,1,2.3,2.3
			c0,1.2-0.8,2-1.8,2.2c-2.4,0.6-3.7,2.4-3.7,5.7V31c0,1.3-1,2.3-2.3,2.3c-1.3,0-2.3-1-2.3-2.3V18.8z" fill="#3E4D5D" />
		<path class="st0" d="M128.8,28.5v-7.8h-0.2c-1.1,0-2-0.9-2-2c0-1.1,0.9-2,2-2h0.2v-2.1c0-1.3,1-2.3,2.3-2.3c1.3,0,2.3,1,2.3,2.3
			v2.1h2.1c1.1,0,2,0.9,2,2c0,1.1-0.9,2-2,2h-2.1v7.1c0,1.1,0.5,1.6,1.5,1.6c0.2,0,0.5,0,0.6,0c1,0,1.9,0.9,1.9,1.9
			c0,0.8-0.6,1.5-1.2,1.8c-0.9,0.3-1.7,0.5-2.7,0.5C130.7,33.5,128.8,32.3,128.8,28.5z" fill="#3E4D5D" />
		<path class="st0" d="M140,30.6c-0.3-0.2-0.5-0.5-0.5-0.9c0-0.7,0.5-1.2,1.2-1.2c0.3,0,0.6,0.1,0.7,0.3c2,1.7,4.1,2.6,6.8,2.6
			c2.9,0,4.8-1.5,4.8-3.7v-0.1c0-2-1.1-3.1-5.6-4.1c-5-1.1-7.2-2.7-7.2-6.2v-0.1c0-3.4,3-5.9,7.1-5.9c2.8,0,4.9,0.7,6.9,2.1
			c0.2,0.2,0.5,0.5,0.5,1c0,0.6-0.5,1.2-1.2,1.2c-0.3,0-0.5-0.1-0.7-0.2c-1.8-1.3-3.6-1.9-5.6-1.9c-2.8,0-4.6,1.5-4.6,3.5V17
			c0,2,1.1,3.2,5.9,4.2c4.8,1,7,2.8,7,6.1v0.1c0,3.7-3.1,6.1-7.4,6.1C145.1,33.5,142.4,32.5,140,30.6z" fill="#3E4D5D" />
		<path class="st0" d="M158.8,29v-9.6h-1.3c-0.6,0-1-0.5-1-1c0-0.6,0.5-1,1-1h1.3v-3.8c0-0.6,0.5-1.2,1.2-1.2c0.6,0,1.2,0.6,1.2,1.2
			v3.8h4.1c0.6,0,1.1,0.5,1.1,1c0,0.6-0.5,1-1.1,1h-4.1v9.3c0,1.9,1.1,2.7,2.7,2.7c0.8,0,1.3-0.2,1.4-0.2c0.6,0,1,0.5,1,1
			c0,0.4-0.3,0.8-0.7,0.9c-0.7,0.3-1.4,0.4-2.3,0.4C160.8,33.5,158.8,32.2,158.8,29z" fill="#3E4D5D" />
		<path class="st0" d="M168,28.6L168,28.6c0-3.4,2.8-5.2,6.8-5.2c2,0,3.5,0.3,4.9,0.7v-0.6c0-2.9-1.8-4.4-4.7-4.4
			c-1.6,0-3,0.4-4.1,0.9c-0.2,0.1-0.3,0.1-0.4,0.1c-0.6,0-1-0.5-1-1c0-0.5,0.3-0.9,0.6-1c1.6-0.7,3.2-1.1,5.2-1.1
			c2.2,0,4,0.6,5.1,1.8c1.1,1.1,1.6,2.6,1.6,4.7v8.7c0,0.7-0.5,1.2-1.1,1.2c-0.7,0-1.1-0.5-1.1-1.1v-1.5c-1.1,1.5-3,2.7-5.8,2.7
			C171,33.5,168,31.8,168,28.6z M179.7,27.3v-1.5c-1.2-0.3-2.7-0.7-4.7-0.7c-3,0-4.7,1.3-4.7,3.3v0.1c0,2,1.8,3.2,4,3.2
			C177.3,31.6,179.7,29.9,179.7,27.3z" fill="#3E4D5D" />
		<path class="st0" d="M184.9,18.3c0-0.6,0.5-1.2,1.2-1.2c0.7,0,1.2,0.5,1.2,1.2v3c1.2-2.7,3.5-4.3,5.5-4.3c0.7,0,1.2,0.5,1.2,1.2
			c0,0.6-0.4,1.1-1,1.2c-3.1,0.4-5.6,2.7-5.6,7.3v5.4c0,0.6-0.5,1.2-1.2,1.2c-0.7,0-1.2-0.5-1.2-1.2V18.3z" fill="#3E4D5D" />
		<path class="st0" d="M197.4,29v-9.6h-1.3c-0.6,0-1-0.5-1-1c0-0.6,0.5-1,1-1h1.3v-3.8c0-0.6,0.5-1.2,1.2-1.2c0.6,0,1.2,0.6,1.2,1.2
			v3.8h4.1c0.6,0,1.1,0.5,1.1,1c0,0.6-0.5,1-1.1,1h-4.1v9.3c0,1.9,1.1,2.7,2.7,2.7c0.8,0,1.3-0.2,1.4-0.2c0.6,0,1,0.5,1,1
			c0,0.4-0.3,0.8-0.7,0.9c-0.7,0.3-1.4,0.4-2.3,0.4C199.4,33.5,197.4,32.2,197.4,29z" fill="#3E4D5D" />
	</g>
</g>
</svg>
