<?xml version="1.0" encoding="utf-8"?>
<!-- Generator: Adobe Illustrator 20.1.0, SVG Export Plug-In . SVG Version: 6.00 Build 0)  -->
<svg version="1.1" id="Layer_1" xmlns="http://www.w3.org/2000/svg" xmlns:xlink="http://www.w3.org/1999/xlink" x="0px" y="0px"
	 viewBox="0 0 80 80" style="enable-background:new 0 0 80 80;" xml:space="preserve">
<style type="text/css">
	.st0{fill:#FFFFFF;}
</style>
<g id="Layer_1_1_">
	<g>
		<path class="st0" d="M40,0C17.9,0,0,17.9,0,40s17.9,40,40,40s40-17.9,40-40S62.1,0,40,0z M73,57c-4.3,8.5-15.6,20.1-32.7,20.1
			c-18.8,0-34.5-14.2-36.9-31.7C3,43.3,2.8,41.9,2.9,40c0.2-7.8,2-13.7,4.9-18.8c0.6-1.1,1-1.7,1.5-2.5c0.8-1.1,1.6-2.1,2.4-3.1
			c4-4.4,9.8-7.2,16.4-7.4c5.8-0.2,11.3,2,15.5,6.1c3.9,3.7,6.3,8.8,6.8,14.1c2.8-2.3,6.4-3.6,10.3-3.6c8.7,0,15.8,6.8,16.3,15.3
			c0.5,4.1-0.3,7.8-1.6,11.1C74.9,53.2,74.4,54.3,73,57z"/>
		<g>
			<path class="st0" d="M60,28.2c-7.1,0.2-12.7,6-12.6,13.2c0.2,7.1,6,12.7,13.2,12.6c7.1-0.2,12.7-6,12.6-13.2
				C73,33.6,67.1,28,60,28.2z M57.7,42.3L57.7,42.3c-2,0-4.5-1.3-5.3-3.7c-0.2-0.6,0.1-1.3,0.8-1.6c0.6-0.2,1.3,0.1,1.6,0.8
				c0.4,1.3,1.9,2.1,3,2.1c0.7,0,1.2,0.6,1.2,1.2C59,41.8,58.4,42.3,57.7,42.3z M65.1,48.8L65.1,48.8c-2,0-4.5-1.3-5.3-3.7
				c-0.2-0.6,0.1-1.3,0.8-1.6c0.6-0.2,1.3,0.1,1.6,0.8c0.4,1.3,1.9,2.1,3,2.1c0.7,0,1.2,0.6,1.2,1.2C66.3,48.3,65.8,48.8,65.1,48.8z
				"/>
		</g>
		<path class="st0" d="M59.5,61.6c-0.4-0.7-0.7-1-1.8-0.5c-13.1,5.5-28-0.1-34.4-11.9c1.4,0.4,2.9,0.6,4.5,0.6
			c9.5,0,17.3-7.7,17.3-17.3c0-9.5-7.7-17.3-17.3-17.3c-8.5,0-15.6,6.2-17,14.3l0,0c-1.5,8,0.9,16.6,6.9,24.2c2,2.5,4.2,4.8,6.8,6.6
			c4,3.3,8.7,5.5,14,6.3c0.2,0,0.3,0.1,0.5,0.1c6.9,1.1,13.7,0.3,19.8-3.2c0.6-0.3,1.3-1,1.1-1.5C59.6,61.7,59.6,61.7,59.5,61.6z
			 M30.4,33.1c0.3-0.8,1.2-1.2,2-0.9c1.4,0.5,3.3,0.1,4.6-1.7c0.5-0.7,1.4-0.9,2.1-0.4c0.7,0.5,0.9,1.4,0.4,2.1
			c-1.4,2.1-3.6,3.3-5.9,3.3c-0.7,0-1.5-0.1-2.2-0.4C30.6,34.8,30.1,33.9,30.4,33.1z M20.5,39.8c-0.8,0-1.6-0.1-2.2-0.3
			c-0.8-0.3-1.2-1.2-0.9-2c0.3-0.8,1.2-1.2,2-0.9c1.2,0.5,4.9-0.3,5.7-1.6c0.4-0.7,1.4-1,2.1-0.6s1,1.4,0.6,2.1
			C26.5,38.7,23.1,39.8,20.5,39.8z"/>
	</g>
</g>
</svg>
