<?xml version="1.0" encoding="utf-8"?>
<!-- Generator: Adobe Illustrator 20.1.0, SVG Export Plug-In . SVG Version: 6.00 Build 0)  -->
<svg version="1.1" id="Layer_1" xmlns="http://www.w3.org/2000/svg" xmlns:xlink="http://www.w3.org/1999/xlink" x="0px" y="0px"
	 viewBox="0 0 205 45" style="enable-background:new 0 0 205 45;" xml:space="preserve">
<g id="Layer_1_1_">
	<g>
		<g>
			<path class="st0" d="M52.6,30.9c-0.5-0.4-0.9-1-0.9-1.8c0-1.3,1-2.2,2.2-2.2c0.6,0,1,0.3,1.4,0.4c1.7,1.2,3.5,1.9,5.5,1.9
				c1.9,0,3.1-0.8,3.1-2.1l0,0c0-1.2-0.8-1.8-4.4-2.7c-4.4-1.2-7.2-2.3-7.2-6.6l0,0c0-3.9,3.2-6.6,7.6-6.6c2.6,0,4.9,0.6,6.8,1.9
				c0.5,0.3,1,0.9,1,1.9c0,1.3-1,2.2-2.2,2.2c-0.5,0-0.8-0.1-1.2-0.4c-1.5-1-2.9-1.5-4.5-1.5c-1.8,0-2.8,0.8-2.8,1.9l0,0
				c0,1.4,0.9,1.9,4.6,2.8c4.4,1.2,6.8,2.7,6.8,6.4l0,0c0,4.2-3.2,6.7-7.9,6.7C57.8,33.6,55,32.7,52.6,30.9z" fill="#FFFFFF"/>
			<path class="st0" d="M71,18.8c0-1.3,1-2.3,2.3-2.3s2.3,1,2.3,2.3v0.1c1-1.4,2.4-2.7,4.9-2.7c2.2,0,3.8,0.9,4.6,2.6
				c1.4-1.7,3.2-2.6,5.4-2.6c3.5,0,5.6,2.1,5.6,6v8.6c0,1.3-1,2.3-2.3,2.3s-2.3-1-2.3-2.3v-7.1c0-2.2-1-3.3-2.7-3.3
				c-1.8,0-2.8,1.2-2.8,3.3v7.1c0,1.3-1,2.3-2.3,2.3s-2.3-1-2.3-2.3v-7.1c0-2.2-1-3.3-2.7-3.3c-1.8,0-2.8,1.2-2.8,3.3v7.1
				c0,1.3-1,2.3-2.3,2.3s-2.3-1-2.3-2.3V18.8H71z" fill="#FFFFFF"/>
			<path class="st0" d="M97.8,28.4L97.8,28.4c0-3.7,2.7-5.4,6.7-5.4c1.7,0,2.8,0.3,4.1,0.6v-0.3c0-1.9-1.2-3.1-3.6-3.1
				c-1.3,0-2.3,0.1-3.2,0.5c-0.3,0.1-0.5,0.1-0.6,0.1c-1,0-1.9-0.8-1.9-1.9c0-0.8,0.5-1.5,1.3-1.8c1.5-0.5,3.1-0.9,5.3-0.9
				c2.6,0,4.4,0.6,5.6,1.8c1.3,1.3,1.8,3.1,1.8,5.3V31c0,1.3-1,2.3-2.3,2.3c-1.4,0-2.3-0.9-2.3-1.9l0,0c-1.2,1.3-2.7,2.1-5,2.1
				C100.4,33.6,97.8,31.8,97.8,28.4z M108.6,27.4v-0.8c-0.8-0.4-1.8-0.6-2.9-0.6c-2.1,0-3.2,0.8-3.2,2.3l0,0c0,1.3,1,2.1,2.6,2.1
				C107.1,30.2,108.6,29.1,108.6,27.4z" fill="#FFFFFF"/>
			<path class="st0" d="M115.1,18.8c0-1.3,1-2.3,2.3-2.3s2.3,1,2.3,2.3v0.8c0.6-1.5,1.8-3.1,3.2-3.1s2.3,0.9,2.3,2.3
				c0,1.3-0.8,1.9-1.8,2.2c-2.4,0.5-3.7,2.3-3.7,5.7V31c0,1.3-1,2.3-2.3,2.3s-2.3-1-2.3-2.3V18.8z" fill="#FFFFFF"/>
			<path class="st0" d="M128.8,28.5v-7.8h-0.1c-1.2,0-2.1-0.9-2.1-2.1s0.9-2.1,2.1-2.1h0.1v-2.1c0-1.3,1-2.3,2.3-2.3
				c1.3,0,2.3,1,2.3,2.3v2.1h2.1c1.2,0,2.1,0.9,2.1,2.1s-0.9,2.1-2.1,2.1h-2.1v7.1c0,1,0.5,1.5,1.5,1.5c0.1,0,0.5,0,0.5,0
				c1,0,1.9,0.9,1.9,1.9c0,0.8-0.5,1.5-1.2,1.8c-0.9,0.4-1.7,0.5-2.7,0.5C130.8,33.4,128.8,32.3,128.8,28.5z" fill="#FFFFFF"/>
			<path class="st0" d="M140.1,30.6c-0.3-0.1-0.5-0.5-0.5-0.9c0-0.6,0.5-1.2,1.2-1.2c0.3,0,0.6,0.1,0.8,0.3c2.1,1.7,4.1,2.6,6.8,2.6
				c2.9,0,4.9-1.5,4.9-3.7l0,0c0-2.1-1-3.1-5.6-4.1c-5-1-7.3-2.7-7.3-6.2l0,0c0-3.3,2.9-5.9,7.1-5.9c2.8,0,4.9,0.8,6.9,2.2
				c0.3,0.1,0.5,0.5,0.5,1c0,0.6-0.5,1.2-1.2,1.2c-0.3,0-0.5,0-0.8-0.3c-1.8-1.3-3.6-1.9-5.6-1.9c-2.8,0-4.6,1.5-4.6,3.5l0,0
				c0,2.1,1.2,3.2,5.9,4.2c4.9,1,7.1,2.8,7.1,6.2l0,0c0,3.7-3.1,6.2-7.3,6.2C145.1,33.6,142.6,32.5,140.1,30.6z" fill="#FFFFFF"/>
			<path class="st0" d="M158.8,28.9v-9.6h-1.3c-0.5,0-1-0.5-1-1c0-0.6,0.5-1,1-1h1.3v-3.7c0-0.6,0.5-1.2,1.2-1.2
				c0.6,0,1.2,0.5,1.2,1.2v3.7h4.1c0.6,0,1,0.5,1,1c0,0.6-0.5,1-1,1h-4.1v9.3c0,1.9,1,2.7,2.7,2.7c0.8,0,1.3-0.3,1.4-0.3
				c0.5,0,1,0.5,1,1c0,0.4-0.3,0.8-0.6,0.9c-0.6,0.3-1.4,0.4-2.3,0.4C160.9,33.4,158.8,32.1,158.8,28.9z" fill="#FFFFFF"/>
			<path class="st0" d="M168.1,28.5L168.1,28.5c0-3.5,2.8-5.3,6.8-5.3c2.1,0,3.5,0.3,4.9,0.6v-0.5c0-2.8-1.8-4.4-4.7-4.4
				c-1.7,0-2.9,0.4-4.1,0.9c-0.1,0-0.3,0.1-0.4,0.1c-0.5,0-1-0.5-1-1c0-0.5,0.4-0.9,0.6-1c1.5-0.6,3.2-1,5.3-1c2.3,0,4,0.6,5.1,1.8
				c1,1,1.7,2.6,1.7,4.6v8.7c0,0.6-0.5,1.2-1.2,1.2s-1.2-0.5-1.2-1.2v-1.4c-1.2,1.4-2.9,2.7-5.8,2.7C171,33.6,168.1,31.9,168.1,28.5
				z M179.9,27.4v-1.5c-1.2-0.4-2.7-0.6-4.7-0.6c-2.9,0-4.6,1.3-4.6,3.3l0,0c0,2.1,1.8,3.2,4,3.2C177.4,31.6,179.9,29.8,179.9,27.4z
				" fill="#FFFFFF"/>
			<path class="st0" d="M185,18.3c0-0.6,0.5-1.2,1.2-1.2c0.6,0,1.2,0.5,1.2,1.2v3c1.2-2.7,3.5-4.2,5.5-4.2c0.8,0,1.2,0.5,1.2,1.2
				c0,0.6-0.4,1.2-1,1.2c-3.1,0.4-5.6,2.7-5.6,7.3v5.5c0,0.6-0.5,1.2-1.2,1.2s-1.2-0.5-1.2-1.2L185,18.3L185,18.3z" fill="#FFFFFF"/>
			<path class="st0" d="M197.6,28.9v-9.6h-1.3c-0.5,0-1-0.5-1-1c0-0.6,0.5-1,1-1h1.3v-3.7c0-0.6,0.5-1.2,1.2-1.2
				c0.6,0,1.2,0.5,1.2,1.2v3.7h4.1c0.6,0,1,0.5,1,1c0,0.6-0.5,1-1,1h-4.1v9.3c0,1.9,1,2.7,2.7,2.7c0.8,0,1.3-0.3,1.4-0.3
				c0.5,0,1,0.5,1,1c0,0.4-0.3,0.8-0.6,0.9c-0.6,0.3-1.4,0.4-2.3,0.4C199.5,33.4,197.6,32.1,197.6,28.9z" fill="#FFFFFF"/>
		</g>
		<g>
			<path class="st0" d="M22.4,0C10.1,0,0,10,0,22.5S10.1,45,22.4,45c12.4,0,22.4-10,22.4-22.5C45,10,34.9,0,22.4,0z M41,32
				c-2.4,4.8-8.7,11.3-18.5,11.3c-10.5,0-19.4-8-20.8-17.9c-0.3-1.2-0.3-2.1-0.3-3.1c0.1-4.4,1.2-7.7,2.7-10.5
				c0.4-0.6,0.5-0.9,0.9-1.4C5.5,9.8,6,9.3,6.5,8.6c2.3-2.4,5.5-4,9.2-4.1C19,4.4,22.2,5.7,24.5,8c2.2,2.1,3.6,5,3.8,8
				c1.5-1.3,3.6-2.1,5.8-2.1c4.9,0,8.8,3.9,9.2,8.6c0.3,2.3-0.1,4.4-0.9,6.3C42.1,30,41.8,30.6,41,32z" fill="#FFFFFF"/>
			<g>
				<path class="st0" d="M33.7,15.8c-4,0.1-7.2,3.3-7.1,7.5c0.1,4,3.5,7.2,7.4,7.1s7.2-3.3,7.1-7.5C41,18.9,37.7,15.7,33.7,15.8z
					 M32.4,23.8L32.4,23.8c-1.2,0-2.6-0.8-2.9-2.1c-0.1-0.4,0.1-0.8,0.4-0.9c0.4-0.1,0.8,0.1,0.9,0.4c0.3,0.8,1,1.2,1.7,1.2
					c0.4,0,0.6,0.3,0.6,0.6C33.1,23.5,32.8,23.8,32.4,23.8z M36.5,27.5L36.5,27.5c-1.2,0-2.6-0.8-2.9-2.1c-0.1-0.4,0.1-0.8,0.4-0.9
					c0.4-0.1,0.8,0.1,0.9,0.4c0.3,0.8,1,1.2,1.7,1.2c0.4,0,0.6,0.3,0.6,0.6C37.3,27.1,36.9,27.5,36.5,27.5z" fill="#FFFFFF"/>
			</g>
			<path class="st0" d="M33.5,34.6c-0.3-0.4-0.4-0.5-1-0.3c-7.3,3.1-15.6,0-19.4-6.7c0.8,0.3,1.7,0.4,2.6,0.4c5.4,0,9.7-4.4,9.7-9.8
				S21,8.5,15.6,8.5c-4.7,0-8.7,3.5-9.6,8.1l0,0C5.1,21.1,6.5,26,9.9,30.2c1.2,1.4,2.4,2.7,3.8,3.7c2.2,1.8,4.9,3.1,7.8,3.6
				c0.1,0,0.1,0,0.3,0c3.8,0.6,7.7,0.1,11.2-1.8c0.4-0.1,0.8-0.5,0.6-0.9C33.5,34.7,33.5,34.7,33.5,34.6z M17.1,18.6
				c0.1-0.5,0.6-0.6,1.2-0.5c0.8,0.3,1.9,0.1,2.6-1c0.3-0.4,0.8-0.5,1.2-0.3c0.4,0.3,0.5,0.8,0.3,1.2c-0.8,1.2-2.1,1.8-3.3,1.8
				c-0.4,0-0.9-0.1-1.3-0.3C17.2,19.5,16.9,19,17.1,18.6z M11.5,22.4c-0.5,0-0.9,0-1.3-0.1c-0.4-0.1-0.6-0.6-0.5-1.2
				c0.3-0.5,0.8-0.6,1.2-0.5c0.6,0.3,2.8-0.1,3.2-0.9c0.3-0.4,0.8-0.5,1.2-0.4c0.4,0.3,0.5,0.8,0.4,1.2
				C14.9,21.7,12.9,22.4,11.5,22.4z" fill="#FFFFFF"/>
		</g>
	</g>
</g>
</svg>
