<?xml version="1.0" encoding="utf-8"?>
<svg version="1.1" id="Layer_1" xmlns="http://www.w3.org/2000/svg" xmlns:xlink="http://www.w3.org/1999/xlink" x="0px" y="0px"
	 viewBox="0 0 1400 212" enable-background="new 0 0 1400 212" xml:space="preserve">
<path fill="#FFFFFF" d="M341.6,175.3c0.1-2.1,0.1-4.2-0.1-6.3c-1.4-15.2-3-20.2-14-30.5c-6.1-5.7-14-12.6-21.5-14.1
	c-3.8-0.8-16.7-1.8-19.8,3.6c-0.5-4.6-2.4-9.2-5.8-12.5c-3.8-3.7-9.7-6.3-15.1-5.9c-0.6,0-4.4,0.3-4.5,0.7
	c2.5-8.5,0.5-18.1-5.1-24.9s-14.7-10.5-23.5-9.6c-1.4,0.1-2.8,0.4-4.1-0.2c-1.7-0.8-2.4-2.8-3.1-4.6c-3.9-10.1-13.4-17.7-24.1-19.4
	c-10.7-1.7-22.1,2.8-28.9,11.2c-13.7-8.5-33.8-3.9-42.5,9.6c-8.3-2.4-17.7-0.7-24.6,4.5S93.8,90.7,93.8,99.4
	c-20.4,3.1-37.1,22.4-37.2,43.1c-18,1-34.1,16.5-35.7,34.4c-0.9,9.4,2.6,19.9,10.9,24.6c5.5,3.1,12,3.1,18.3,3.1
	c83.4-0.1,166.8-0.1,250.2-0.2c11.3,0,23.7-0.4,32.2-8C338.4,191.3,341.2,183.3,341.6,175.3"/>
<path fill="#FFFFFF" d="M1379.1,132.3c0.1-2,0.1-3.9-0.1-5.9c-1.3-14.2-2.8-18.9-13.1-28.6c-5.7-5.4-13.1-11.8-20.1-13.2
	c-3.6-0.7-15.7-1.6-18.5,3.4c-0.4-4.3-2.3-8.7-5.4-11.7c-3.6-3.4-9.1-5.9-14.1-5.6c-0.5,0-4.1,0.2-4.2,0.7
	c2.3-7.9,0.5-16.9-4.8-23.3c-5.3-6.3-13.8-9.8-22-9c-1.3,0.1-2.7,0.4-3.8-0.2c-1.6-0.8-2.2-2.7-2.9-4.3
	c-3.7-9.4-12.6-16.6-22.6-18.2c-10-1.5-20.7,2.6-27,10.5c-12.8-7.9-31.7-3.7-39.8,9c-7.8-2.3-16.6-0.6-23.1,4.3
	s-10.4,12.9-10.4,21.1c-19.1,2.9-34.8,21-34.9,40.4c-16.9,0.9-31.9,15.4-33.4,32.3c-0.8,8.8,2.4,18.7,10.2,23
	c5.1,2.9,11.3,2.9,17.1,2.9c78.2-0.1,156.3-0.1,234.5-0.2c10.6,0,22.2-0.4,30.1-7.5C1376.1,147.3,1378.7,139.8,1379.1,132.3"/>
<path fill="#DD7537" d="M967.5,60.5v106.4c71,3.5,173.5,32.2,173.5,32.2l-49.1-64.6l42.1-41.3C1134.1,93.2,1032.7,63,967.5,60.5"/>
<path fill="#BE7345" d="M1027.3,147c-19.9,0.2-38.8,0.2-59.8,1.7v8C989.5,150.8,1014.4,147.7,1027.3,147 M1036.3,146.7L1036.3,146.7
	L1036.3,146.7L1036.3,146.7z"/>
<path fill="#DD7537" d="M438.1,186.1V73.8c-66.2-3.2-172.5-32.5-172.5-32.5l49.3,60.6l-49.5,44.4
	C265.3,146.3,366.8,179.9,438.1,186.1"/>
<path fill="#BE7345" d="M438.1,84.7c-2,1.5-25,7.6-31.7,7.3c10.2,0.5,21.1,1.9,31.7,1.2V84.7z"/>
<path fill="#EC9059" d="M1027.3,147c-108.7-0.2-219,19.3-327.6,33.5c-111.9,18.5-218.1,31-324.3,23c10.3-37.2,20.7-74.3,31-111.5
	C595,103.5,797.6,32.5,996.3,38.8C1006.6,74.9,1016.9,110.9,1027.3,147"/>
<g>
	<path fill="#FFFFFF" d="M471.7,176.1l9.1-43l10-1.3l-3.1,15h0.4c1.3,0,2.6-0.3,3.8-1c1.2-0.7,2.2-1.5,3.1-2.6s1.6-2.2,2.1-3.5
		s0.8-2.6,0.8-3.9c0-0.9-0.2-1.9-0.5-2.7c-0.3-0.9-0.8-1.6-1.6-2.3c-0.7-0.7-1.6-1.2-2.8-1.6c-1.1-0.4-2.5-0.6-4.1-0.6
		c-1.3,0-2.7,0.2-4,0.5c-1.4,0.3-2.6,0.8-3.9,1.4c-1.2,0.6-2.4,1.4-3.5,2.3c-1.1,0.9-2,2-2.8,3.2s-1.4,2.6-1.9,4.1s-0.7,3.2-0.7,5.1
		c0,0.9,0.1,1.6,0.2,2.1s0.2,1,0.3,1.3c0.1,0.3,0.2,0.6,0.3,0.7c0.1,0.2,0.1,0.3,0.1,0.5c-2.3,0-4.1-0.5-5.3-1.4
		c-1.3-0.9-1.9-2.5-1.9-4.8c0-1.6,0.3-3.1,0.9-4.6s1.5-2.9,2.6-4.2s2.4-2.6,4-3.7c1.5-1.1,3.2-2.1,5-2.9s3.7-1.5,5.8-1.9
		c2-0.5,4.1-0.7,6.2-0.7c2.5,0,4.6,0.3,6.4,0.9s3.3,1.4,4.5,2.4c1.2,1,2.1,2.1,2.6,3.4c0.6,1.3,0.9,2.6,0.9,4c0,1-0.1,2-0.4,3
		s-0.7,2-1.3,2.9s-1.3,1.8-2.1,2.6c-0.8,0.8-1.8,1.5-2.9,2.2c1.5,0.3,2.7,0.7,3.7,1.4s1.8,1.5,2.5,2.5c0.6,1,1.1,2.1,1.4,3.2
		c0.3,1.2,0.4,2.4,0.4,3.7c0,1.1-0.1,2.3-0.3,3.7c-0.2,1.4-0.5,2.8-1,4.2s-1.1,2.9-1.8,4.2c-0.7,1.4-1.7,2.6-2.8,3.7
		c-1.1,1.1-2.4,1.9-3.8,2.6c-1.5,0.7-3.1,1-5,1c-0.7,0-1.5-0.1-2.3-0.2c-0.8-0.1-1.5-0.4-2.2-0.8c-0.6-0.4-1.2-0.9-1.6-1.5
		s-0.6-1.5-0.6-2.5c0-0.6,0.1-1.2,0.2-1.8s0.3-1.3,0.7-2.1c0.9,0.9,1.6,1.6,2.3,1.9c0.7,0.4,1.4,0.5,2.2,0.5c1.2,0,2.3-0.4,3.1-1.2
		c0.8-0.8,1.5-1.8,2.1-3c0.5-1.2,0.9-2.5,1.1-3.9s0.3-2.8,0.3-4.1c0-1.2-0.1-2.3-0.3-3.3c-0.2-1-0.6-2-1.1-2.7
		c-0.5-0.8-1.2-1.4-2-1.9s-1.8-0.7-3.1-0.7c-0.3,0-0.7,0-1.3,0c-0.6,0-1.2,0.1-1.8,0.2l-5.5,25.9L471.7,176.1z"/>
</g>
<g>
	<path fill="#FFFFFF" d="M536.7,162.7c-0.1,0.4-0.1,0.8-0.2,1.1c0,0.4,0,0.7,0,1.1c0.1,0.9,0.3,1.6,0.8,1.9c0.5,0.3,1.2,0.5,2.1,0.4
		c0.3,0,0.6-0.1,0.8-0.1c0.2-0.1,0.5-0.1,0.6-0.3c-0.4,1.2-0.8,2.2-1.1,3.1c-0.4,0.9-0.8,1.6-1.2,2.2c-0.5,0.6-1,1-1.6,1.4
		c-0.6,0.3-1.4,0.5-2.3,0.6c-1.9,0.1-3.4-0.3-4.6-1.3c-1.2-1-2-2.5-2.4-4.5c-0.5,0.8-1,1.6-1.6,2.4c-0.6,0.8-1.3,1.5-2.1,2.2
		c-0.8,0.6-1.7,1.2-2.7,1.6c-1,0.4-2.1,0.7-3.3,0.8s-2.3,0-3.4-0.3c-1.1-0.3-2.1-0.9-3-1.7c-0.9-0.8-1.6-1.9-2.2-3.2
		c-0.6-1.4-1-3-1.1-5c-0.1-1.5-0.1-3.2,0.1-5s0.6-3.6,1.1-5.4c0.5-1.8,1.2-3.5,2.1-5.2c0.9-1.7,1.9-3.2,3.1-4.5
		c1.2-1.3,2.6-2.4,4.2-3.2c1.6-0.8,3.3-1.3,5.3-1.4c1.9-0.1,3.3,0.1,4.2,0.7c0.9,0.6,1.4,1.4,1.5,2.4v0.5l0.5-3.6l9.7-0.6
		L536.7,162.7z M529.4,146.6c0-0.2-0.1-0.4-0.2-0.7c-0.1-0.3-0.3-0.6-0.5-0.8c-0.2-0.3-0.5-0.5-0.9-0.6c-0.4-0.2-0.8-0.2-1.4-0.2
		c-0.9,0.1-1.8,0.4-2.6,1.1c-0.8,0.7-1.5,1.5-2.2,2.6c-0.6,1.1-1.2,2.3-1.7,3.6s-0.8,2.7-1.1,4.1c-0.3,1.4-0.5,2.8-0.6,4.1
		s-0.1,2.5-0.1,3.6c0.1,1.3,0.3,2.3,0.6,3s0.6,1.2,1,1.5s0.7,0.5,1.1,0.5c0.4,0,0.8,0.1,1.1,0c0.5,0,1-0.2,1.6-0.5
		c0.5-0.3,1.1-0.7,1.5-1.2c0.5-0.5,0.9-1.2,1.3-1.9c0.4-0.8,0.6-1.7,0.8-2.7L529.4,146.6z"/>
</g>
<g>
	<path fill="#FFFFFF" d="M548.3,126.5l9.8-2.3l-1.8,15.4c0.6-0.5,1.2-0.9,1.7-1.2s1-0.5,1.4-0.7s0.8-0.3,1.2-0.4
		c0.4-0.1,0.7-0.1,1-0.1c1.2-0.1,2.3,0,3.3,0.3s1.9,0.9,2.7,1.7s1.4,2,2,3.4c0.5,1.4,0.9,3.2,1.1,5.3c0.1,1.3,0.1,2.8,0,4.5
		s-0.3,3.4-0.8,5.1c-0.4,1.7-1,3.5-1.8,5.1c-0.8,1.7-1.8,3.2-3,4.6c-1.2,1.4-2.7,2.5-4.5,3.5c-1.8,0.9-3.8,1.5-6.2,1.7
		c-3.1,0.3-5.5-0.2-7.2-1.6c-1.7-1.4-2.7-3.4-3-6.1c-0.1-0.6-0.1-1.3-0.1-1.9c0-0.7,0.1-1.3,0.2-2L548.3,126.5z M553.8,161.3
		c-0.1,0.6-0.1,1.1,0,1.6c0.2,2.1,1.5,3,3.8,2.8c0.7-0.1,1.4-0.4,2-0.9c0.6-0.6,1.2-1.3,1.7-2.2s0.9-1.9,1.3-3
		c0.4-1.1,0.7-2.4,0.9-3.6c0.2-1.2,0.4-2.5,0.4-3.8c0.1-1.3,0-2.5-0.1-3.7c-0.1-0.8-0.2-1.6-0.4-2.4c-0.2-0.8-0.5-1.4-0.9-2
		s-0.8-1-1.3-1.4c-0.5-0.3-1-0.4-1.6-0.4c-0.2,0-0.5,0.1-0.9,0.1c-0.4,0.1-0.7,0.2-1.1,0.3c-0.4,0.1-0.7,0.3-1.1,0.5
		c-0.3,0.2-0.6,0.4-0.7,0.7L553.8,161.3z"/>
</g>
<g>
	<path fill="#FFFFFF" d="M590.4,163.4c-0.6,0.9-1.3,1.7-1.9,2.2c-0.7,0.6-1.3,1.1-2,1.4c-0.7,0.4-1.3,0.6-2,0.8
		c-0.6,0.2-1.3,0.3-1.9,0.4c-1,0.1-2,0.1-2.9-0.1c-0.9-0.2-1.7-0.6-2.4-1.2c-0.7-0.6-1.3-1.4-1.8-2.3s-0.8-2.2-1-3.6
		c-0.1-0.6-0.1-1.3-0.1-2s0-1.5,0.1-2.4l2.1-22.1l9.7-1.1l-2.2,23.4c-0.1,0.6-0.1,1.2,0,1.7c0,0.4,0.1,0.8,0.2,1.1
		c0.1,0.3,0.3,0.6,0.4,0.9c0.2,0.3,0.4,0.4,0.7,0.6c0.3,0.1,0.6,0.2,1,0.1c0.7-0.1,1.2-0.3,1.8-0.7c0.5-0.4,1-0.8,1.3-1.4
		c0.4-0.6,0.7-1.2,1-2s0.5-1.6,0.6-2.5l2-22.1l9.7-1.1l-3.7,39.9c-0.2,2.5-0.7,4.5-1.4,6.1c-0.8,1.6-1.6,2.9-2.7,3.8
		c-1,1-2.1,1.7-3.3,2.1c-1.2,0.4-2.3,0.7-3.4,0.8c-1,0.1-2,0.1-3-0.2c-1-0.2-1.9-0.6-2.7-1.2c-0.8-0.5-1.5-1.2-2-2.1
		c-0.6-0.8-0.9-1.8-1-2.9c-0.2-1.6,0-2.9,0.4-4.1c0.5-1.1,1.2-2.1,2.2-3s2.1-1.6,3.5-2.3c1.3-0.7,2.8-1.3,4.4-2L590.4,163.4z
		 M589.9,168.6c-1,0.5-1.9,1-2.8,1.5c-0.9,0.5-1.6,1.1-2.2,1.8c-0.6,0.6-1.1,1.3-1.4,2.1c-0.3,0.8-0.4,1.6-0.3,2.5
		c0,0.3,0.1,0.5,0.3,0.8c0.2,0.2,0.4,0.5,0.6,0.6c0.3,0.2,0.6,0.3,0.9,0.4c0.3,0.1,0.7,0.1,1.1,0.1c0.3,0,0.7-0.2,1-0.4
		c0.4-0.2,0.7-0.5,1-1c0.3-0.4,0.6-1,0.8-1.7s0.4-1.6,0.5-2.6L589.9,168.6z"/>
</g>
<g>
	<path fill="#FFFFFF" d="M620.2,163.3l2.5-34.4l9.6-1.3l-0.2,3.6c0.6-0.9,1.2-1.7,1.9-2.2c0.6-0.6,1.3-1.1,1.9-1.4
		c0.6-0.4,1.3-0.6,1.8-0.8c0.6-0.2,1.1-0.3,1.7-0.4c1.1-0.1,2.1-0.1,3,0c1,0.2,1.8,0.5,2.6,1c0.7,0.5,1.4,1.2,1.9,2.1
		c0.5,0.9,0.8,2,1,3.4c0.1,0.9,0.2,1.9,0.2,2.9c0,1.1-0.1,2.1-0.2,3.3c-0.1,1.1-0.2,2.2-0.3,3.3s-0.2,2.2-0.3,3.2s-0.2,2-0.2,2.8
		c0,0.9,0,1.6,0.1,2.2c0.1,0.8,0.4,1.5,0.9,1.9c0.5,0.5,1.2,0.6,2.2,0.5c1.1-0.2,1.8-0.4,2.2-0.7c0,1.2-0.1,2.3-0.5,3.2
		s-0.8,1.7-1.4,2.4c-0.6,0.7-1.3,1.2-2.1,1.5c-0.8,0.4-1.6,0.6-2.5,0.7c-1.3,0.2-2.4,0.1-3.3-0.2c-0.9-0.3-1.7-0.8-2.3-1.4
		c-0.6-0.6-1.1-1.4-1.4-2.3c-0.3-0.9-0.6-1.8-0.7-2.7c-0.2-1.1-0.2-2.5-0.1-4c0.1-1.6,0.2-3.2,0.4-4.8c0.1-1.6,0.3-3.2,0.4-4.7
		c0.1-1.5,0.1-2.8-0.1-3.9c-0.3-2.3-1.3-3.3-2.9-3.1c-0.6,0.1-1.2,0.3-1.6,0.7c-0.5,0.4-0.9,0.9-1.3,1.5c-0.4,0.6-0.7,1.3-0.9,2.1
		s-0.4,1.6-0.6,2.5l-1.6,22.1L620.2,163.3z"/>
</g>
<g>
	<path fill="#FFFFFF" d="M682.9,143.4c-0.1,0.4-0.1,0.8-0.1,1.1c0,0.4,0,0.7,0.1,1.1c0.1,0.9,0.5,1.5,1,1.8s1.2,0.4,2.2,0.2
		c0.3,0,0.6-0.1,0.8-0.2c0.2-0.1,0.4-0.2,0.6-0.3c-0.3,1.2-0.6,2.3-0.9,3.2c-0.3,0.9-0.6,1.7-1.1,2.3c-0.4,0.6-0.9,1.1-1.5,1.5
		s-1.3,0.6-2.2,0.7c-1.8,0.3-3.4,0-4.7-0.9s-2.2-2.3-2.8-4.3c-0.4,0.8-0.9,1.7-1.4,2.5c-0.6,0.8-1.2,1.6-1.9,2.3s-1.6,1.3-2.5,1.8
		s-2,0.8-3.2,1s-2.3,0.2-3.4-0.1c-1.1-0.2-2.2-0.7-3.1-1.4c-1-0.7-1.8-1.7-2.5-3s-1.2-2.9-1.5-4.9c-0.2-1.5-0.3-3.2-0.3-5
		s0.3-3.6,0.6-5.4c0.4-1.8,0.9-3.6,1.6-5.4c0.7-1.7,1.6-3.3,2.7-4.7c1.1-1.4,2.4-2.6,3.9-3.6s3.2-1.6,5.2-1.9
		c1.9-0.3,3.3-0.2,4.3,0.4c1,0.5,1.5,1.3,1.6,2.2l0.1,0.5l0.2-3.7l9.6-1.4L682.9,143.4z M674.3,128c0-0.2-0.1-0.4-0.2-0.7
		c-0.1-0.3-0.3-0.5-0.6-0.8c-0.2-0.2-0.6-0.4-0.9-0.6c-0.4-0.1-0.8-0.2-1.4-0.1c-0.9,0.1-1.8,0.6-2.5,1.3c-0.7,0.7-1.4,1.7-1.9,2.8
		s-1,2.4-1.3,3.7c-0.4,1.4-0.6,2.8-0.8,4.2s-0.3,2.8-0.3,4.1s0.1,2.5,0.2,3.6c0.2,1.3,0.5,2.3,0.8,2.9c0.3,0.7,0.7,1.1,1.1,1.4
		c0.4,0.3,0.8,0.4,1.2,0.4s0.8,0,1.1-0.1c0.5-0.1,1-0.3,1.5-0.6s1-0.8,1.4-1.3c0.4-0.6,0.8-1.2,1.1-2.1c0.3-0.8,0.5-1.7,0.6-2.7
		L674.3,128z"/>
</g>
<g>
	<path fill="#FFFFFF" d="M706.9,150.7l1.3-23.8c0-0.5,0-1.1-0.1-1.7c-0.1-0.4-0.2-0.8-0.3-1.1c-0.1-0.3-0.3-0.6-0.5-0.9
		c-0.2-0.2-0.4-0.4-0.7-0.6c-0.3-0.1-0.6-0.2-1-0.1c-0.7,0.1-1.2,0.4-1.7,0.8s-0.9,0.9-1.3,1.6c-0.4,0.6-0.7,1.4-0.9,2.2
		c-0.2,0.8-0.4,1.7-0.5,2.6l-1.2,22.1l-9.6,1.5l1.9-34.5l9.6-1.5l-0.2,3.6c0.6-0.9,1.2-1.7,1.8-2.3c0.6-0.6,1.3-1.1,1.9-1.5
		c0.7-0.4,1.3-0.7,1.9-0.9c0.6-0.2,1.2-0.3,1.8-0.4c0.9-0.1,1.7-0.2,2.5-0.1s1.5,0.3,2.2,0.7c0.7,0.4,1.2,0.9,1.8,1.5
		c0.5,0.7,1,1.5,1.3,2.5c0.6-1.4,1.3-2.5,2-3.4s1.5-1.6,2.2-2.1s1.5-0.9,2.2-1.1s1.4-0.4,2-0.5c1.1-0.2,2.1-0.2,3,0
		c0.9,0.1,1.8,0.5,2.6,1s1.4,1.2,1.9,2.1s0.9,2,1.1,3.3c0.1,0.9,0.2,1.9,0.2,2.9c0,1.1,0,2.1-0.1,3.3c-0.1,1.1-0.1,2.2-0.3,3.3
		c-0.1,1.1-0.2,2.2-0.3,3.2s-0.1,2-0.2,2.8c0,0.9,0,1.6,0.1,2.2c0.1,0.8,0.4,1.5,0.9,1.9c0.5,0.5,1.2,0.6,2.2,0.5
		c1.1-0.2,1.8-0.4,2.2-0.8c0,1.2-0.1,2.3-0.4,3.3c-0.3,0.9-0.8,1.7-1.3,2.4c-0.6,0.7-1.2,1.2-2,1.6c-0.8,0.4-1.6,0.7-2.5,0.8
		c-1.3,0.2-2.4,0.2-3.3-0.1c-0.9-0.3-1.7-0.7-2.3-1.4c-0.6-0.6-1.1-1.4-1.5-2.2c-0.4-0.9-0.6-1.8-0.8-2.7c-0.2-1.1-0.2-2.5-0.1-4
		c0.1-1.6,0.2-3.2,0.3-4.8s0.2-3.2,0.3-4.8c0.1-1.5,0-2.8-0.1-3.9c-0.4-2.3-1.3-3.3-2.9-3c-0.6,0.1-1.1,0.3-1.6,0.8
		c-0.5,0.4-0.9,0.9-1.2,1.5s-0.6,1.3-0.9,2.1c-0.2,0.8-0.4,1.7-0.5,2.5l-1.2,22.1L706.9,150.7z"/>
</g>
<g>
	<path fill="#FFFFFF" d="M763.3,132c0,2-0.3,3.7-0.9,5c-0.5,1.4-1.3,2.5-2.2,3.4s-1.9,1.6-3.1,2.1c-1.2,0.5-2.5,0.9-3.8,1.1
		c-1.6,0.2-3,0.3-4.3,0.1s-2.5-0.7-3.6-1.4c-1-0.7-1.9-1.7-2.6-2.9c-0.7-1.3-1.2-2.8-1.5-4.7c-0.2-1.3-0.3-2.8-0.3-4.5
		s0.1-3.5,0.4-5.3c0.3-1.8,0.8-3.7,1.4-5.5c0.7-1.8,1.6-3.5,2.7-5.1c1.1-1.5,2.5-2.9,4.1-4c1.7-1.1,3.6-1.8,5.9-2.2
		c1.5-0.2,2.7-0.3,3.8,0c1,0.2,1.8,0.6,2.5,1.1c0.6,0.5,1.1,1.1,1.5,1.9c0.3,0.7,0.6,1.5,0.7,2.3c0.3,1.9,0.2,3.8-0.4,5.6
		c-0.6,1.8-1.5,3.4-2.7,4.9s-2.7,2.7-4.4,3.8c-1.7,1.1-3.6,1.8-5.6,2.3c0,0.4,0,0.7,0.1,1.1s0.1,0.7,0.1,1c0.2,1.1,0.4,1.9,0.8,2.6
		c0.3,0.7,0.7,1.2,1.2,1.6c0.4,0.4,0.9,0.6,1.4,0.7s1.1,0.1,1.7,0c0.7-0.1,1.3-0.3,2-0.6s1.3-0.7,2-1.1c0.6-0.4,1.2-0.9,1.8-1.4
		C762.3,133.2,762.8,132.6,763.3,132z M750.7,126.7c1.3-0.2,2.4-0.8,3.5-1.6c1.1-0.8,2-1.8,2.7-3s1.3-2.4,1.6-3.8s0.4-2.8,0.2-4.2
		c-0.1-0.8-0.4-1.5-0.7-1.9c-0.3-0.5-0.8-0.6-1.4-0.5c-0.8,0.1-1.6,0.7-2.3,1.6c-0.7,1-1.3,2.2-1.8,3.6s-0.9,3-1.2,4.7
		C751,123.3,750.8,125,750.7,126.7z"/>
</g>
<g>
	<path fill="#FFFFFF" d="M784,103.1c0.6,2.9,1.1,5.4,1.6,7.4c0.5,2.1,0.9,3.9,1.2,5.5c0.4,1.5,0.7,2.8,0.9,3.9
		c0.3,1.1,0.5,2,0.7,2.8s0.4,1.6,0.5,2.3c0.1,0.7,0.3,1.4,0.4,2.1c0.2,1.5,0.2,2.8,0,4s-0.6,2.3-1.2,3.2c-0.5,1-1.2,1.8-2,2.5
		s-1.7,1.4-2.6,1.9c-0.9,0.5-1.9,1-2.9,1.3s-1.9,0.6-2.9,0.7c-1.7,0.3-3.2,0.2-4.5-0.1s-2.4-0.8-3.4-1.5c-0.9-0.7-1.7-1.5-2.2-2.5
		c-0.5-0.9-0.9-1.9-1.1-3c-0.1-0.8-0.1-1.5,0-2.2s0.3-1.3,0.5-1.9c0.2-0.6,0.5-1.1,0.9-1.5c0.4-0.4,0.8-0.8,1.2-1.1
		c1.3-3.6,2.4-7.2,3.2-10.7s1.4-6.9,1.9-10.4L784,103.1z M770,131.9c0.2,1.6,0.7,2.7,1.5,3.4c0.7,0.7,1.8,0.9,3.3,0.7
		c0.7-0.1,1.4-0.3,2.1-0.6c0.7-0.3,1.2-0.8,1.7-1.3c0.5-0.6,0.8-1.3,1-2.1s0.2-1.8,0-3c-0.1-0.6-0.2-1.1-0.3-1.6s-0.2-1.1-0.4-1.7
		c-0.1-0.6-0.3-1.2-0.5-2c-0.2-0.7-0.4-1.6-0.7-2.5c-0.3-1-0.5-2.1-0.8-3.3c-0.3-1.3-0.7-2.7-1.1-4.4c-0.3,2.3-0.8,4.5-1.4,6.7
		c-0.6,2.2-1.3,4.4-2,6.8c0.5,0.2,0.9,0.4,1.2,0.7c0.4,0.3,0.6,0.8,0.7,1.3c0.1,0.4,0.1,0.8,0,1.2s-0.2,0.8-0.4,1.2
		s-0.5,0.7-0.8,0.9s-0.7,0.4-1.2,0.5c-0.4,0.1-0.7,0.1-1.1,0C770.5,132.4,770.2,132.2,770,131.9z"/>
</g>
<g>
	<path fill="#FFFFFF" d="M834.2,120.9c0.8,1.5,1.3,2.8,1.5,4s0.1,2.4-0.2,3.4c-0.3,1.1-0.9,2-1.6,2.8s-1.6,1.5-2.6,2.1
		s-2.1,0.9-3.3,1.1c-1.1,0.2-2.2,0.2-3.3,0.1c-1.1-0.1-2.3-0.3-3.5-0.4c-1.2-0.2-2.4-0.3-3.6-0.4c-1.2-0.1-2.5-0.1-3.7,0.1
		c-1.2,0.2-2.3,0.5-3.5,1s-2.4,1.2-3.6,2.1h-0.3c-0.4-1-0.7-2-0.9-3.1c-0.2-1.6-0.1-3.1,0.3-4.7c0.4-1.6,1-3.1,1.9-4.6
		c0.8-1.5,1.8-3.1,3-4.6c1.1-1.5,2.3-3.1,3.5-4.7s2.3-3.1,3.4-4.7c1.1-1.6,2.1-3.2,2.9-4.9c0.8-1.6,1.4-3.3,1.8-5
		c0.4-1.7,0.4-3.5,0.2-5.3c-0.2-1.2-0.4-2.3-0.8-3.3c-0.3-1-0.8-1.8-1.3-2.5s-1.1-1.2-1.8-1.5s-1.5-0.4-2.3-0.3s-1.5,0.4-2.1,0.8
		s-1.1,0.9-1.5,1.4c-0.4,0.6-0.7,1.2-0.8,1.9c-0.2,0.7-0.2,1.4-0.1,2.2c0.2,1.6,0.8,3,1.6,4s1.7,1.8,2.6,2.1v0.3
		c-0.7,0.8-1.4,1.5-2.2,2s-1.7,0.9-2.5,1c-0.7,0.1-1.3,0-1.9-0.2s-1.2-0.6-1.7-1.1s-1-1.2-1.4-2s-0.7-1.8-0.8-2.9
		c-0.2-1.3-0.1-2.7,0.3-4.2c0.4-1.5,1.1-2.8,2.1-4.1c1-1.3,2.3-2.4,4-3.3c1.6-1,3.6-1.6,5.9-2c1.9-0.3,3.7-0.3,5.3,0
		c1.7,0.3,3.2,0.9,4.5,1.8s2.4,2,3.3,3.4c0.9,1.4,1.5,3.1,1.7,5c0.2,1.6,0.2,3.2-0.1,4.6c-0.3,1.5-0.9,2.9-1.6,4.3
		c-0.8,1.4-1.7,2.8-2.7,4.1c-1.1,1.3-2.2,2.7-3.4,4s-2.4,2.6-3.6,3.8c-1.2,1.3-2.4,2.5-3.5,3.8s-2.1,2.6-3,3.9s-1.6,2.6-2,4
		c0.7-0.3,1.4-0.5,2-0.7s1.3-0.3,2-0.4c1.1-0.2,2.2-0.3,3.2-0.3s2,0,3,0.1s1.9,0.1,2.7,0.1c0.9,0,1.7,0,2.4-0.1
		c1.1-0.2,2.2-0.6,3.1-1.2c1-0.6,1.9-1.7,2.9-3.2L834.2,120.9z"/>
</g>
<g>
	<path fill="#FFFFFF" d="M855.7,131.1c-2.6,0.4-4.9,0.3-6.7-0.4c-1.9-0.6-3.4-1.6-4.7-3c-1.2-1.4-2.2-3-2.9-5s-1.2-4.1-1.6-6.5
		c-0.4-3.1-0.6-6.1-0.6-9.1c0.1-3,0.4-5.8,1-8.5s1.4-5.2,2.4-7.5s2.3-4.4,3.8-6.1c1.5-1.8,3.1-3.2,5-4.4c1.9-1.1,4-1.9,6.2-2.2
		c2.2-0.3,4.2-0.2,5.9,0.3s3.2,1.4,4.5,2.7c1.3,1.3,2.3,2.8,3.1,4.7c0.8,1.9,1.4,4.1,1.7,6.5c0.2,1.6,0.4,3.4,0.5,5.3s0.1,3.8,0,5.8
		s-0.3,4-0.7,6.1c-0.3,2-0.8,4-1.4,5.9c-0.6,1.9-1.4,3.7-2.3,5.4c-0.9,1.7-2,3.2-3.3,4.6c-1.3,1.3-2.7,2.5-4.4,3.4
		C859.6,130.2,857.7,130.8,855.7,131.1z M858.1,82.6c-1.1,0.2-2.1,0.8-3,1.8c-0.9,1.1-1.7,2.4-2.4,4.1s-1.3,3.6-1.8,5.8
		c-0.5,2.2-0.9,4.5-1.1,7c-0.2,2.5-0.3,5-0.3,7.6s0.2,5.1,0.6,7.6c0.2,1.3,0.4,2.5,0.7,3.7s0.7,2.2,1.1,3.1c0.4,0.9,1,1.6,1.6,2.1
		s1.4,0.7,2.3,0.5c1.1-0.2,2.1-0.7,3-1.8c0.9-1,1.7-2.4,2.4-4c0.7-1.7,1.3-3.6,1.7-5.8c0.5-2.2,0.8-4.5,1-7s0.2-5,0.2-7.7
		c-0.1-2.6-0.3-5.3-0.7-7.9c-0.2-1.3-0.4-2.5-0.8-3.7c-0.3-1.2-0.7-2.2-1.1-3c-0.4-0.9-0.9-1.5-1.5-2
		C859.4,82.7,858.8,82.5,858.1,82.6z"/>
</g>
<g>
	<path fill="#FFFFFF" d="M879.6,128l3.4-42.9l-6.3,0.8l0.4-3.2c0.9-0.1,1.9-0.3,3.1-0.5c1.1-0.2,2.4-0.6,3.7-1.2
		c1.3-0.5,2.8-1.3,4.4-2.2c1.6-0.9,3.3-2.1,5.2-3.6l-4.2,51.5L879.6,128z"/>
</g>
<g>
	<path fill="#333333" d="M1037.4,28.3c2.5-6.6-0.1-13.1-2.2-10.8c0,0.6,0,2.5-0.1,2.8c0-0.3,0.1-2.2,0.1-2.8v-0.1
		c-0.2-6.4-3.1-9.2-3.6-6.3c0.1,0.4,0.1,0.4,0,0c-0.6-3.5-2.2-5.6-3.5-5.1c-1.3,0.6,0,6.5-1.8,13.9l0,0c-0.8-2.5-2.4-4-3.4-2.8
		c-1.3-4.2-3.7-5.6-4.2-3.8c-1.2-2.4-3.1-3.6-4.1-3.1c-0.6,0.3-0.1,1.2,0.4,2.8c1.1,3.2,3,8.8,1.9,15.8c-0.4-0.1-0.9-0.2-1.3-0.3
		l-0.1-0.1l0,0c-5-6.6-11.8-5.2-15.4-1.3c-2.4,2.5-2.9,6.5-2.1,9.3c0,0.2,0.1,0.3,0.1,0.4c0.2,0.4,0.4,0.8,0.6,1.1l0,0l0,0l0,0
		c0.1,0.2,0.2,0.4,0.4,0.6c0.5,0.9,1,1.5,1.6,2.1c2.7,2,5.2,1.3,6.7,1.1c4.6-0.7,6.4-3.1,6.6-5.3l0,0c0-0.1,0-0.2,0.1-0.3
		c0.6-0.6,2-0.9,3.3-0.9l0,0c0.1-0.3,0.3-0.6,0.5-0.9l0,0l0,0c2.2-2.5,5.6-5.1,7.6-9.4c0.1-0.2,0.1-0.3,0.2-0.5
		c1.1-2.5,1.6-4.5,2-6.4c0.9-2.7,3.9-0.3,3.5,2.5l0,0l0,0c1.4-2,3.7-0.1,3.2,3.3l0,0c0,0.2-0.1,0.5-0.1,0.7l0,0
		c0.2-0.8,0.4-1.6,0.6-2.4c-0.1,0.8-0.3,1.6-0.6,2.4c1.4-2.6,4,0.6,1.7,6.5l0,0v0.1c0.5-0.4,1.6-0.7,2-0.1c0.7,0.9,0.6,3.4-0.9,5.9
		c0,0.1-0.1,0.2-0.1,0.2c-0.7,1.1-1.8,2.2-3.1,3.1c0.4-0.1,0.7-0.3,0.9-0.5c0.6-0.4,0.9-0.6,1.3-1
		C1041.4,34.1,1040.2,25.2,1037.4,28.3z M1023.9,26.6c-0.1,0.1-0.1,0.3-0.2,0.4c-0.6,1.2-1.4,2.4-2.3,3.6c0,0,0,0,0,0.1l0,0
		c-0.5-0.2-0.9-0.4-1.4-0.6c-0.9-0.4-1.8-0.7-2.7-1l0,0c0.2-1.4,0.4-2.6,0.5-3.6c0.2-1.6,0.2-2.9,0-4.5v-0.1
		c-0.1-2.7,2.3-2.8,3.2,1.2l0,0V22c0.2-2.2,2.3-2,3.1,0.9l0,0c0.3-1.2,1.3-0.6,1.5-0.1C1025.6,22.7,1024.6,25.3,1023.9,26.6z"/>
	<g>
		<path fill="#666666" d="M1038.1,31.2c-0.5-0.6-1.3-0.5-1.8-0.1c-0.1,0.1-0.1,0.1-0.2,0.2c-0.3,0.6-0.7,1.2-1.1,1.8
			c0.9-0.9,4,0.8,2.2,3.9C1038.7,34.6,1038.8,32.1,1038.1,31.2z"/>
		<path fill="#666666" d="M1034.9,33.1c0.4-0.6,0.8-1.2,1.1-1.8l0,0l0,0c2.3-5.9-0.3-9.1-1.7-6.5c0,0-0.2,0.7,0,0
			c0.1-0.3,0.1-0.5,0.1-0.7c0.5-3.4-1.8-5.3-3.2-3.3l0,0c-0.5,1.9-1.2,4-2.3,6c0,0,0,0,0,0.1c1.4-1.7,4.4-1,3.1,3
			c0.2-0.3,0.2-0.3,0,0C1033.4,28.1,1036.5,29.6,1034.9,33.1L1034.9,33.1z"/>
		<path fill="#666666" d="M1029,26.7c1.1-2.1,1.8-4.1,2.3-6l0,0c0.4-2.9-2.7-5.2-3.6-2.5c-0.4,1.8-0.9,3.9-2,6.4l0,0
			C1027.1,22.5,1029.8,23.7,1029,26.7z"/>
	</g>
	<path fill="#666666" d="M1025.6,22.7c-0.2-0.5-1.2-1.2-1.5,0l0,0c-0.7-2.8-2.8-2.9-3.1-1c-1-3.8-3.3-3.7-3.2-1.1v0.2
		c0.3,1.7,0.3,2.9,0.1,4.6l3.1,1.4c0.6-1.3,2.2-1.5,2.8,0.2c0.1-0.1,0.3-0.5,0.4-0.6C1024,26.4,1025.1,23.9,1025.6,22.7z"/>
	<path fill="#333333" d="M1023.7,56.7c1-0.2,2-0.5,3-0.8h0.1c-0.8,0.4-0.1,1.8,0.6,2c-0.8,0.4-1.4,0.2-1.8-0.6
		c-0.1,0.9,0.4,1.3,0.9,1.6c-1.2,0.6-2.1-0.6-2.2-1.3c-0.2,0.2,0,1,0.3,1.3C1023.8,59,1023,57.4,1023.7,56.7L1023.7,56.7z"/>
	<path fill="#333333" d="M1027.4,55.7c1.1-0.4,2.1-0.8,3.1-1.3l0.1,0.1c0.3,0.9,1.1,1,1.7,0.9c-0.5,0.9-2.1,1-2.7,0.5
		c0.1,0.3,0.8,0.9,1.5,0.9c-0.7,1-1.5,0.9-2,0.6C1028.7,57.7,1027.3,57.1,1027.4,55.7"/>
	<path fill="#333333" d="M999.1,38.6c0.5,0.9,1,1.6,1.6,2.1c-1-0.4-4.3-0.1-6.1-0.4C996.2,39.9,997.8,39.1,999.1,38.6L999.1,38.6z"
		/>
	<path fill="#666666" d="M994.5,40.3c0.6-0.9,2.5-3.2,3.4-3.9h0.1c0,0.2,0.1,0.3,0.1,0.4c0.2,0.4,0.4,0.8,0.6,1.1
		c0.1,0.2,0.2,0.4,0.4,0.6l0,0C997.8,39.1,996.2,39.9,994.5,40.3"/>
	<path fill="#989898" d="M1020.9,26.8c0,0-1.3-3.3-3.1-1.4c0,0-0.3,2.2-0.5,3.6c0.9,0.3,1.8,0.6,2.7,1c0.1-0.1,0.1-0.1,0,0
		c0.5,0.2,0.9,0.4,1.4,0.6l0,0c0,0,0,0,0.1-0.1c0.9-1.2,1.6-2.4,2.3-3.6C1023.1,25.3,1021.7,25.3,1020.9,26.8z"/>
	<path fill="#989898" d="M1035,32.8c1.3-3.3-1.6-4.6-3-3c-0.2,0.3-0.4,0.7-0.6,1c0.2-0.3,0.4-0.7,0.6-1c1.3-4-1.6-4.6-3.1-3
		c0,0,0.4-1.2,0-2.2c0,0-1.4-2.5-3.3-0.1l-0.1,0.1c-0.1,0.2-0.1,0.3-0.1,0.4c-2.1,4.4-5.5,7-7.6,9.5l0,0c-0.2,0.3-0.4,0.6-0.5,0.9
		l0,0l0,0c1.5,0,2.9,0.5,4.4,1.2v-0.1v0.1c1,0.5,2.1,1.1,3.2,1.6v-0.1l0,0v0.1c1.1,0.6,2.1,1.1,3.3,1.5l0,0c1.6,0.6,3.3,0.9,5.1,0.8
		c0.2-0.1,0.3-0.1,0.5-0.2c1.4-0.9,2.4-2,3.1-3.1c0.1-0.1,0.1-0.2,0.2-0.2C1038.4,35.2,1037.6,32.1,1035,32.8z M1028.3,39.7
		L1028.3,39.7L1028.3,39.7L1028.3,39.7z"/>
	<g>
		<path fill="#D8C824" d="M1008.6,41.6c-0.1,0-0.3,0.1-0.4,0.1C1008.3,41.6,1008.4,41.6,1008.6,41.6z"/>
		<path fill="#D8C824" d="M1042.6,43.1c0-0.4-0.2-0.8-0.3-1.1c-0.1-0.2-0.2-0.3-0.3-0.4c-0.4-0.5-0.8-0.8-1.2-0.9
			c-0.4-0.2-0.9-0.3-1.3-0.5l0,0c-1.4-0.5-2.6-1-3.3-1.3l0,0c-0.4,0.4-1,0.8-1.5,1.1c11.5,2.9,2.9,11.7-8.5,15.5l0,0
			c-0.3,0.1-0.6,0.1-0.9,0.2c-0.3,0.1-0.7,0.2-1,0.2h-0.1c-0.6,0.1-1.1,0.2-1.6,0.2c-7.8,0.8-12.1-3.6-14.1-7.8
			c-1.2-2.6-1.9-5.4-1.1-6.6c0.2,0,0.4-0.1,0.6-0.1c-1.9,0.3-4.8,0.2-7.4-1c1.1,1.2,2.8,1.9,3.9,2.6c2.8,2,2.2,7.9,9,11.9
			c3.3,1.9,6.7,2.2,10.2,1.6c1-0.2,2-0.5,3-0.8c0.2-0.1,0.5-0.2,0.7-0.2c1.1-0.4,2.1-0.8,3.1-1.3c3.3-1.6,6-3.5,7.5-4.6l0,0
			c0.6-0.5,1-0.8,1.2-1c0.4-0.4,0.8-0.8,1.2-1.1c0.8-0.9,1.4-1.7,1.7-2.4c0.1-0.2,0.1-0.3,0.2-0.4c0.2-0.5,0.2-0.9,0.2-1.3
			C1042.6,43.4,1042.6,43.2,1042.6,43.1z"/>
	</g>
	<path fill="#333333" d="M1056.3,46c1-1.7,0.1-2.8-1.7-3.1l0,0l0,0c0.4-0.5,1.1-1.9-1.6-2l0,0l0,0l0,0c1.4-1.2-1.2-1.8-3.3-1.4
		c0.3,0,0.5,0,0.8,0c-0.3,0-0.5,0-0.8,0c-0.1,0-0.3,0-0.4,0.1c-2,0.4-6.4,1.4-9.9,0.6c0.4,0.2,0.9,0.3,1.3,0.5
		c0.3,0.1,0.8,0.4,1.2,0.9l0,0l0,0c0.4,0.6,0.6,1.1,0.6,1.5l0,0l0,0c0,0.1-0.1,1.1-0.2,1.7c-0.1,0.6-1,2-1.8,2.9l0,0
		c-0.3,0.4-0.7,0.7-1.2,1.1c-0.2,0.2-0.6,0.5-1.2,1c0.2-0.1,0.3-0.2,0.5-0.3c2.6-1.8,4.6-1.8,6.5-1.8c2.9,0,8.5,1.5,11,0.6
		C1057.2,47.9,1057.7,46.5,1056.3,46z"/>
	<path fill="#CBCBCB" d="M1033.4,40.6c-1.9,0.1-3.6-0.2-5.1-0.8c-1.1-0.4-2.2-0.9-3.3-1.5c-1.1-0.6-2.1-1.2-3.2-1.6
		c-1.5-0.7-2.9-1.2-4.4-1.2c0.3-0.6,0.1-0.5,1-1.5c2-1.2,4.8,0.3,7.4,2.2c2.7,2,7.7,4.5,9.6,3.1C1034.6,39.9,1034,40.4,1033.4,40.6"
		/>
	<path fill="#1A1A1A" d="M1007.3,32.9c0.4,1.1,0,2.3-1.1,2.7s-2.3,0-2.7-1.1s0-2.3,1.1-2.7C1005.6,31.3,1006.9,31.8,1007.3,32.9"/>
	<path fill="none" stroke="#FFFFFF" stroke-width="0.147" d="M1007.3,32.9c0.4,1.1,0,2.3-1.1,2.7s-2.3,0-2.7-1.1s0-2.3,1.1-2.7
		C1005.6,31.3,1006.9,31.8,1007.3,32.9z"/>
	<path fill="#FFFFFF" d="M1003.8,33.9c-0.1-0.4,0-0.9,0.2-1.2c0.3-0.5,1.8-0.8,1.7,0.2c0,0.4-0.2,0.4-0.5,0.6
		c-0.3,0.3-0.3,0.6-0.7,0.8C1004.2,34.4,1003.9,34.2,1003.8,33.9"/>
	<path fill="#FFFFFF" d="M997.7,37.1c0.4,0.5-1.2,1.8-1.9,2.2C996.6,38.3,997.4,37.4,997.7,37.1"/>
	<path fill="#E5D351" d="M1034.6,40c-1.2,0.9-4.8,0.4-6.4-0.2c-1.1-0.4-2.2-0.9-3.3-1.5c-1.1-0.6-2.1-1.2-3.2-1.6
		c-1.5-0.7-2.9-1.2-4.4-1.2l0,0c-1.3,0-2.7,0.3-3.3,0.9c0,0.1,0,0.2-0.1,0.3c-0.1,2.2-1.9,4.6-6.6,5.3c-0.8,1.2-0.1,4,1.1,6.6
		c2.2,4.8,7.5,9.8,17.6,7.1l0,0C1037.5,51.6,1046.2,42.9,1034.6,40z"/>
</g>
<g>
	<path fill="#FFFFFF" d="M904.8,123c-1.3-1.5-1.9-3.6-1.9-6.1c0-2.8,0.7-5.6,2.1-8.5c1.4-2.9,3-5.6,4.8-8.1s4.2-5.4,7.1-8.8
		c2.3-2.8,4-4.9,5-6.2c1-1.4,1.5-2.5,1.5-3.4c-0.8,0.2-1.6,0.4-2.4,0.6c-0.8,0.2-1.5,0.3-2.2,0.3c-1.2,0-2.7-0.3-4.4-0.8
		c-0.2,0-0.8-0.2-1.8-0.4c-1-0.2-2-0.3-3-0.3c-1.3,0-2.5,0.3-3.6,0.8c-1.1,0.6-2.1,1.5-3.2,2.8l-0.2-0.1c-0.6-1.3-0.9-2.8-0.9-4.2
		c0-2.5,0.9-4.4,2.6-5.9c1.8-1.5,4.1-2.2,6.9-2.2c1,0,2,0.1,2.9,0.2c0.9,0.2,2,0.4,3.3,0.8c1.5,0.4,2.7,0.7,3.8,0.9
		c1,0.2,2.1,0.3,3.3,0.3c2.6,0,5.7-0.5,9.4-1.5l0.1,0.3c0,1.1-0.5,2.6-1.6,4.5s-2.8,4.7-5.2,8.4c-2.8,4.3-5.1,8-6.9,11.1
		c-1.8,3.1-3.4,6.3-4.7,9.8s-2,6.6-2,9.6c0,2.4,0.4,4.8,1.3,7.2c-1.6,0.9-3.2,1.3-4.9,1.3C907.7,125.3,906,124.5,904.8,123z"/>
</g>
</svg>
