<?xml version="1.0" encoding="utf-8"?>
<svg version="1.1" id="Layer_1" xmlns="http://www.w3.org/2000/svg" xmlns:xlink="http://www.w3.org/1999/xlink" x="0px" y="0px"
	 viewBox="0 0 778 186" enable-background="new 0 0 778 186" xml:space="preserve">
<path fill="#FFFFFF" d="M252.8,162.7c0.1-1.7,0.1-3.3-0.1-4.9c-1.1-11.9-2.4-15.9-11-24c-4.8-4.5-11-9.9-16.9-11.1
	c-3-0.6-13.2-1.4-15.6,2.9c-0.4-3.6-1.9-7.3-4.6-9.8c-3-2.9-7.7-5-11.9-4.7c-0.4,0-3.4,0.2-3.5,0.6c2-6.7,0.4-14.2-4.1-19.6
	c-4.4-5.3-11.6-8.3-18.5-7.6c-1.1,0.1-2.2,0.3-3.2-0.2c-1.3-0.6-1.9-2.2-2.4-3.6c-3.1-7.9-10.6-14-19-15.3s-17.4,2.2-22.7,8.8
	c-10.8-6.7-26.6-3.1-33.4,7.6c-6.6-1.9-14-0.5-19.4,3.6s-8.8,10.9-8.7,17.7c-16.1,2.5-29.2,17.7-29.3,33.9
	c-14.2,0.8-26.8,13-28.1,27.1c-0.7,7.4,2.1,15.7,8.6,19.4c4.3,2.4,9.5,2.5,14.4,2.5c65.7-0.1,131.4-0.1,197.1-0.2
	c8.9,0,18.7-0.3,25.3-6.3C250.3,175.3,252.5,169.1,252.8,162.7"/>
<path fill="#FFFFFF" d="M777.8,97.7c0.1-1.7,0.1-3.3-0.1-4.9c-1.1-11.9-2.4-15.9-11-24c-4.8-4.5-11-9.9-16.9-11.1
	c-3-0.6-13.2-1.4-15.6,2.9c-0.4-3.6-1.9-7.3-4.5-9.8c-3-2.9-7.7-5-11.9-4.7c-0.4,0-3.4,0.2-3.5,0.6c2-6.7,0.4-14.2-4.1-19.6
	c-4.4-5.3-11.6-8.3-18.5-7.6c-1.1,0.1-2.2,0.3-3.2-0.2c-1.3-0.6-1.9-2.2-2.4-3.6c-3.1-7.9-10.6-14-19-15.3s-17.4,2.2-22.7,8.8
	c-10.8-6.7-26.6-3.1-33.4,7.6c-6.6-1.9-14-0.5-19.4,3.6s-8.8,10.9-8.7,17.7c-16.1,2.5-29.2,17.7-29.3,33.9
	c-14.2,0.8-26.8,13-28.1,27.1c-0.7,7.4,2.1,15.7,8.6,19.4c4.3,2.4,9.5,2.5,14.4,2.5c65.7-0.1,131.4-0.1,197.1-0.2
	c8.9,0,18.7-0.3,25.3-6.3C775.3,110.3,777.5,104,777.8,97.7"/>
<path fill="#DD7537" d="M515.2,57v82.7c36.4,2.7,89,25,89,25L579,114.4l21.6-32.1C600.6,82.4,548.6,58.9,515.2,57"/>
<path fill="#BE7345" d="M545.8,124.2c-10.2,0.1-19.9-0.2-30.6,0.9v5.8C526.4,126.3,539.2,124.7,545.8,124.2 M550.4,124L550.4,124
	C550.4,124,550.5,124,550.4,124L550.4,124z"/>
<path fill="#DD7537" d="M243.7,154.6V67.3C209.8,64.8,155.2,42,155.2,42l25.3,47.1l-25.4,34.5C155.1,123.6,207.2,149.7,243.7,154.6"
	/>
<path fill="#BE7345" d="M243.7,75.8c-0.7,0.4-2.3,1.4-2.4,1.3c-5,2.5-10.4,3.7-13.8,4.3c5.4-0.1,10.8,0.3,16.2-0.3V75.8z"/>
<path fill="#EC9059" d="M545.8,124.2c-55.7-0.1-111.4,10.9-167.1,22s-111.4,22.1-167.1,22c5.3-28.9,10.6-57.8,15.9-86.6
	c100.8-0.3,201.6-41.1,302.4-41.4C535.2,68.1,540.5,96.2,545.8,124.2"/>
<g>
	<g>
		<path fill="#FFFFFF" d="M238.5,138.7l4.7-26.3l6-1l-1.6,9.2h0.2c0.8,0,1.6-0.3,2.3-0.7c0.7-0.4,1.3-1,1.8-1.6
			c0.5-0.7,0.9-1.4,1.2-2.2c0.3-0.8,0.4-1.6,0.4-2.4c0-0.6-0.1-1.1-0.4-1.6c-0.2-0.5-0.5-1-1-1.4c-0.4-0.4-1-0.7-1.7-0.9
			c-0.7-0.2-1.5-0.3-2.5-0.3c-0.8,0-1.6,0.1-2.4,0.4c-0.8,0.2-1.6,0.5-2.3,0.9s-1.4,0.9-2.1,1.4c-0.6,0.6-1.2,1.2-1.7,2
			s-0.8,1.6-1.1,2.5s-0.4,2-0.3,3.1c0,0.5,0.1,0.9,0.1,1.3c0.1,0.3,0.1,0.6,0.2,0.8c0.1,0.2,0.2,0.3,0.2,0.4
			c0.1,0.1,0.1,0.2,0.1,0.3c-1.4,0-2.5-0.2-3.3-0.7s-1.2-1.5-1.3-2.9c0-0.9,0.1-1.9,0.5-2.8c0.3-0.9,0.8-1.8,1.5-2.6
			c0.6-0.8,1.4-1.6,2.3-2.3c0.9-0.7,1.9-1.3,3-1.9c1.1-0.5,2.2-1,3.5-1.3c1.2-0.3,2.5-0.5,3.8-0.5c1.5-0.1,2.8,0.1,3.9,0.4
			c1.1,0.3,2,0.8,2.8,1.4c0.7,0.6,1.3,1.3,1.7,2c0.4,0.8,0.6,1.6,0.6,2.4c0,0.6,0,1.2-0.2,1.8c-0.2,0.6-0.4,1.2-0.7,1.8
			c-0.3,0.6-0.7,1.1-1.2,1.6s-1.1,1-1.7,1.4c0.9,0.1,1.6,0.4,2.3,0.8c0.6,0.4,1.1,0.9,1.6,1.5c0.4,0.6,0.7,1.2,0.9,1.9
			c0.2,0.7,0.3,1.5,0.3,2.2s0,1.4-0.1,2.2s-0.3,1.7-0.5,2.6c-0.3,0.9-0.6,1.8-1,2.6c-0.4,0.9-1,1.6-1.6,2.3s-1.4,1.2-2.3,1.7
			c-0.9,0.4-1.9,0.7-3,0.7c-0.4,0-0.9,0-1.4-0.1s-0.9-0.2-1.3-0.4c-0.4-0.2-0.7-0.5-1-0.9s-0.4-0.9-0.4-1.5c0-0.3,0-0.7,0.1-1.1
			c0.1-0.4,0.2-0.8,0.4-1.3c0.5,0.5,1,0.9,1.5,1.1c0.4,0.2,0.9,0.3,1.4,0.3c0.7,0,1.4-0.3,1.9-0.8s0.9-1.1,1.2-1.8s0.5-1.5,0.6-2.4
			s0.2-1.7,0.1-2.5c0-0.7-0.1-1.4-0.3-2c-0.1-0.6-0.4-1.2-0.7-1.6c-0.3-0.5-0.7-0.8-1.2-1.1c-0.5-0.3-1.1-0.4-1.9-0.4
			c-0.2,0-0.4,0-0.8,0c-0.3,0-0.7,0.1-1.1,0.2l-2.8,15.8L238.5,138.7z"/>
	</g>
	<g>
		<path fill="#FFFFFF" d="M277.8,128.7c0,0.2-0.1,0.5-0.1,0.7s0,0.4,0,0.7c0.1,0.6,0.3,0.9,0.6,1.1c0.3,0.2,0.7,0.2,1.3,0.2
			c0.2,0,0.3-0.1,0.5-0.1c0.1,0,0.3-0.1,0.4-0.2c-0.2,0.7-0.4,1.4-0.6,1.9s-0.4,1-0.7,1.4c-0.3,0.4-0.6,0.7-0.9,0.9
			c-0.4,0.2-0.8,0.4-1.3,0.4c-1.1,0.1-2.1-0.1-2.8-0.6s-1.3-1.4-1.6-2.6c-0.2,0.5-0.5,1-0.9,1.5c-0.3,0.5-0.7,1-1.2,1.4
			s-1,0.8-1.6,1.1s-1.2,0.5-1.9,0.6c-0.7,0.1-1.4,0.1-2.1-0.1c-0.7-0.1-1.3-0.4-1.9-0.9s-1.1-1.1-1.5-1.9c-0.4-0.8-0.7-1.8-0.8-3
			c-0.1-0.9-0.1-1.9-0.1-3c0.1-1.1,0.2-2.2,0.5-3.3c0.3-1.1,0.6-2.2,1.1-3.2s1-2,1.7-2.8s1.5-1.5,2.4-2.1s2-0.9,3.2-1.1
			c1.2-0.1,2-0.1,2.6,0.3c0.6,0.3,0.9,0.8,1,1.4v0.3l0.2-2.2l5.9-0.7L277.8,128.7z M272.8,119.2c0-0.1-0.1-0.3-0.1-0.4
			c-0.1-0.2-0.2-0.3-0.3-0.5c-0.1-0.1-0.3-0.3-0.6-0.4c-0.2-0.1-0.5-0.1-0.8-0.1c-0.6,0.1-1.1,0.3-1.5,0.8c-0.5,0.4-0.9,1-1.2,1.7
			c-0.3,0.7-0.6,1.4-0.9,2.2s-0.4,1.7-0.5,2.5c-0.1,0.9-0.2,1.7-0.2,2.5c0,0.8,0,1.5,0.1,2.2c0.1,0.8,0.2,1.4,0.4,1.8
			c0.2,0.4,0.4,0.7,0.6,0.9s0.5,0.3,0.7,0.3s0.5,0,0.6,0c0.3,0,0.6-0.2,0.9-0.3c0.3-0.2,0.6-0.5,0.9-0.8s0.5-0.7,0.7-1.2
			s0.3-1,0.4-1.6L272.8,119.2z"/>
	</g>
	<g>
		<path fill="#FFFFFF" d="M283.3,106.2l5.8-1.9l-0.3,9.4c0.4-0.3,0.7-0.6,1-0.8c0.3-0.2,0.6-0.4,0.8-0.5c0.2-0.1,0.5-0.2,0.7-0.3
			c0.2-0.1,0.4-0.1,0.6-0.1c0.7-0.1,1.4-0.1,2,0s1.2,0.4,1.7,0.9s1,1.1,1.4,2c0.4,0.8,0.7,1.9,0.9,3.2c0.1,0.8,0.2,1.7,0.2,2.7
			s0,2-0.2,3.1s-0.4,2.1-0.8,3.2s-0.9,2-1.6,2.9c-0.7,0.9-1.5,1.7-2.6,2.3c-1,0.6-2.3,1.1-3.7,1.4c-1.9,0.3-3.4,0.1-4.5-0.6
			c-1.1-0.7-1.8-1.9-2.1-3.6c-0.1-0.4-0.1-0.8-0.1-1.2c0-0.4,0-0.8,0-1.2L283.3,106.2z M288.3,127c0,0.4,0,0.7,0,0.9
			c0.2,1.2,1,1.7,2.5,1.5c0.4-0.1,0.8-0.3,1.2-0.7c0.4-0.4,0.7-0.8,0.9-1.4c0.3-0.6,0.5-1.2,0.6-1.9s0.3-1.5,0.4-2.2
			s0.1-1.5,0.1-2.3s-0.1-1.5-0.2-2.2c-0.1-0.5-0.2-1-0.4-1.4c-0.2-0.5-0.4-0.8-0.6-1.2s-0.5-0.6-0.8-0.8c-0.3-0.2-0.6-0.2-1-0.2
			c-0.1,0-0.3,0.1-0.5,0.1c-0.2,0.1-0.4,0.1-0.7,0.2c-0.2,0.1-0.4,0.2-0.6,0.3c-0.2,0.1-0.3,0.3-0.4,0.4L288.3,127z"/>
	</g>
	<g>
		<path fill="#FFFFFF" d="M310.6,127.1c-0.3,0.6-0.7,1.1-1,1.5c-0.4,0.4-0.7,0.7-1.1,1s-0.8,0.5-1.1,0.6s-0.7,0.3-1.1,0.3
			c-0.6,0.1-1.2,0.2-1.7,0.1c-0.6-0.1-1.1-0.3-1.5-0.6c-0.5-0.3-0.9-0.7-1.2-1.3c-0.4-0.6-0.6-1.3-0.8-2.1c-0.1-0.4-0.1-0.8-0.2-1.2
			c0-0.4-0.1-0.9-0.1-1.5v-13.4l5.8-1.2v14.2c0,0.4,0,0.7,0.1,1c0.1,0.2,0.1,0.5,0.2,0.7s0.2,0.4,0.3,0.5c0.1,0.1,0.3,0.2,0.4,0.3
			s0.4,0.1,0.6,0c0.4-0.1,0.7-0.2,1-0.5c0.3-0.2,0.5-0.6,0.7-0.9c0.2-0.4,0.4-0.8,0.5-1.3s0.2-1,0.2-1.5v-13.4l5.8-1.2l0.1,24.3
			c0,1.5-0.2,2.7-0.5,3.8s-0.8,1.8-1.4,2.5c-0.6,0.6-1.2,1.1-1.9,1.5c-0.7,0.3-1.4,0.6-2,0.7c-0.6,0.1-1.2,0.1-1.8,0.1
			c-0.6-0.1-1.2-0.3-1.7-0.6s-1-0.7-1.3-1.1s-0.6-1-0.8-1.7c-0.2-0.9-0.2-1.8,0-2.5s0.6-1.4,1.1-1.9c0.5-0.6,1.2-1.1,2-1.6
			s1.6-1,2.5-1.5L310.6,127.1z M310.5,130.3c-0.6,0.3-1.1,0.7-1.6,1.1c-0.5,0.4-0.9,0.8-1.2,1.2c-0.3,0.4-0.6,0.9-0.7,1.3
			c-0.1,0.5-0.1,1,0,1.5c0,0.2,0.1,0.3,0.2,0.4c0.1,0.1,0.3,0.3,0.4,0.3c0.2,0.1,0.4,0.2,0.6,0.2s0.4,0,0.7,0c0.2,0,0.4-0.1,0.6-0.3
			c0.2-0.1,0.4-0.4,0.6-0.7s0.3-0.7,0.4-1.1c0.1-0.4,0.1-1,0.1-1.6L310.5,130.3z"/>
	</g>
	<g>
		<path fill="#FFFFFF" d="M328.5,127.3l-0.6-20.9l5.7-1.4l0.1,2.2c0.3-0.6,0.6-1.1,1-1.5s0.7-0.7,1.1-1s0.7-0.4,1.1-0.6
			c0.3-0.1,0.7-0.2,1-0.3c0.6-0.2,1.2-0.2,1.8-0.2c0.6,0,1.1,0.2,1.6,0.5s0.9,0.7,1.3,1.2s0.6,1.2,0.8,2c0.1,0.5,0.2,1.1,0.3,1.8
			c0.1,0.6,0.1,1.3,0.1,2s0,1.4,0,2c0,0.7,0,1.3,0,1.9s0,1.2,0,1.7s0.1,1,0.2,1.3c0.1,0.5,0.3,0.9,0.6,1.1s0.8,0.3,1.4,0.2
			c0.7-0.2,1.1-0.3,1.3-0.6c0.1,0.7,0.1,1.4-0.1,2s-0.4,1.1-0.7,1.5c-0.3,0.4-0.7,0.8-1.1,1.1c-0.5,0.3-0.9,0.5-1.5,0.6
			c-0.8,0.2-1.4,0.2-2,0.1s-1.1-0.4-1.5-0.7s-0.7-0.8-1-1.3s-0.5-1-0.6-1.6c-0.2-0.7-0.3-1.5-0.3-2.4s0-1.9-0.1-2.9c0-1,0-2,0-2.9
			s-0.1-1.7-0.3-2.3c-0.3-1.4-1-1.9-1.9-1.7c-0.4,0.1-0.7,0.3-0.9,0.5s-0.5,0.6-0.7,1s-0.3,0.8-0.4,1.3s-0.2,1-0.2,1.6l0.4,13.4
			L328.5,127.3z"/>
	</g>
	<g>
		<path fill="#FFFFFF" d="M365.3,113.2c0,0.2,0,0.5,0,0.7s0.1,0.4,0.1,0.6c0.1,0.6,0.4,0.9,0.7,1.1c0.3,0.2,0.8,0.2,1.3,0
			c0.2,0,0.3-0.1,0.5-0.2c0.1-0.1,0.3-0.1,0.4-0.2c-0.1,0.8-0.2,1.4-0.3,2c-0.1,0.6-0.3,1-0.5,1.5c-0.2,0.4-0.5,0.7-0.8,1
			s-0.8,0.4-1.3,0.6c-1.1,0.3-2.1,0.2-2.9-0.3s-1.5-1.3-1.9-2.4c-0.2,0.5-0.4,1.1-0.7,1.6c-0.3,0.5-0.6,1-1,1.5s-0.9,0.9-1.4,1.2
			c-0.5,0.4-1.2,0.6-1.9,0.8c-0.7,0.2-1.4,0.2-2.1,0.1s-1.3-0.3-2-0.7c-0.6-0.4-1.2-1-1.7-1.7s-0.9-1.7-1.2-2.9
			c-0.2-0.9-0.4-1.9-0.4-3c-0.1-1.1,0-2.2,0.1-3.3c0.1-1.1,0.4-2.2,0.7-3.3c0.3-1.1,0.8-2.1,1.4-3s1.3-1.7,2.2-2.4
			c0.9-0.7,1.9-1.1,3-1.4s2-0.3,2.6,0s1,0.7,1.1,1.3l0.1,0.3l-0.1-2.2l5.7-1.4L365.3,113.2z M359.3,104.3c0-0.1-0.1-0.3-0.2-0.4
			c-0.1-0.2-0.2-0.3-0.4-0.4c-0.2-0.1-0.4-0.2-0.6-0.3c-0.2-0.1-0.5-0.1-0.8,0c-0.6,0.1-1,0.4-1.5,0.9c-0.4,0.5-0.8,1.1-1,1.8
			c-0.3,0.7-0.5,1.5-0.6,2.3s-0.2,1.7-0.3,2.6c0,0.9,0,1.7,0.1,2.5s0.2,1.5,0.3,2.2c0.2,0.8,0.4,1.3,0.6,1.7
			c0.2,0.4,0.5,0.6,0.7,0.8c0.2,0.2,0.5,0.2,0.7,0.2s0.5,0,0.6-0.1c0.3-0.1,0.6-0.2,0.9-0.5c0.3-0.2,0.6-0.5,0.8-0.9
			c0.2-0.4,0.4-0.8,0.6-1.3c0.1-0.5,0.2-1.1,0.2-1.7L359.3,104.3z"/>
	</g>
	<g>
		<path fill="#FFFFFF" d="M380.3,116.9l-0.2-14.5c0-0.3,0-0.7-0.1-1c-0.1-0.2-0.1-0.5-0.2-0.7s-0.2-0.4-0.3-0.5
			c-0.1-0.1-0.3-0.2-0.5-0.3c-0.2-0.1-0.4-0.1-0.6,0c-0.4,0.1-0.7,0.3-1,0.5c-0.3,0.3-0.5,0.6-0.7,1s-0.3,0.8-0.4,1.4
			c-0.1,0.5-0.2,1-0.2,1.6l0.2,13.4l-5.8,1.3l-0.2-21l5.8-1.3V99c0.3-0.6,0.7-1.1,1-1.5c0.4-0.4,0.7-0.7,1.1-1s0.8-0.5,1.1-0.6
			s0.7-0.3,1.1-0.3c0.5-0.1,1-0.2,1.5-0.1c0.5,0,0.9,0.1,1.3,0.3s0.8,0.5,1.1,0.9c0.3,0.4,0.6,0.9,0.9,1.5c0.3-0.8,0.7-1.6,1.1-2.1
			c0.4-0.6,0.8-1,1.3-1.4c0.4-0.3,0.9-0.6,1.3-0.8c0.4-0.2,0.8-0.3,1.2-0.4c0.6-0.1,1.2-0.2,1.8-0.1c0.6,0,1.1,0.2,1.6,0.5
			s0.9,0.7,1.2,1.2c0.4,0.5,0.6,1.2,0.8,2c0.1,0.5,0.2,1.1,0.2,1.8c0,0.6,0.1,1.3,0.1,2s0,1.4,0,2c0,0.7,0,1.3,0,1.9s0,1.2,0,1.7
			s0.1,1,0.1,1.4c0.1,0.5,0.3,0.9,0.6,1.1c0.3,0.3,0.8,0.3,1.4,0.2c0.6-0.1,1.1-0.3,1.3-0.6c0.1,0.8,0,1.4-0.1,2
			c-0.2,0.6-0.4,1.1-0.7,1.5c-0.3,0.4-0.7,0.8-1.2,1s-0.9,0.5-1.5,0.6c-0.8,0.2-1.4,0.2-2,0c-0.6-0.1-1.1-0.4-1.5-0.7
			c-0.4-0.4-0.7-0.8-1-1.3s-0.4-1.1-0.6-1.6c-0.2-0.7-0.2-1.5-0.2-2.4s0-1.9,0-2.9s0-2,0-2.9s-0.1-1.7-0.2-2.3
			c-0.3-1.4-0.9-1.9-1.9-1.7c-0.4,0.1-0.7,0.3-1,0.5c-0.3,0.3-0.5,0.6-0.7,1s-0.3,0.8-0.4,1.3s-0.2,1-0.2,1.6l0.2,13.4L380.3,116.9z
			"/>
	</g>
	<g>
		<path fill="#FFFFFF" d="M413.9,104.4c0,1.2-0.1,2.2-0.4,3.1c-0.3,0.8-0.7,1.6-1.2,2.1c-0.5,0.6-1.1,1-1.9,1.4
			c-0.7,0.3-1.5,0.6-2.3,0.7c-0.9,0.2-1.8,0.2-2.6,0.1c-0.8-0.1-1.5-0.3-2.2-0.7c-0.6-0.4-1.2-1-1.7-1.7s-0.8-1.7-1-2.8
			c-0.2-0.8-0.2-1.7-0.3-2.7c0-1,0-2.1,0.1-3.3s0.4-2.3,0.7-3.4c0.4-1.1,0.9-2.2,1.5-3.1c0.6-1,1.5-1.8,2.4-2.5
			c1-0.7,2.2-1.2,3.5-1.5c0.9-0.2,1.7-0.2,2.3-0.1c0.6,0.1,1.1,0.3,1.5,0.6c0.4,0.3,0.7,0.7,0.9,1.1s0.4,0.9,0.5,1.4
			c0.2,1.2,0.2,2.3-0.1,3.4s-0.8,2.1-1.5,3s-1.6,1.7-2.6,2.4c-1,0.7-2.1,1.2-3.3,1.5c0,0.2,0,0.4,0.1,0.7c0,0.2,0,0.4,0.1,0.6
			c0.1,0.6,0.3,1.2,0.5,1.6s0.5,0.7,0.7,0.9s0.6,0.3,0.9,0.4c0.3,0,0.7,0,1,0c0.4-0.1,0.8-0.2,1.2-0.4c0.4-0.2,0.8-0.4,1.2-0.7
			c0.4-0.3,0.7-0.6,1.1-0.9C413.4,105.1,413.7,104.7,413.9,104.4z M406.2,101.4c0.8-0.2,1.5-0.5,2.1-1s1.2-1.1,1.6-1.9
			c0.4-0.7,0.7-1.5,0.9-2.3c0.2-0.8,0.2-1.7,0-2.5c-0.1-0.5-0.2-0.9-0.4-1.2c-0.2-0.3-0.5-0.4-0.9-0.3c-0.5,0.1-1,0.4-1.4,1
			s-0.7,1.3-1,2.2c-0.3,0.9-0.5,1.8-0.6,2.9C406.3,99.4,406.2,100.4,406.2,101.4z"/>
	</g>
	<g>
		<path fill="#FFFFFF" d="M426.3,86c0.4,1.7,0.7,3.2,1,4.5s0.6,2.4,0.8,3.3c0.2,0.9,0.4,1.7,0.6,2.4c0.2,0.6,0.3,1.2,0.5,1.7
			s0.2,1,0.3,1.4c0.1,0.4,0.2,0.8,0.3,1.3c0.2,0.9,0.2,1.7,0,2.4s-0.3,1.4-0.7,2c-0.3,0.6-0.7,1.1-1.2,1.6s-1,0.8-1.6,1.2
			c-0.6,0.3-1.1,0.6-1.7,0.8c-0.6,0.2-1.2,0.4-1.7,0.5c-1,0.2-1.9,0.2-2.7,0c-0.8-0.2-1.5-0.5-2.1-0.9s-1-0.9-1.4-1.5
			c-0.3-0.6-0.6-1.2-0.7-1.8c-0.1-0.5-0.1-0.9,0-1.3s0.2-0.8,0.3-1.2s0.3-0.7,0.5-0.9c0.2-0.3,0.5-0.5,0.7-0.7
			c0.8-2.2,1.4-4.4,1.8-6.5s0.8-4.2,1.1-6.3L426.3,86z M418.1,103.6c0.2,0.9,0.5,1.6,0.9,2c0.5,0.4,1.1,0.5,2,0.4
			c0.4-0.1,0.9-0.2,1.3-0.4c0.4-0.2,0.7-0.5,1-0.8c0.3-0.4,0.5-0.8,0.6-1.3s0.1-1.1,0-1.8c-0.1-0.3-0.1-0.7-0.2-1s-0.2-0.7-0.2-1
			c-0.1-0.4-0.2-0.8-0.3-1.2c-0.1-0.4-0.3-1-0.4-1.5c-0.2-0.6-0.3-1.3-0.5-2c-0.2-0.8-0.4-1.7-0.7-2.7c-0.2,1.4-0.4,2.7-0.8,4.1
			s-0.7,2.7-1.2,4.1c0.3,0.1,0.5,0.2,0.8,0.4c0.2,0.2,0.4,0.5,0.4,0.8s0,0.5,0,0.7c0,0.3-0.1,0.5-0.2,0.7s-0.3,0.4-0.5,0.6
			c-0.2,0.1-0.4,0.2-0.7,0.3c-0.2,0-0.4,0-0.6,0S418.3,103.8,418.1,103.6z"/>
	</g>
	<g>
		<path fill="#FFFFFF" d="M457.4,96c0.5,0.9,0.7,1.7,0.8,2.5c0.1,0.7,0,1.4-0.2,2.1c-0.2,0.6-0.6,1.2-1,1.7s-1,0.9-1.6,1.2
			c-0.6,0.3-1.3,0.5-2,0.6c-0.6,0.1-1.3,0.1-2,0s-1.4-0.2-2.1-0.3c-0.7-0.1-1.4-0.2-2.2-0.3c-0.7-0.1-1.5-0.1-2.2,0
			s-1.4,0.3-2.1,0.5c-0.7,0.3-1.5,0.7-2.2,1.2h-0.2c-0.2-0.6-0.4-1.3-0.5-1.9c-0.1-1,0-1.9,0.3-2.8s0.7-1.9,1.2-2.8s1.2-1.8,1.9-2.7
			s1.4-1.8,2.2-2.8c0.7-0.9,1.5-1.9,2.2-2.8c0.7-1,1.3-1.9,1.8-2.9s0.9-2,1.2-3c0.3-1,0.3-2.1,0.2-3.2c-0.1-0.7-0.2-1.4-0.4-2
			c-0.2-0.6-0.4-1.1-0.7-1.5s-0.7-0.7-1.1-0.9c-0.4-0.2-0.9-0.3-1.4-0.2c-0.5,0.1-0.9,0.2-1.3,0.4c-0.4,0.2-0.7,0.5-0.9,0.8
			s-0.4,0.7-0.5,1.1s-0.1,0.9-0.1,1.3c0.1,1,0.4,1.8,0.9,2.5c0.5,0.6,1,1.1,1.6,1.3v0.2c-0.4,0.5-0.9,0.9-1.4,1.2s-1,0.5-1.5,0.6
			c-0.4,0-0.8,0-1.2-0.1c-0.4-0.1-0.7-0.4-1-0.7c-0.3-0.3-0.6-0.7-0.8-1.2s-0.4-1.1-0.5-1.8c-0.1-0.8,0-1.6,0.2-2.5
			c0.3-0.9,0.7-1.7,1.3-2.5s1.5-1.4,2.5-2s2.2-0.9,3.6-1.1c1.2-0.1,2.2-0.1,3.2,0.1s1.9,0.6,2.7,1.1c0.8,0.5,1.4,1.3,1.9,2.1
			c0.5,0.9,0.8,1.9,1,3.1c0.1,1,0.1,1.9-0.2,2.8s-0.6,1.8-1.1,2.6c-0.5,0.8-1.1,1.7-1.7,2.5c-0.7,0.8-1.4,1.6-2.1,2.3
			c-0.7,0.8-1.5,1.5-2.3,2.3s-1.5,1.5-2.2,2.3s-1.3,1.5-1.9,2.3s-1,1.6-1.3,2.4c0.4-0.2,0.8-0.3,1.2-0.4c0.4-0.1,0.8-0.2,1.2-0.2
			c0.7-0.1,1.3-0.1,2-0.1c0.6,0,1.2,0,1.8,0.1c0.6,0,1.1,0.1,1.7,0.1c0.5,0,1,0,1.5,0c0.7-0.1,1.3-0.3,1.9-0.7
			c0.6-0.4,1.2-1,1.8-1.9L457.4,96z"/>
	</g>
	<g>
		<path fill="#FFFFFF" d="M470.3,101.2c-1.6,0.1-2.9,0-4.1-0.4c-1.1-0.4-2-1.1-2.7-2s-1.2-1.9-1.6-3.1s-0.6-2.5-0.7-4
			c-0.2-1.9-0.2-3.7,0-5.5c0.1-1.8,0.4-3.5,0.9-5.1c0.4-1.6,1-3.1,1.7-4.5s1.5-2.6,2.5-3.6c0.9-1,2-1.8,3.2-2.5
			c1.2-0.6,2.5-1,3.8-1.1s2.5,0,3.6,0.4c1,0.4,1.9,1,2.6,1.8s1.3,1.8,1.7,3s0.7,2.5,0.8,4c0.1,1,0.1,2.1,0.1,3.2s-0.1,2.3-0.2,3.5
			s-0.3,2.4-0.6,3.7c-0.3,1.2-0.6,2.4-1.1,3.5c-0.4,1.1-1,2.2-1.6,3.2s-1.3,1.9-2.1,2.7c-0.8,0.8-1.7,1.4-2.7,1.9
			C472.7,100.8,471.5,101.1,470.3,101.2z M473.4,71.9c-0.7,0.1-1.3,0.4-1.9,1s-1.1,1.4-1.6,2.4s-0.9,2.2-1.3,3.5s-0.7,2.7-0.9,4.2
			c-0.2,1.5-0.4,3-0.4,4.6c-0.1,1.6,0,3.1,0.1,4.6c0.1,0.8,0.2,1.5,0.3,2.2c0.1,0.7,0.3,1.4,0.6,1.9c0.2,0.6,0.6,1,0.9,1.3
			c0.4,0.3,0.8,0.4,1.4,0.4c0.7-0.1,1.3-0.4,1.9-1s1.1-1.4,1.6-2.4s0.9-2.1,1.2-3.4c0.3-1.3,0.6-2.7,0.8-4.2c0.2-1.5,0.3-3,0.4-4.7
			c0-1.6,0-3.2-0.1-4.8c-0.1-0.8-0.2-1.6-0.3-2.3c-0.2-0.7-0.4-1.3-0.6-1.9c-0.2-0.5-0.5-0.9-0.9-1.2
			C474.1,72,473.8,71.9,473.4,71.9z"/>
	</g>
	<g>
		<path fill="#FFFFFF" d="M484.9,99.2l4.1-25.8l-3.9,0.2l0.4-1.9c0.6,0,1.2-0.1,1.9-0.2c0.7-0.1,1.5-0.3,2.3-0.5
			c0.8-0.3,1.8-0.6,2.8-1.1s2.1-1.1,3.3-1.9l-5,31L484.9,99.2z"/>
	</g>
	<g>
		<path fill="#FFFFFF" d="M510.7,78.6c0.9,0,1.8,0.1,2.6,0.4s1.4,0.8,2,1.4s1,1.3,1.3,2.2c0.3,0.9,0.5,1.9,0.5,3c0,1-0.1,2-0.3,3
			s-0.6,1.9-1.1,2.8s-1,1.7-1.7,2.4c-0.6,0.7-1.4,1.4-2.2,1.9s-1.6,1-2.6,1.3s-1.9,0.5-2.8,0.5c-1.4,0-2.7-0.2-3.7-0.5
			c-1.1-0.4-1.9-1-2.6-1.9s-1.2-2-1.6-3.3c-0.4-1.4-0.6-3-0.6-4.9s0.1-3.7,0.4-5.4s0.8-3.3,1.3-4.8c0.6-1.5,1.3-2.9,2.2-4.1
			c0.8-1.2,1.8-2.3,2.8-3.2c1-0.9,2.2-1.6,3.4-2.1s2.5-0.8,3.8-0.8c0.9,0,1.7,0.1,2.4,0.3s1.4,0.5,1.9,0.9s0.9,0.9,1.2,1.4
			c0.3,0.6,0.4,1.2,0.5,1.9c0,0.5-0.1,1-0.2,1.5c-0.1,0.5-0.3,0.9-0.6,1.2c-0.3,0.3-0.6,0.6-0.9,0.8c-0.4,0.2-0.8,0.3-1.2,0.3
			c-0.5,0-0.9-0.1-1.3-0.3c-0.4-0.2-0.7-0.5-0.8-0.9c0.4-0.2,0.8-0.6,1-1c0.2-0.5,0.3-0.9,0.3-1.4c0-0.3-0.1-0.6-0.1-0.9
			s-0.2-0.5-0.4-0.7s-0.4-0.4-0.7-0.5s-0.6-0.2-0.9-0.2c-0.8,0-1.7,0.4-2.5,1.1s-1.6,1.6-2.3,2.9c-0.7,1.2-1.3,2.7-1.8,4.3
			c-0.5,1.7-0.9,3.5-1.2,5.4h0.1c0.5-1.3,1.3-2.3,2.4-2.9C507.8,79,509.2,78.7,510.7,78.6z M504,88.4c0,1.1,0.1,2,0.3,2.7
			c0.2,0.8,0.4,1.4,0.7,1.8c0.3,0.5,0.6,0.8,1,1s0.9,0.3,1.3,0.3c0.6,0,1.1-0.2,1.7-0.7c0.6-0.4,1-1,1.5-1.8c0.4-0.8,0.8-1.7,1-2.7
			c0.3-1,0.4-2.1,0.4-3.4c0-0.8-0.1-1.5-0.3-2c-0.2-0.5-0.4-1-0.7-1.3s-0.6-0.6-1-0.7s-0.8-0.2-1.3-0.2c-0.8,0-1.6,0.2-2.1,0.5
			c-0.6,0.3-1.1,0.8-1.4,1.4c-0.4,0.6-0.6,1.3-0.8,2.1C504,86.5,503.9,87.4,504,88.4z"/>
	</g>
</g>
<g>
	<path fill="#333333" d="M571.6,30c2.6-6.9-0.1-13.6-2.2-11.2c0,0.6-0.1,2.6-0.1,2.9c0-0.4,0.1-2.3,0.1-2.9v-0.1
		c-0.2-6.6-3.2-9.5-3.7-6.5c0.1,0.4,0.1,0.4,0,0c-0.7-3.7-2.3-5.8-3.6-5.3c-1.4,0.6,0,6.8-1.9,14.4l0,0c-0.9-2.6-2.5-4.2-3.5-2.9
		c-1.3-4.3-3.9-5.8-4.4-3.9c-1.2-2.5-3.2-3.7-4.3-3.2c-0.6,0.3-0.1,1.3,0.4,2.9c1.1,3.3,3.1,9.2,1.9,16.4c-0.4-0.1-0.9-0.3-1.3-0.4
		c-0.1,0-0.1-0.1-0.1-0.1l0,0c-5.2-6.8-12.2-5.3-15.9-1.4c-2.5,2.6-3,6.7-2.2,9.6c0,0.2,0.1,0.3,0.1,0.5c0.2,0.4,0.4,0.8,0.6,1.2
		l0,0l0,0l0,0c0.1,0.2,0.2,0.4,0.4,0.6c0.5,0.9,1.1,1.6,1.6,2.2c2.8,2.1,5.4,1.3,7,1.1c4.8-0.7,6.7-3.2,6.8-5.5l0,0
		c0-0.1,0-0.2,0.1-0.3c0.6-0.6,2.1-0.9,3.4-0.9l0,0c0.1-0.3,0.3-0.6,0.6-0.9l0,0l0,0c2.2-2.6,5.8-5.3,7.9-9.8
		c0.1-0.2,0.1-0.3,0.2-0.5c1.2-2.6,1.7-4.7,2-6.6c0.9-2.7,4-0.4,3.6,2.6l0,0l0,0c1.5-2.1,3.8-0.1,3.3,3.4l0,0c0,0.3-0.1,0.5-0.1,0.8
		l0,0c0.3-0.8,0.4-1.7,0.6-2.5c-0.1,0.8-0.3,1.7-0.6,2.5c1.5-2.7,4.2,0.6,1.8,6.7l0,0V33c0.5-0.4,1.6-0.7,2.1-0.1
		c0.7,1,0.6,3.6-1,6.1c-0.1,0.1-0.1,0.2-0.2,0.2c-0.8,1.2-1.8,2.3-3.3,3.2c0.4-0.1,0.7-0.4,1-0.5c0.6-0.4,0.9-0.6,1.4-1
		C575.8,36.1,574.5,26.8,571.6,30z M557.6,28.3c-0.1,0.2-0.2,0.3-0.2,0.4c-0.7,1.2-1.4,2.5-2.4,3.7c0,0,0,0,0,0.1l0,0
		c-0.5-0.2-0.9-0.4-1.4-0.6c-0.9-0.4-1.9-0.7-2.8-1l0,0c0.2-1.5,0.4-2.7,0.5-3.8c0.2-1.7,0.2-3,0-4.7v-0.1c-0.1-2.7,2.4-2.9,3.3,1.2
		l0,0v-0.1c0.2-2.3,2.4-2,3.2,0.9l0,0c0.3-1.2,1.4-0.6,1.6-0.1C559.4,24.2,558.3,26.9,557.6,28.3z"/>
	<g>
		<path fill="#666666" d="M572.3,33c-0.5-0.6-1.4-0.5-1.9-0.1c-0.1,0.1-0.1,0.1-0.2,0.2c-0.3,0.6-0.7,1.3-1.2,1.9
			c0.9-0.9,4.2,0.9,2.3,4.1C572.9,36.6,573.1,34,572.3,33z"/>
		<path fill="#666666" d="M569.1,35c0.4-0.6,0.8-1.3,1.2-1.9l0,0l0,0c2.4-6.1-0.3-9.4-1.8-6.7c0,0-0.2,0.8,0,0
			c0.1-0.3,0.1-0.5,0.1-0.8c0.5-3.6-1.8-5.5-3.3-3.5l0,0c-0.5,2-1.2,4.1-2.3,6.3c0,0,0,0,0,0.1c1.5-1.7,4.6-1.1,3.2,3.1
			c0.2-0.3,0.2-0.3,0,0C567.5,29.9,570.7,31.4,569.1,35L569.1,35z"/>
		<path fill="#666666" d="M563,28.5c1.1-2.2,1.8-4.3,2.3-6.3l0,0c0.4-3-2.8-5.4-3.7-2.6c-0.4,1.9-0.9,4.1-2.1,6.6l0,0
			C560.9,24,563.8,25.3,563,28.5z"/>
	</g>
	<path fill="#666666" d="M559.4,24.2c-0.2-0.5-1.3-1.2-1.6,0l0,0c-0.8-2.9-2.9-3-3.3-1c-1-4-3.4-3.8-3.3-1.1v0.2
		c0.3,1.7,0.3,3,0.1,4.8l3.2,1.5c0.6-1.3,2.2-1.6,2.9,0.2c0.1-0.1,0.3-0.5,0.4-0.7C557.8,28.1,558.9,25.6,559.4,24.2z"/>
	<path fill="#333333" d="M557.5,59.5c1.1-0.2,2.1-0.5,3.1-0.8h0.1c-0.8,0.4-0.2,1.9,0.6,2.1c-0.8,0.4-1.5,0.2-1.8-0.6
		c-0.1,0.9,0.5,1.3,1,1.6c-1.3,0.6-2.2-0.7-2.3-1.4c-0.3,0.3,0,1,0.3,1.3C557.5,61.9,556.8,60.2,557.5,59.5L557.5,59.5z"/>
	<path fill="#333333" d="M561.3,58.5c1.1-0.4,2.2-0.9,3.3-1.4l0.1,0.2c0.3,1,1.1,1,1.7,0.9c-0.5,0.9-2.2,1-2.8,0.6
		c0.1,0.3,0.8,0.9,1.6,0.9c-0.7,1-1.5,0.9-2,0.6C562.6,60.5,561.2,60,561.3,58.5"/>
	<path fill="#333333" d="M531.9,40.7c0.5,0.9,1.1,1.6,1.6,2.2c-1-0.5-4.5-0.1-6.4-0.4C529,42.1,530.6,41.2,531.9,40.7L531.9,40.7z"
		/>
	<path fill="#666666" d="M527.2,42.6c0.7-0.9,2.5-3.3,3.5-4.1h0.1c0,0.2,0.1,0.3,0.1,0.5c0.2,0.4,0.4,0.8,0.6,1.2
		c0.1,0.2,0.2,0.4,0.4,0.6l0,0C530.6,41.2,529,42.1,527.2,42.6"/>
	<path fill="#989898" d="M554.5,28.5c0,0-1.3-3.4-3.2-1.5c0,0-0.3,2.3-0.5,3.8c0.9,0.3,1.8,0.6,2.8,1c0.1-0.1,0.1-0.1,0,0
		c0.5,0.2,0.9,0.4,1.4,0.6l0,0c0,0,0,0,0.1-0.1c0.9-1.2,1.7-2.5,2.4-3.7C556.8,26.9,555.3,27,554.5,28.5z"/>
	<path fill="#989898" d="M569.2,34.7c1.4-3.4-1.7-4.8-3.1-3.2c-0.2,0.3-0.4,0.7-0.6,1c0.2-0.3,0.4-0.7,0.6-1
		c1.4-4.1-1.7-4.8-3.2-3.1c0,0,0.4-1.2,0-2.3c0,0-1.5-2.6-3.4-0.1l-0.1,0.1c-0.1,0.2-0.1,0.3-0.1,0.4c-2.1,4.5-5.7,7.2-7.9,9.8l0,0
		c-0.2,0.3-0.4,0.6-0.6,0.9l0,0l0,0c1.5,0,3,0.6,4.6,1.3v-0.1v0.1c1.1,0.5,2.2,1.1,3.3,1.7v-0.1l0,0v0.1c1.1,0.6,2.2,1.1,3.4,1.5
		l0,0c1.6,0.6,3.4,1,5.3,0.8c0.2-0.1,0.3-0.1,0.5-0.2c1.4-0.9,2.5-2.1,3.3-3.2c0.1-0.1,0.1-0.2,0.2-0.2
		C572.7,37.2,571.9,34,569.2,34.7z M562.2,41.9L562.2,41.9L562.2,41.9L562.2,41.9z"/>
	<g>
		<path fill="#D8C824" d="M541.8,43.8c-0.1,0-0.3,0.1-0.5,0.1C541.5,43.9,541.6,43.9,541.8,43.8z"/>
		<path fill="#D8C824" d="M577,45.4c0-0.4-0.2-0.8-0.3-1.1c-0.1-0.2-0.2-0.3-0.3-0.5c-0.4-0.5-0.9-0.8-1.2-0.9
			c-0.5-0.2-0.9-0.4-1.3-0.5l0,0c-1.4-0.6-2.7-1-3.5-1.3l0,0c-0.5,0.4-1,0.8-1.6,1.2c11.9,3,3,12.1-8.8,16.1l0,0
			c-0.3,0.1-0.6,0.1-0.9,0.2c-0.3,0.1-0.7,0.2-1,0.2H558c-0.6,0.1-1.1,0.2-1.7,0.2c-8.1,0.8-12.6-3.7-14.6-8.1
			c-1.2-2.7-2-5.6-1.1-6.8c0.2,0,0.4-0.1,0.6-0.1c-2,0.3-5,0.2-7.7-1c1.2,1.2,3,2,4,2.7c2.9,2.1,2.3,8.1,9.4,12.3
			c3.4,2,6.9,2.3,10.5,1.6c1.1-0.2,2.1-0.5,3.1-0.8c0.2-0.1,0.5-0.2,0.7-0.2c1.1-0.4,2.2-0.9,3.3-1.4c3.4-1.6,6.2-3.6,7.8-4.8l0,0
			c0.6-0.5,1.1-0.9,1.3-1c0.5-0.4,0.9-0.8,1.2-1.2c0.8-0.9,1.4-1.8,1.7-2.5c0.1-0.2,0.1-0.3,0.2-0.5c0.2-0.5,0.2-0.9,0.2-1.3
			C577,45.7,577,45.5,577,45.4z"/>
	</g>
	<path fill="#333333" d="M591.2,48.4c1.1-1.8,0.1-2.9-1.7-3.2l0,0l0,0c0.4-0.5,1.1-2-1.7-2.1l0,0l0,0l0,0c1.4-1.3-1.2-1.8-3.4-1.5
		c0.3,0,0.5,0,0.8,0c-0.3,0-0.5,0-0.8,0c-0.1,0-0.3,0-0.4,0.1c-2.1,0.4-6.7,1.5-10.2,0.7c0.4,0.2,0.9,0.3,1.3,0.5
		c0.3,0.1,0.8,0.4,1.2,0.9l0,0l0,0c0.4,0.6,0.6,1.1,0.7,1.6l0,0l0,0c0,0.1-0.1,1.1-0.3,1.7c-0.1,0.6-1,2.1-1.9,3l0,0
		c-0.4,0.4-0.8,0.8-1.2,1.2c-0.2,0.2-0.6,0.5-1.3,1c0.2-0.1,0.3-0.2,0.5-0.3c2.7-1.8,4.7-1.9,6.8-1.9c3,0,8.8,1.5,11.4,0.7
		C592.1,50.4,592.6,48.9,591.2,48.4z"/>
	<path fill="#CBCBCB" d="M567.5,42.8c-1.9,0.1-3.7-0.2-5.3-0.8c-1.2-0.4-2.3-1-3.4-1.5c-1.1-0.6-2.2-1.2-3.3-1.7
		c-1.5-0.7-3-1.3-4.6-1.3c0.3-0.6,0.1-0.6,1.1-1.5c2.1-1.2,5,0.3,7.6,2.3c2.8,2,8,4.7,9.9,3.2C568.7,42.1,568.1,42.6,567.5,42.8"/>
	<path fill="#1A1A1A" d="M540.4,34.8c0.5,1.1,0,2.4-1.1,2.8c-1.1,0.5-2.4,0-2.8-1.1c-0.5-1.1,0-2.4,1.1-2.8
		C538.7,33.2,540,33.7,540.4,34.8"/>
	
		<ellipse transform="matrix(0.9205 -0.3908 0.3908 0.9205 28.9227 213.2619)" fill="none" stroke="#FFFFFF" stroke-width="0.147" cx="538.5" cy="35.6" rx="2.2" ry="2.2"/>
	<path fill="#FFFFFF" d="M536.8,35.9c-0.1-0.4,0-0.9,0.2-1.2c0.4-0.5,1.9-0.8,1.7,0.2c-0.1,0.4-0.3,0.4-0.5,0.6
		c-0.3,0.3-0.3,0.6-0.7,0.8C537.3,36.4,536.9,36.2,536.8,35.9"/>
	<path fill="#FFFFFF" d="M530.5,39.2c0.4,0.6-1.2,1.9-2,2.3C529.3,40.4,530.2,39.5,530.5,39.2"/>
	<path fill="#E5D351" d="M568.8,42.2c-1.3,0.9-5,0.4-6.6-0.2c-1.2-0.4-2.3-1-3.4-1.5c-1.1-0.6-2.2-1.2-3.3-1.7
		c-1.5-0.7-3-1.3-4.6-1.3l0,0c-1.4,0-2.8,0.3-3.4,0.9c0,0.1,0,0.2-0.1,0.3c-0.1,2.3-2,4.8-6.8,5.5c-0.8,1.2-0.1,4.1,1.1,6.8
		c2.3,5,7.8,10.1,18.2,7.4l0,0C571.7,54.2,580.7,45.2,568.8,42.2z"/>
</g>
</svg>
