<?xml version="1.0" encoding="utf-8"?>
<svg version="1.1" id="Layer_1" xmlns="http://www.w3.org/2000/svg" xmlns:xlink="http://www.w3.org/1999/xlink" x="0px" y="0px"
	 viewBox="0 0 778 186" enable-background="new 0 0 778 186" xml:space="preserve">
<g>
	<path fill="#FFFFFF" d="M252.2,162.8c0.1-1.7,0.1-3.3-0.1-4.9c-1.1-11.9-2.4-15.9-11-24c-4.8-4.5-11-9.9-16.9-11.1
		c-3-0.6-13.2-1.4-15.6,2.9c-0.4-3.6-1.9-7.3-4.6-9.8c-3-2.9-7.7-5-11.9-4.7c-0.4,0-3.4,0.2-3.5,0.6c2-6.7,0.4-14.2-4.1-19.6
		c-4.4-5.3-11.6-8.3-18.5-7.6c-1.1,0.1-2.2,0.3-3.2-0.2c-1.3-0.6-1.9-2.2-2.4-3.6c-3.1-7.9-10.6-14-19-15.3s-17.4,2.2-22.7,8.8
		c-10.8-6.7-26.6-3.1-33.4,7.6c-6.6-1.9-14-0.5-19.4,3.6s-8.8,10.9-8.7,17.7c-16.1,2.5-29.2,17.7-29.3,33.9
		c-14.2,0.8-26.8,13-28.1,27.1c-0.7,7.4,2.1,15.7,8.6,19.4c4.3,2.4,9.5,2.5,14.4,2.5c65.7-0.1,131.4-0.1,197.1-0.2
		c8.9,0,18.7-0.3,25.3-6.3C249.7,175.4,251.8,169.2,252.2,162.8"/>
	<path fill="#FFFFFF" d="M777.2,97.8c0.1-1.7,0.1-3.3-0.1-4.9c-1.1-11.9-2.4-15.9-11-24c-4.8-4.5-11-9.9-16.9-11.1
		c-3-0.6-13.2-1.4-15.6,2.9c-0.4-3.6-1.9-7.3-4.5-9.8c-3-2.9-7.7-5-11.9-4.7c-0.4,0-3.4,0.2-3.5,0.6c2-6.7,0.4-14.2-4.1-19.6
		c-4.4-5.3-11.6-8.3-18.5-7.6c-1.1,0.1-2.2,0.3-3.2-0.2c-1.3-0.6-1.9-2.2-2.4-3.6c-3.1-7.9-10.6-14-19-15.3S649,2.6,643.7,9.2
		c-10.8-6.7-26.6-3.1-33.4,7.6c-6.6-1.9-14-0.5-19.4,3.6s-8.8,10.9-8.7,17.7C566.1,40.6,553,55.8,552.9,72
		c-14.2,0.8-26.8,13-28.1,27.1c-0.7,7.4,2.1,15.7,8.6,19.4c4.3,2.4,9.5,2.5,14.4,2.5c65.7-0.1,131.4-0.1,197.1-0.2
		c8.9,0,18.7-0.3,25.3-6.3C774.7,110.4,776.8,104.1,777.2,97.8"/>
	<path fill="#DD7537" d="M514.6,57.1v82.7c36.4,2.7,89,25,89,25l-25.2-50.2L600,82.5C600,82.5,548,59,514.6,57.1"/>
	<path fill="#BE7345" d="M545.2,124.3c-10.2,0.1-19.9-0.2-30.6,0.9v5.8C525.8,126.4,538.6,124.8,545.2,124.3 M549.8,124.1
		L549.8,124.1L549.8,124.1L549.8,124.1z"/>
	<path fill="#DD7537" d="M243.1,154.7V67.4c-33.9-2.5-88.5-25.3-88.5-25.3l25.3,47.1l-25.4,34.5
		C154.5,123.8,206.6,149.8,243.1,154.7"/>
	<path fill="#BE7345" d="M243.1,75.9c-0.7,0.4-2.3,1.4-2.4,1.3c-5,2.5-10.4,3.7-13.8,4.3c5.4-0.1,10.8,0.3,16.2-0.3V75.9z"/>
	<path fill="#EC9059" d="M545.2,124.3c-55.7-0.1-111.4,10.9-167.1,22s-111.4,22.1-167.1,22c5.3-28.9,10.6-57.8,15.9-86.6
		c100.8-0.3,201.6-41.1,302.4-41.4C534.6,68.2,539.9,96.3,545.2,124.3"/>
	<g>
		<path fill="#FFFFFF" d="M237.8,138.9l4.7-26.3l6-1l-1.6,9.2h0.2c0.8,0,1.6-0.3,2.3-0.7c0.7-0.4,1.3-1,1.8-1.6
			c0.5-0.7,0.9-1.4,1.2-2.2c0.3-0.8,0.4-1.6,0.4-2.4c0-0.6-0.1-1.1-0.4-1.6c-0.2-0.5-0.5-1-1-1.4c-0.4-0.4-1-0.7-1.7-0.9
			c-0.7-0.2-1.5-0.3-2.5-0.3c-0.8,0-1.6,0.1-2.4,0.4c-0.8,0.2-1.6,0.5-2.3,0.9s-1.4,0.9-2.1,1.4c-0.6,0.6-1.2,1.2-1.7,2
			s-0.8,1.6-1.1,2.5s-0.4,2-0.3,3.1c0,0.5,0.1,0.9,0.1,1.3c0.1,0.3,0.1,0.6,0.2,0.8c0.1,0.2,0.2,0.3,0.2,0.4
			c0.1,0.1,0.1,0.2,0.1,0.3c-1.4,0-2.5-0.2-3.3-0.7s-1.2-1.5-1.3-2.9c0-0.9,0.1-1.9,0.5-2.8c0.3-0.9,0.8-1.8,1.5-2.6
			c0.6-0.8,1.4-1.6,2.3-2.3c0.9-0.7,1.9-1.3,3-1.9c1.1-0.5,2.2-1,3.5-1.3c1.2-0.3,2.5-0.5,3.8-0.5c1.5-0.1,2.8,0.1,3.9,0.4
			c1.1,0.3,2,0.8,2.8,1.4c0.7,0.6,1.3,1.3,1.7,2c0.4,0.8,0.6,1.6,0.6,2.4c0,0.6,0,1.2-0.2,1.8c-0.2,0.6-0.4,1.2-0.7,1.8
			c-0.3,0.6-0.7,1.1-1.2,1.6s-1.1,1-1.7,1.4c0.9,0.1,1.6,0.4,2.3,0.8c0.6,0.4,1.1,0.9,1.6,1.5c0.4,0.6,0.7,1.2,0.9,1.9
			c0.2,0.7,0.3,1.5,0.3,2.2s0,1.4-0.1,2.2s-0.3,1.7-0.5,2.6c-0.2,0.9-0.6,1.8-1,2.6c-0.4,0.9-1,1.6-1.6,2.3s-1.4,1.2-2.3,1.7
			c-0.9,0.4-1.9,0.7-3,0.7c-0.4,0-0.9,0-1.4-0.1s-0.9-0.2-1.3-0.4c-0.4-0.2-0.7-0.5-1-0.9s-0.4-0.9-0.4-1.5c0-0.3,0-0.7,0.1-1.1
			c0.1-0.4,0.2-0.8,0.4-1.3c0.5,0.5,1,0.9,1.5,1.1c0.4,0.2,0.9,0.3,1.4,0.3c0.7,0,1.4-0.3,1.9-0.8s0.9-1.1,1.2-1.8s0.5-1.5,0.6-2.4
			s0.2-1.7,0.1-2.5c0-0.7-0.1-1.4-0.3-2c-0.1-0.6-0.4-1.2-0.7-1.6c-0.3-0.5-0.7-0.8-1.2-1.1c-0.5-0.3-1.1-0.4-1.9-0.4
			c-0.2,0-0.4,0-0.8,0c-0.3,0-0.7,0.1-1.1,0.2l-2.8,15.8L237.8,138.9z"/>
	</g>
	<g>
		<path fill="#FFFFFF" d="M277.2,128.8c0,0.2-0.1,0.5-0.1,0.7s0,0.4,0,0.7c0.1,0.6,0.3,0.9,0.6,1.1c0.3,0.2,0.7,0.2,1.3,0.2
			c0.2,0,0.3-0.1,0.5-0.1c0.1,0,0.3-0.1,0.4-0.2c-0.2,0.7-0.4,1.4-0.6,1.9s-0.4,1-0.7,1.4c-0.3,0.4-0.6,0.7-0.9,0.9
			c-0.4,0.2-0.8,0.4-1.3,0.4c-1.1,0.1-2.1-0.1-2.8-0.6s-1.3-1.4-1.6-2.6c-0.2,0.5-0.5,1-0.9,1.5c-0.3,0.5-0.7,1-1.2,1.4
			s-1,0.8-1.6,1.1s-1.2,0.5-1.9,0.6c-0.7,0.1-1.4,0.1-2.1-0.1c-0.7-0.1-1.3-0.4-1.9-0.9s-1.1-1.1-1.5-1.9c-0.4-0.8-0.7-1.8-0.8-3
			c-0.1-0.9-0.1-1.9-0.1-3c0.1-1.1,0.2-2.2,0.5-3.3c0.3-1.1,0.6-2.2,1.1-3.2s1-2,1.7-2.8s1.5-1.5,2.4-2.1s2-0.9,3.2-1.1
			c1.2-0.1,2-0.1,2.6,0.3c0.6,0.3,0.9,0.8,1,1.4v0.3l0.2-2.2l5.9-0.7L277.2,128.8z M272.2,119.3c0-0.1-0.1-0.3-0.1-0.4
			c-0.1-0.2-0.2-0.3-0.3-0.5c-0.1-0.1-0.3-0.3-0.6-0.4c-0.2-0.1-0.5-0.1-0.8-0.1c-0.6,0.1-1.1,0.3-1.5,0.8c-0.5,0.4-0.9,1-1.2,1.7
			c-0.3,0.7-0.6,1.4-0.9,2.2s-0.4,1.7-0.5,2.5c-0.1,0.9-0.2,1.7-0.2,2.5c0,0.8,0,1.5,0.1,2.2c0.1,0.8,0.2,1.4,0.4,1.8
			c0.2,0.4,0.4,0.7,0.6,0.9s0.5,0.3,0.7,0.3s0.5,0,0.6,0c0.3,0,0.6-0.2,0.9-0.3c0.3-0.2,0.6-0.5,0.9-0.8s0.5-0.7,0.7-1.2
			s0.3-1,0.4-1.6L272.2,119.3z"/>
	</g>
	<g>
		<path fill="#FFFFFF" d="M282.6,106.3l5.8-1.9l-0.3,9.4c0.4-0.3,0.7-0.6,1-0.8c0.3-0.2,0.6-0.4,0.8-0.5c0.2-0.1,0.5-0.2,0.7-0.3
			c0.2-0.1,0.4-0.1,0.6-0.1c0.7-0.1,1.4-0.1,2,0s1.2,0.4,1.7,0.9s1,1.1,1.4,2c0.4,0.8,0.7,1.9,0.9,3.2c0.1,0.8,0.2,1.7,0.2,2.7
			s0,2-0.2,3.1s-0.4,2.1-0.8,3.2s-0.9,2-1.6,2.9c-0.7,0.9-1.5,1.7-2.6,2.3c-1,0.6-2.3,1.1-3.7,1.4c-1.9,0.3-3.4,0.1-4.5-0.6
			c-1.1-0.7-1.8-1.9-2.1-3.6c-0.1-0.4-0.1-0.8-0.1-1.2c0-0.4,0-0.8,0-1.2L282.6,106.3z M287.7,127.1c0,0.4,0,0.7,0,0.9
			c0.2,1.2,1,1.7,2.5,1.5c0.4-0.1,0.8-0.3,1.2-0.7c0.4-0.4,0.7-0.8,0.9-1.4c0.3-0.6,0.5-1.2,0.6-1.9s0.3-1.5,0.4-2.2
			s0.1-1.5,0.1-2.3s-0.1-1.5-0.2-2.2c-0.1-0.5-0.2-1-0.4-1.4c-0.2-0.5-0.4-0.8-0.6-1.2s-0.5-0.6-0.8-0.8c-0.3-0.2-0.6-0.2-1-0.2
			c-0.1,0-0.3,0.1-0.5,0.1c-0.2,0.1-0.4,0.1-0.7,0.2c-0.2,0.1-0.4,0.2-0.6,0.3c-0.2,0.1-0.3,0.3-0.4,0.4L287.7,127.1z"/>
	</g>
	<g>
		<path fill="#FFFFFF" d="M309.9,127.3c-0.3,0.6-0.7,1.1-1,1.5c-0.4,0.4-0.7,0.7-1.1,1s-0.8,0.5-1.1,0.6s-0.7,0.3-1.1,0.3
			c-0.6,0.1-1.2,0.2-1.7,0.1c-0.6-0.1-1.1-0.3-1.5-0.6c-0.5-0.3-0.9-0.7-1.2-1.3c-0.4-0.6-0.6-1.3-0.8-2.1c-0.1-0.4-0.1-0.8-0.2-1.2
			c0-0.4-0.1-0.9-0.1-1.5v-13.4l5.8-1.2v14.2c0,0.4,0,0.7,0.1,1c0.1,0.2,0.1,0.5,0.2,0.7s0.2,0.4,0.3,0.5c0.1,0.1,0.3,0.2,0.4,0.3
			s0.4,0.1,0.6,0c0.4-0.1,0.7-0.2,1-0.5c0.3-0.2,0.5-0.6,0.7-0.9c0.2-0.4,0.4-0.8,0.5-1.3s0.2-1,0.2-1.5v-13.4l5.8-1.2l0.1,24.3
			c0,1.5-0.2,2.7-0.5,3.8s-0.8,1.8-1.4,2.5c-0.6,0.6-1.2,1.1-1.9,1.5c-0.7,0.3-1.4,0.6-2,0.7c-0.6,0.1-1.2,0.1-1.8,0.1
			c-0.6-0.1-1.2-0.3-1.7-0.6s-1-0.7-1.3-1.1s-0.6-1-0.8-1.7c-0.2-0.9-0.2-1.8,0-2.5s0.6-1.4,1.1-1.9c0.5-0.6,1.2-1.1,2-1.6
			s1.6-1,2.5-1.5L309.9,127.3z M309.9,130.4c-0.6,0.3-1.1,0.7-1.6,1.1c-0.5,0.4-0.9,0.8-1.2,1.2c-0.3,0.4-0.6,0.9-0.7,1.3
			c-0.1,0.5-0.1,1,0,1.5c0,0.2,0.1,0.3,0.2,0.4c0.1,0.1,0.3,0.3,0.4,0.3c0.2,0.1,0.4,0.2,0.6,0.2s0.4,0,0.7,0c0.2,0,0.4-0.1,0.6-0.3
			c0.2-0.1,0.4-0.4,0.6-0.7s0.3-0.7,0.4-1.1c0.1-0.4,0.1-1,0.1-1.6L309.9,130.4z"/>
	</g>
	<g>
		<path fill="#FFFFFF" d="M327.9,127.4l-0.6-20.9l5.7-1.4l0.1,2.2c0.3-0.6,0.6-1.1,1-1.5s0.7-0.7,1.1-1s0.7-0.4,1.1-0.6
			c0.3-0.1,0.7-0.2,1-0.3c0.6-0.2,1.2-0.2,1.8-0.2c0.6,0,1.1,0.2,1.6,0.5s0.9,0.7,1.3,1.2s0.6,1.2,0.8,2c0.1,0.5,0.2,1.1,0.3,1.8
			c0.1,0.6,0.1,1.3,0.1,2s0,1.4,0,2c0,0.7,0,1.3,0,1.9s0,1.2,0,1.7s0.1,1,0.2,1.3c0.1,0.5,0.3,0.9,0.6,1.1s0.8,0.3,1.4,0.2
			c0.7-0.2,1.1-0.3,1.3-0.6c0.1,0.7,0.1,1.4-0.1,2s-0.4,1.1-0.7,1.5c-0.3,0.4-0.7,0.8-1.1,1.1c-0.5,0.3-0.9,0.5-1.5,0.6
			c-0.8,0.2-1.4,0.2-2,0.1s-1.1-0.4-1.5-0.7s-0.7-0.8-1-1.3s-0.5-1-0.6-1.6c-0.2-0.7-0.3-1.5-0.3-2.4s0-1.9-0.1-2.9c0-1,0-2,0-2.9
			s-0.1-1.7-0.3-2.3c-0.3-1.4-1-1.9-1.9-1.7c-0.4,0.1-0.7,0.3-0.9,0.5s-0.5,0.6-0.7,1s-0.3,0.8-0.4,1.3s-0.2,1-0.2,1.6l0.4,13.4
			L327.9,127.4z"/>
	</g>
	<g>
		<path fill="#FFFFFF" d="M364.7,113.3c0,0.2,0,0.5,0,0.7s0.1,0.4,0.1,0.6c0.1,0.6,0.4,0.9,0.7,1.1c0.3,0.2,0.8,0.2,1.3,0
			c0.2,0,0.3-0.1,0.5-0.2c0.1-0.1,0.3-0.1,0.4-0.2c-0.1,0.8-0.2,1.4-0.3,2c-0.1,0.6-0.3,1-0.5,1.5c-0.2,0.4-0.5,0.7-0.8,1
			s-0.8,0.4-1.3,0.6c-1.1,0.3-2.1,0.2-2.9-0.3s-1.5-1.3-1.9-2.4c-0.2,0.5-0.4,1.1-0.7,1.6c-0.3,0.5-0.6,1-1,1.5s-0.9,0.9-1.4,1.2
			c-0.5,0.4-1.2,0.6-1.9,0.8c-0.7,0.2-1.4,0.2-2.1,0.1s-1.3-0.3-2-0.7c-0.6-0.4-1.2-1-1.7-1.7s-0.9-1.7-1.2-2.9
			c-0.2-0.9-0.4-1.9-0.4-3c-0.1-1.1,0-2.2,0.1-3.3c0.1-1.1,0.4-2.2,0.7-3.3c0.3-1.1,0.8-2.1,1.4-3s1.3-1.7,2.2-2.4
			c0.9-0.7,1.9-1.1,3-1.4s2-0.3,2.6,0s1,0.7,1.1,1.3l0.1,0.3l-0.1-2.2l5.7-1.4L364.7,113.3z M358.6,104.4c0-0.1-0.1-0.3-0.2-0.4
			c-0.1-0.2-0.2-0.3-0.4-0.4c-0.2-0.1-0.4-0.2-0.6-0.3c-0.2-0.1-0.5-0.1-0.8,0c-0.6,0.1-1,0.4-1.5,0.9c-0.4,0.5-0.8,1.1-1,1.8
			c-0.3,0.7-0.5,1.5-0.6,2.3s-0.2,1.7-0.3,2.6c0,0.9,0,1.7,0.1,2.5s0.2,1.5,0.3,2.2c0.2,0.8,0.4,1.3,0.6,1.7
			c0.2,0.4,0.5,0.6,0.7,0.8c0.2,0.2,0.5,0.2,0.7,0.2s0.5,0,0.6-0.1c0.3-0.1,0.6-0.2,0.9-0.5c0.3-0.2,0.6-0.5,0.8-0.9
			c0.2-0.4,0.4-0.8,0.6-1.3c0.1-0.5,0.2-1.1,0.2-1.7L358.6,104.4z"/>
	</g>
	<g>
		<path fill="#FFFFFF" d="M379.6,117l-0.2-14.5c0-0.3,0-0.7-0.1-1c-0.1-0.2-0.1-0.5-0.2-0.7s-0.2-0.4-0.3-0.5
			c-0.1-0.1-0.3-0.2-0.5-0.3c-0.2-0.1-0.4-0.1-0.6,0c-0.4,0.1-0.7,0.3-1,0.5c-0.3,0.3-0.5,0.6-0.7,1s-0.3,0.8-0.4,1.4
			c-0.1,0.5-0.2,1-0.2,1.6l0.2,13.4l-5.8,1.3l-0.2-21l5.8-1.3v2.2c0.3-0.6,0.7-1.1,1-1.5c0.4-0.4,0.7-0.7,1.1-1s0.8-0.5,1.1-0.6
			s0.7-0.3,1.1-0.3c0.5-0.1,1-0.2,1.5-0.1c0.5,0,0.9,0.1,1.3,0.3s0.8,0.5,1.1,0.9c0.3,0.4,0.6,0.9,0.9,1.5c0.3-0.8,0.7-1.6,1.1-2.1
			c0.4-0.6,0.8-1,1.3-1.4c0.4-0.3,0.9-0.6,1.3-0.8c0.4-0.2,0.8-0.3,1.2-0.4c0.6-0.1,1.2-0.2,1.8-0.1c0.6,0,1.1,0.2,1.6,0.5
			s0.9,0.7,1.2,1.2c0.4,0.5,0.6,1.2,0.8,2c0.1,0.5,0.2,1.1,0.2,1.8c0,0.6,0.1,1.3,0.1,2s0,1.4,0,2c0,0.7,0,1.3,0,1.9s0,1.2,0,1.7
			s0.1,1,0.1,1.4c0.1,0.5,0.3,0.9,0.6,1.1c0.3,0.3,0.8,0.3,1.4,0.2c0.6-0.1,1.1-0.3,1.3-0.6c0.1,0.8,0,1.4-0.1,2
			c-0.2,0.6-0.4,1.1-0.7,1.5c-0.3,0.4-0.7,0.8-1.2,1s-0.9,0.5-1.5,0.6c-0.8,0.2-1.4,0.2-2,0c-0.6-0.1-1.1-0.4-1.5-0.7
			c-0.4-0.4-0.7-0.8-1-1.3s-0.4-1.1-0.6-1.6c-0.2-0.7-0.2-1.5-0.2-2.4s0-1.9,0-2.9s0-2,0-2.9s-0.1-1.7-0.2-2.3
			c-0.3-1.4-0.9-1.9-1.9-1.7c-0.4,0.1-0.7,0.3-1,0.5c-0.3,0.3-0.5,0.6-0.7,1s-0.3,0.8-0.4,1.3s-0.2,1-0.2,1.6l0.2,13.4L379.6,117z"
			/>
	</g>
	<g>
		<path fill="#FFFFFF" d="M413.3,104.5c0,1.2-0.1,2.2-0.4,3.1c-0.3,0.8-0.7,1.6-1.2,2.1c-0.5,0.6-1.1,1-1.9,1.4
			c-0.7,0.3-1.5,0.6-2.3,0.7c-0.9,0.2-1.8,0.2-2.6,0.1c-0.8-0.1-1.5-0.3-2.2-0.7c-0.6-0.4-1.2-1-1.7-1.7s-0.8-1.7-1-2.8
			c-0.2-0.8-0.2-1.7-0.3-2.7c0-1,0-2.1,0.1-3.2s0.4-2.3,0.7-3.4c0.4-1.1,0.9-2.2,1.5-3.1c0.6-1,1.5-1.8,2.4-2.5
			c1-0.7,2.2-1.2,3.5-1.5c0.9-0.2,1.7-0.2,2.3-0.1c0.6,0.1,1.1,0.3,1.5,0.6c0.4,0.3,0.7,0.7,0.9,1.1s0.4,0.9,0.5,1.4
			c0.2,1.2,0.2,2.3-0.1,3.4s-0.8,2.1-1.5,3s-1.6,1.7-2.6,2.4c-1,0.7-2.1,1.2-3.3,1.5c0,0.2,0,0.4,0.1,0.7c0,0.2,0,0.4,0.1,0.6
			c0.1,0.6,0.3,1.2,0.5,1.6s0.5,0.7,0.7,0.9s0.6,0.3,0.9,0.4c0.3,0,0.7,0,1,0c0.4-0.1,0.8-0.2,1.2-0.4c0.4-0.2,0.8-0.4,1.2-0.7
			c0.4-0.3,0.7-0.6,1.1-0.9C412.8,105.2,413.1,104.8,413.3,104.5z M405.6,101.5c0.8-0.2,1.5-0.5,2.1-1s1.2-1.1,1.6-1.9
			c0.4-0.7,0.7-1.5,0.9-2.3c0.2-0.8,0.2-1.7,0-2.5c-0.1-0.5-0.2-0.9-0.4-1.2c-0.2-0.3-0.5-0.4-0.9-0.3c-0.5,0.1-1,0.4-1.4,1
			s-0.7,1.3-1,2.2c-0.3,0.9-0.5,1.8-0.6,2.9C405.7,99.5,405.6,100.5,405.6,101.5z"/>
	</g>
	<g>
		<path fill="#FFFFFF" d="M425.7,86.1c0.4,1.7,0.7,3.2,1,4.5s0.6,2.4,0.8,3.3c0.2,0.9,0.4,1.7,0.6,2.4c0.2,0.6,0.3,1.2,0.5,1.7
			s0.2,1,0.3,1.4c0.1,0.4,0.2,0.8,0.3,1.3c0.2,0.9,0.2,1.7,0,2.4s-0.3,1.4-0.7,2c-0.3,0.6-0.7,1.1-1.2,1.6s-1,0.8-1.6,1.2
			c-0.6,0.3-1.1,0.6-1.7,0.8c-0.6,0.2-1.2,0.4-1.7,0.5c-1,0.2-1.9,0.2-2.7,0c-0.8-0.2-1.5-0.5-2.1-0.9s-1-0.9-1.4-1.5
			c-0.3-0.6-0.6-1.2-0.7-1.8c-0.1-0.5-0.1-0.9,0-1.3s0.2-0.8,0.3-1.2s0.3-0.7,0.5-0.9c0.2-0.3,0.5-0.5,0.7-0.7
			c0.8-2.2,1.4-4.4,1.8-6.5s0.8-4.2,1.1-6.3L425.7,86.1z M417.5,103.7c0.2,0.9,0.5,1.6,0.9,2c0.5,0.4,1.1,0.5,2,0.4
			c0.4-0.1,0.9-0.2,1.3-0.4c0.4-0.2,0.7-0.5,1-0.8c0.3-0.4,0.5-0.8,0.6-1.3s0.1-1.1,0-1.8c-0.1-0.3-0.1-0.7-0.2-1s-0.2-0.7-0.2-1
			c-0.1-0.4-0.2-0.8-0.3-1.2c-0.1-0.4-0.3-1-0.4-1.5c-0.2-0.6-0.3-1.3-0.5-2c-0.2-0.8-0.4-1.7-0.7-2.7c-0.2,1.4-0.4,2.7-0.8,4.1
			s-0.7,2.7-1.2,4.1c0.3,0.1,0.5,0.2,0.8,0.4c0.2,0.2,0.4,0.5,0.4,0.8c0,0.2,0,0.5,0,0.7c0,0.3-0.1,0.5-0.2,0.7s-0.3,0.4-0.5,0.6
			c-0.2,0.1-0.4,0.2-0.7,0.3c-0.2,0-0.4,0-0.6,0S417.6,103.9,417.5,103.7z"/>
	</g>
	<g>
		<path fill="#FFFFFF" d="M456.8,96.2c0.5,0.9,0.7,1.7,0.8,2.5c0.1,0.7,0,1.4-0.2,2.1c-0.2,0.6-0.6,1.2-1,1.7s-1,0.9-1.6,1.2
			c-0.6,0.3-1.3,0.5-2,0.6c-0.6,0.1-1.3,0.1-2,0s-1.4-0.2-2.1-0.3c-0.7-0.1-1.4-0.2-2.2-0.3c-0.7-0.1-1.5-0.1-2.2,0
			s-1.4,0.3-2.1,0.5c-0.7,0.3-1.5,0.7-2.2,1.2h-0.2c-0.2-0.6-0.4-1.3-0.5-1.9c-0.1-1,0-1.9,0.3-2.8s0.7-1.9,1.2-2.8s1.2-1.8,1.9-2.7
			s1.4-1.8,2.2-2.8c0.7-0.9,1.5-1.9,2.2-2.8c0.7-1,1.3-1.9,1.8-2.9s0.9-2,1.2-3c0.3-1,0.3-2.1,0.2-3.2c-0.1-0.7-0.2-1.4-0.4-2
			c-0.2-0.6-0.4-1.1-0.7-1.5s-0.7-0.7-1.1-0.9c-0.4-0.2-0.9-0.3-1.4-0.2c-0.5,0.1-0.9,0.2-1.3,0.4c-0.4,0.2-0.7,0.5-0.9,0.8
			s-0.4,0.7-0.5,1.1s-0.1,0.9-0.1,1.3c0.1,1,0.4,1.8,0.9,2.5c0.5,0.6,1,1.1,1.6,1.3v0.2c-0.4,0.5-0.9,0.9-1.4,1.2s-1,0.5-1.5,0.6
			c-0.4,0-0.8,0-1.2-0.1c-0.4-0.1-0.7-0.4-1-0.7c-0.3-0.3-0.6-0.7-0.8-1.2s-0.4-1.1-0.5-1.8c-0.1-0.8,0-1.6,0.2-2.5
			c0.3-0.9,0.7-1.7,1.3-2.5s1.5-1.4,2.5-2s2.2-0.9,3.6-1.1c1.2-0.1,2.2-0.1,3.2,0.1s1.9,0.6,2.7,1.1c0.8,0.5,1.4,1.3,1.9,2.1
			c0.5,0.9,0.8,1.9,1,3.1c0.1,1,0.1,1.9-0.2,2.8s-0.6,1.8-1.1,2.6c-0.5,0.8-1.1,1.7-1.7,2.5c-0.7,0.8-1.4,1.6-2.1,2.3
			c-0.7,0.8-1.5,1.5-2.3,2.3s-1.5,1.5-2.2,2.3s-1.3,1.5-1.9,2.3s-1,1.6-1.3,2.4c0.4-0.2,0.8-0.3,1.2-0.4c0.4-0.1,0.8-0.2,1.2-0.2
			c0.7-0.1,1.3-0.1,2-0.1c0.6,0,1.2,0,1.8,0.1c0.6,0,1.1,0.1,1.7,0.1c0.5,0,1,0,1.5,0c0.7-0.1,1.3-0.3,1.9-0.7
			c0.6-0.4,1.2-1,1.8-1.9L456.8,96.2z"/>
	</g>
	<g>
		<path fill="#FFFFFF" d="M469.6,101.3c-1.6,0.1-2.9,0-4.1-0.4c-1.1-0.4-2-1.1-2.7-2s-1.2-1.9-1.6-3.1s-0.6-2.5-0.7-4
			c-0.2-1.9-0.2-3.7,0-5.5c0.1-1.8,0.4-3.5,0.9-5.1c0.4-1.6,1-3.1,1.7-4.5s1.5-2.6,2.5-3.6c0.9-1,2-1.8,3.2-2.5
			c1.2-0.6,2.5-1,3.8-1.1s2.5,0,3.6,0.4c1,0.4,1.9,1,2.6,1.8s1.3,1.8,1.7,3s0.7,2.5,0.8,4c0.1,1,0.1,2.1,0.1,3.2s-0.1,2.3-0.2,3.5
			s-0.3,2.4-0.6,3.7c-0.3,1.2-0.6,2.4-1.1,3.5c-0.4,1.1-1,2.2-1.6,3.2s-1.3,1.9-2.1,2.7c-0.8,0.8-1.7,1.4-2.7,1.9
			C472,100.9,470.9,101.2,469.6,101.3z M472.7,72c-0.7,0.1-1.3,0.4-1.9,1s-1.1,1.4-1.6,2.4s-0.9,2.2-1.3,3.5s-0.7,2.7-0.9,4.2
			c-0.2,1.5-0.4,3-0.4,4.6c-0.1,1.6,0,3.1,0.1,4.6c0.1,0.8,0.2,1.5,0.3,2.2c0.1,0.7,0.3,1.4,0.6,1.9c0.2,0.6,0.6,1,0.9,1.3
			c0.4,0.3,0.8,0.4,1.4,0.4c0.7-0.1,1.3-0.4,1.9-1s1.1-1.4,1.6-2.4s0.9-2.1,1.2-3.4c0.3-1.3,0.6-2.7,0.8-4.2c0.2-1.5,0.3-3,0.4-4.7
			c0-1.6,0-3.2-0.1-4.8c-0.1-0.8-0.2-1.6-0.3-2.3c-0.2-0.7-0.4-1.3-0.6-1.9c-0.2-0.5-0.5-0.9-0.9-1.2C473.5,72.1,473.1,72,472.7,72z
			"/>
	</g>
	<g>
		<path fill="#FFFFFF" d="M484.3,99.3l4.1-25.8l-3.9,0.2l0.4-1.9c0.6,0,1.2-0.1,1.9-0.2c0.7-0.1,1.5-0.3,2.3-0.5
			c0.8-0.3,1.8-0.6,2.8-1.1s2.1-1.1,3.3-1.9l-5,31L484.3,99.3z"/>
	</g>
	<g>
		<path fill="#333333" d="M571,30.2c2.6-6.9-0.1-13.6-2.2-11.2c0,0.6-0.1,2.6-0.1,2.9c0-0.4,0.1-2.3,0.1-2.9v-0.1
			c-0.2-6.6-3.2-9.5-3.7-6.5c0.1,0.4,0.1,0.4,0,0c-0.7-3.7-2.3-5.8-3.6-5.3c-1.4,0.6,0,6.8-1.9,14.4l0,0c-0.9-2.6-2.5-4.2-3.5-2.9
			c-1.3-4.3-3.9-5.8-4.4-3.9c-1.2-2.5-3.2-3.7-4.3-3.2c-0.6,0.3-0.1,1.3,0.4,2.9c1.1,3.3,3.1,9.2,1.9,16.4c-0.4-0.1-0.9-0.3-1.3-0.4
			c-0.1,0-0.1-0.1-0.1-0.1l0,0c-5.2-6.8-12.2-5.3-15.9-1.4c-2.5,2.6-3,6.7-2.2,9.6c0,0.2,0.1,0.3,0.1,0.5c0.2,0.4,0.4,0.8,0.6,1.2
			l0,0l0,0l0,0c0.1,0.2,0.2,0.4,0.4,0.6c0.5,0.9,1.1,1.6,1.6,2.2c2.8,2.1,5.4,1.3,7,1.1c4.8-0.7,6.7-3.2,6.8-5.5l0,0
			c0-0.1,0-0.2,0.1-0.3c0.6-0.6,2.1-0.9,3.4-0.9l0,0c0.1-0.3,0.3-0.6,0.6-0.9l0,0l0,0c2.2-2.6,5.8-5.3,7.9-9.8
			c0.1-0.2,0.1-0.3,0.2-0.5c1.2-2.6,1.7-4.7,2-6.6c0.9-2.7,4-0.4,3.6,2.6l0,0l0,0c1.5-2.1,3.8-0.1,3.3,3.4l0,0
			c0,0.3-0.1,0.5-0.1,0.8l0,0c0.3-0.8,0.4-1.7,0.6-2.5c-0.1,0.8-0.3,1.7-0.6,2.5c1.5-2.7,4.2,0.6,1.8,6.7l0,0v0.1
			c0.5-0.4,1.6-0.7,2.1-0.1c0.7,1,0.6,3.6-1,6.1c-0.1,0.1-0.1,0.2-0.2,0.2c-0.8,1.2-1.8,2.3-3.3,3.2c0.4-0.1,0.7-0.4,1-0.5
			c0.6-0.4,0.9-0.6,1.4-1C575.2,36.2,573.9,26.9,571,30.2z M557,28.4c-0.1,0.2-0.2,0.3-0.2,0.4c-0.7,1.2-1.4,2.5-2.4,3.7
			c0,0,0,0,0,0.1l0,0c-0.5-0.2-0.9-0.4-1.4-0.6c-0.9-0.4-1.9-0.7-2.8-1l0,0c0.2-1.5,0.4-2.7,0.5-3.8c0.2-1.7,0.2-3,0-4.7v-0.1
			c-0.1-2.7,2.4-2.9,3.3,1.2l0,0v-0.1c0.2-2.3,2.4-2,3.2,0.9l0,0c0.3-1.2,1.4-0.6,1.6-0.1C558.8,24.3,557.7,27,557,28.4z"/>
		<g>
			<path fill="#666666" d="M571.7,33.1c-0.5-0.6-1.4-0.5-1.9-0.1c-0.1,0.1-0.1,0.1-0.2,0.2c-0.3,0.6-0.7,1.3-1.2,1.9
				c0.9-0.9,4.2,0.9,2.3,4.1C572.3,36.7,572.5,34.1,571.7,33.1z"/>
			<path fill="#666666" d="M568.5,35.1c0.4-0.6,0.8-1.3,1.2-1.9l0,0l0,0c2.4-6.1-0.3-9.4-1.8-6.7c0,0-0.2,0.8,0,0
				c0.1-0.3,0.1-0.5,0.1-0.8c0.5-3.6-1.8-5.5-3.3-3.5l0,0c-0.5,2-1.2,4.1-2.3,6.3c0,0,0,0,0,0.1c1.5-1.7,4.6-1.1,3.2,3.1
				c0.2-0.3,0.2-0.3,0,0C566.9,30,570.1,31.5,568.5,35.1C568.5,35.2,568.5,35.1,568.5,35.1z"/>
			<path fill="#666666" d="M562.3,28.6c1.1-2.2,1.8-4.3,2.3-6.3l0,0c0.4-3-2.8-5.4-3.7-2.6c-0.4,1.9-0.9,4.1-2.1,6.6l0,0
				C560.3,24.1,563.2,25.4,562.3,28.6z"/>
		</g>
		<path fill="#666666" d="M558.8,24.3c-0.2-0.5-1.3-1.2-1.6,0l0,0c-0.8-2.9-2.9-3-3.3-1c-1-4-3.4-3.8-3.3-1.1v0.2
			c0.3,1.7,0.3,3,0.1,4.8l3.2,1.5c0.6-1.3,2.2-1.6,2.9,0.2c0.1-0.1,0.3-0.5,0.4-0.7C557.2,28.2,558.3,25.7,558.8,24.3z"/>
		<path fill="#333333" d="M556.8,59.7c1.1-0.2,2.1-0.5,3.1-0.8h0.1c-0.8,0.4-0.2,1.9,0.6,2.1c-0.8,0.4-1.5,0.2-1.8-0.6
			c-0.1,0.9,0.5,1.3,1,1.6c-1.3,0.6-2.2-0.7-2.3-1.4c-0.3,0.3,0,1,0.3,1.3C556.9,62,556.1,60.3,556.8,59.7L556.8,59.7z"/>
		<path fill="#333333" d="M560.7,58.6c1.1-0.4,2.2-0.9,3.3-1.4l0.1,0.2c0.3,1,1.1,1,1.7,0.9c-0.5,0.9-2.2,1-2.8,0.6
			c0.1,0.3,0.8,0.9,1.6,0.9c-0.7,1-1.5,0.9-2,0.6C562,60.6,560.6,60.1,560.7,58.6"/>
		<path fill="#333333" d="M531.3,40.8c0.5,0.9,1.1,1.6,1.6,2.2c-1-0.5-4.5-0.1-6.4-0.4C528.3,42.2,530,41.3,531.3,40.8L531.3,40.8z"
			/>
		<path fill="#666666" d="M526.6,42.7c0.7-0.9,2.5-3.3,3.5-4.1h0.1c0,0.2,0.1,0.3,0.1,0.5c0.2,0.4,0.4,0.8,0.6,1.2
			c0.1,0.2,0.2,0.4,0.4,0.6l0,0C530,41.3,528.3,42.2,526.6,42.7"/>
		<path fill="#989898" d="M553.9,28.6c0,0-1.3-3.4-3.2-1.5c0,0-0.3,2.3-0.5,3.8c0.9,0.3,1.8,0.6,2.8,1c0.1-0.1,0.1-0.1,0,0
			c0.5,0.2,0.9,0.4,1.4,0.6l0,0c0,0,0,0,0.1-0.1c0.9-1.2,1.7-2.5,2.4-3.7C556.2,27,554.7,27.1,553.9,28.6z"/>
		<path fill="#989898" d="M568.6,34.8c1.4-3.4-1.7-4.8-3.1-3.2c-0.2,0.3-0.4,0.7-0.6,1c0.2-0.3,0.4-0.7,0.6-1
			c1.4-4.1-1.7-4.8-3.2-3.1c0,0,0.4-1.2,0-2.3c0,0-1.5-2.6-3.4-0.1l-0.1,0.1c-0.1,0.2-0.1,0.3-0.1,0.4c-2.1,4.5-5.7,7.2-7.9,9.8l0,0
			c-0.2,0.3-0.4,0.6-0.6,0.9l0,0l0,0c1.5,0,3,0.6,4.6,1.3v-0.1v0.1c1.1,0.5,2.2,1.1,3.3,1.7v-0.1l0,0v0.1c1.1,0.6,2.2,1.1,3.4,1.5
			l0,0c1.6,0.6,3.4,1,5.3,0.8c0.2-0.1,0.3-0.1,0.5-0.2c1.4-0.9,2.5-2.1,3.3-3.2c0.1-0.1,0.1-0.2,0.2-0.2
			C572.1,37.3,571.3,34.1,568.6,34.8z M561.6,42L561.6,42L561.6,42L561.6,42z"/>
		<g>
			<path fill="#D8C824" d="M541.1,43.9c-0.1,0-0.3,0.1-0.5,0.1C540.8,44,541,44,541.1,43.9z"/>
			<path fill="#D8C824" d="M576.4,45.5c0-0.4-0.2-0.8-0.3-1.1c-0.1-0.2-0.2-0.3-0.3-0.5c-0.4-0.5-0.9-0.8-1.2-0.9
				c-0.5-0.2-0.9-0.4-1.3-0.5l0,0c-1.4-0.6-2.7-1-3.5-1.3l0,0c-0.5,0.4-1,0.8-1.6,1.2c11.9,3,3,12.1-8.8,16.1l0,0
				c-0.3,0.1-0.6,0.1-0.9,0.2c-0.3,0.1-0.7,0.2-1,0.2h-0.1c-0.6,0.1-1.1,0.2-1.7,0.2c-8.1,0.8-12.6-3.7-14.6-8.1
				c-1.2-2.7-2-5.6-1.1-6.8c0.2,0,0.4-0.1,0.6-0.1c-2,0.3-5,0.2-7.7-1c1.2,1.2,3,2,4,2.7c2.9,2.1,2.3,8.1,9.4,12.3
				c3.4,2,6.9,2.3,10.5,1.6c1.1-0.2,2.1-0.5,3.1-0.8c0.2-0.1,0.5-0.2,0.7-0.2c1.1-0.4,2.2-0.9,3.3-1.4c3.4-1.6,6.2-3.6,7.8-4.8l0,0
				c0.6-0.5,1.1-0.9,1.2-1c0.5-0.4,0.9-0.8,1.2-1.2c0.8-0.9,1.4-1.8,1.7-2.5c0.1-0.2,0.1-0.3,0.2-0.5c0.2-0.5,0.2-0.9,0.2-1.3
				C576.4,45.8,576.4,45.6,576.4,45.5z"/>
		</g>
		<path fill="#333333" d="M590.6,48.5c1.1-1.8,0.1-2.9-1.7-3.2l0,0l0,0c0.4-0.5,1.1-2-1.7-2.1l0,0l0,0l0,0c1.4-1.3-1.2-1.8-3.4-1.5
			c0.3,0,0.5,0,0.8,0c-0.3,0-0.5,0-0.8,0c-0.1,0-0.3,0-0.4,0.1c-2.1,0.4-6.7,1.5-10.2,0.7c0.4,0.2,0.9,0.3,1.3,0.5
			c0.3,0.1,0.8,0.4,1.2,0.9l0,0l0,0c0.4,0.6,0.6,1.1,0.7,1.6l0,0l0,0c0,0.1-0.1,1.1-0.3,1.7c-0.1,0.6-1,2.1-1.9,3l0,0
			c-0.4,0.4-0.8,0.8-1.2,1.2c-0.2,0.2-0.6,0.5-1.2,1c0.2-0.1,0.3-0.2,0.5-0.3c2.7-1.8,4.7-1.9,6.8-1.9c3,0,8.8,1.5,11.4,0.7
			C591.5,50.5,592,49,590.6,48.5z"/>
		<path fill="#CBCBCB" d="M566.8,42.9c-1.9,0.1-3.7-0.2-5.3-0.8c-1.2-0.4-2.3-1-3.4-1.5c-1.1-0.6-2.2-1.2-3.3-1.7
			c-1.5-0.7-3-1.3-4.6-1.3c0.3-0.6,0.1-0.6,1.1-1.5c2.1-1.2,5,0.3,7.6,2.3c2.8,2,8,4.7,9.9,3.2C568.1,42.2,567.5,42.7,566.8,42.9"/>
		<path fill="#1A1A1A" d="M539.8,34.9c0.5,1.1,0,2.4-1.1,2.8c-1.1,0.5-2.4,0-2.8-1.1c-0.5-1.1,0-2.4,1.1-2.8
			C538.1,33.3,539.4,33.8,539.8,34.9"/>
		<path fill="none" stroke="#FFFFFF" stroke-width="0.147" d="M539.8,34.9c0.5,1.1,0,2.4-1.1,2.8c-1.1,0.5-2.4,0-2.8-1.1
			c-0.5-1.1,0-2.4,1.1-2.8C538.1,33.3,539.4,33.8,539.8,34.9z"/>
		<path fill="#FFFFFF" d="M536.2,36c-0.1-0.4,0-0.9,0.2-1.2c0.4-0.5,1.9-0.8,1.7,0.2c-0.1,0.4-0.3,0.4-0.5,0.6
			c-0.3,0.3-0.3,0.6-0.7,0.8C536.7,36.5,536.3,36.3,536.2,36"/>
		<path fill="#FFFFFF" d="M529.9,39.3c0.4,0.6-1.2,1.9-2,2.3C528.7,40.5,529.6,39.7,529.9,39.3"/>
		<path fill="#E5D351" d="M568.1,42.3c-1.3,0.9-5,0.4-6.6-0.2c-1.2-0.4-2.3-1-3.4-1.5c-1.1-0.6-2.2-1.2-3.3-1.7
			c-1.5-0.7-3-1.3-4.6-1.3l0,0c-1.4,0-2.8,0.3-3.4,0.9c0,0.1,0,0.2-0.1,0.3c-0.1,2.3-2,4.8-6.8,5.5c-0.8,1.2-0.1,4.1,1.1,6.8
			c2.3,5,7.8,10.1,18.2,7.4l0,0C571.1,54.4,580.1,45.3,568.1,42.3z"/>
	</g>
	<g>
		<path fill="#FFFFFF" d="M500.9,96.6c-0.7-0.9-1-2.2-1-3.8c0.1-1.7,0.6-3.4,1.5-5.1s2-3.3,3.1-4.8c1.2-1.5,2.7-3.2,4.5-5.1
			c1.5-1.6,2.5-2.8,3.2-3.6s1-1.5,1-2c-0.5,0.1-1,0.2-1.5,0.3c-0.5,0.1-0.9,0.1-1.4,0.1c-0.7,0-1.6-0.2-2.6-0.6
			c-0.1,0-0.5-0.1-1.1-0.3c-0.6-0.2-1.2-0.3-1.8-0.3c-0.8,0-1.5,0.1-2.2,0.4s-1.3,0.8-2,1.6h-0.1c-0.3-0.8-0.5-1.7-0.4-2.6
			c0.1-1.5,0.6-2.6,1.7-3.5c1.1-0.8,2.5-1.2,4.2-1.1c0.6,0,1.2,0.1,1.8,0.2c0.6,0.1,1.2,0.3,2,0.6c0.9,0.3,1.6,0.5,2.2,0.6
			s1.3,0.2,2,0.3c1.6,0.1,3.5-0.2,5.7-0.6v0.2c0,0.6-0.4,1.5-1.1,2.7c-0.7,1.1-1.8,2.8-3.3,4.9c-1.8,2.5-3.3,4.7-4.4,6.5
			s-2.2,3.7-3.1,5.8c-0.9,2-1.4,4-1.5,5.7c-0.1,1.5,0.1,2.9,0.6,4.4c-1,0.5-2,0.7-3,0.7C502.7,98.1,501.7,97.6,500.9,96.6z"/>
	</g>
</g>
</svg>
