<?xml version="1.0" encoding="utf-8"?>
<svg version="1.1" id="Layer_1" xmlns="http://www.w3.org/2000/svg" xmlns:xlink="http://www.w3.org/1999/xlink" x="0px" y="0px"
	 viewBox="0 0 1400 212" enable-background="new 0 0 1400 212" xml:space="preserve">
<path fill="#333333" d="M1047.5,26c2.6-6.9-0.1-13.5-2.2-11.1c0,0.6-0.1,2.6-0.1,2.9c0-0.4,0.1-2.3,0.1-2.9v-0.1
	c-0.2-6.6-3.2-9.4-3.7-6.5c0.1,0.4,0.1,0.4,0,0c-0.7-3.7-2.3-5.8-3.6-5.3c-1.4,0.6,0,6.8-1.9,14.3l0,0c-0.9-2.6-2.5-4.2-3.5-2.9
	c-1.3-4.3-3.9-5.8-4.4-3.9c-1.2-2.5-3.2-3.7-4.3-3.2c-0.6,0.3-0.1,1.3,0.4,2.9c1.1,3.3,3.1,9.1,1.9,16.3c-0.4-0.1-0.9-0.3-1.3-0.4
	c-0.1,0-0.1-0.1-0.1-0.1l0,0c-5.2-6.8-12.1-5.3-15.8-1.4c-2.5,2.6-3,6.7-2.2,9.5c0,0.2,0.1,0.3,0.1,0.5c0.2,0.4,0.4,0.8,0.6,1.2l0,0
	l0,0l0,0c0.1,0.2,0.2,0.4,0.4,0.6c0.5,0.9,1.1,1.6,1.6,2.2c2.8,2.1,5.4,1.3,7,1.1c4.8-0.7,6.7-3.2,6.8-5.5l0,0c0-0.1,0-0.2,0.1-0.3
	c0.6-0.6,2.1-0.9,3.4-0.9l0,0c0.1-0.3,0.3-0.6,0.6-0.9l0,0l0,0c2.2-2.6,5.8-5.3,7.9-9.7c0.1-0.2,0.1-0.3,0.2-0.5
	c1.2-2.6,1.7-4.7,2-6.6c0.9-2.7,4-0.4,3.6,2.6l0,0l0,0c1.5-2.1,3.8-0.1,3.3,3.4l0,0c0,0.3-0.1,0.5-0.1,0.8l0,0
	c0.3-0.8,0.4-1.7,0.6-2.5c-0.1,0.8-0.3,1.7-0.6,2.5c1.5-2.7,4.2,0.6,1.8,6.7l0,0V29c0.5-0.4,1.6-0.7,2.1-0.1c0.7,1,0.6,3.6-1,6.1
	c-0.1,0.1-0.1,0.2-0.2,0.2c-0.8,1.2-1.8,2.3-3.3,3.2c0.4-0.1,0.7-0.4,1-0.5c0.6-0.4,0.9-0.6,1.4-1C1051.7,32,1050.4,22.8,1047.5,26z
	 M1033.6,24.3c-0.1,0.2-0.2,0.3-0.2,0.4c-0.7,1.2-1.4,2.5-2.4,3.7c0,0,0,0,0,0.1l0,0c-0.5-0.2-0.9-0.4-1.4-0.6
	c-0.9-0.4-1.9-0.7-2.8-1l0,0c0.2-1.5,0.4-2.7,0.5-3.8c0.2-1.7,0.2-3,0-4.7v-0.1c-0.1-2.7,2.4-2.9,3.3,1.2l0,0v-0.1
	c0.2-2.3,2.4-2,3.2,0.9l0,0c0.3-1.2,1.4-0.6,1.6-0.1C1035.4,20.2,1034.3,22.9,1033.6,24.3z"/>
<path fill="#FFFFFF" d="M330.9,177.4c0.1-2.2,0.1-4.4-0.1-6.5c-1.4-15.6-3.1-20.8-14.4-31.4c-6.3-5.9-14.4-13-22.2-14.5
	c-4-0.8-17.2-1.8-20.4,3.8c-0.5-4.7-2.5-9.5-6-12.8c-4-3.8-10-6.6-15.5-6.1c-0.6,0-4.5,0.3-4.7,0.7c2.6-8.7,0.5-18.6-5.3-25.6
	s-15.2-10.8-24.3-9.9c-1.4,0.1-2.9,0.4-4.2-0.2c-1.8-0.8-2.5-2.9-3.2-4.8c-4.1-10.3-13.8-18.3-24.8-20S163,53,156.1,61.6
	c-14.1-8.7-34.8-4-43.7,9.9c-8.5-2.5-18.3-0.7-25.3,4.7C80,81.6,75.8,90.5,75.8,99.4c-21.1,3.2-38.2,23.1-38.4,44.3
	c-18.5,1-35.1,17-36.8,35.5c-0.9,9.7,2.7,20.6,11.2,25.3c5.7,3.2,12.4,3.2,18.8,3.2c85.9-0.1,171.8-0.2,257.7-0.2
	c11.6,0,24.4-0.4,33.1-8.2C327.6,193.8,330.4,185.7,330.9,177.4"/>
<path fill="#FFFFFF" d="M1399.4,133.1c0.1-2,0.1-4.1-0.1-6.1c-1.3-14.6-2.9-19.5-13.5-29.4c-5.9-5.6-13.5-12.1-20.8-13.6
	c-3.7-0.7-16.2-1.7-19.1,3.5c-0.4-4.4-2.4-8.9-5.6-12c-3.7-3.6-9.3-6.1-14.5-5.8c-0.5,0-4.2,0.3-4.4,0.7c2.4-8.1,0.5-17.5-5-24
	c-5.5-6.6-14.2-10.1-22.7-9.2c-1.3,0.1-2.8,0.4-4-0.2c-1.7-0.8-2.3-2.7-3-4.5c-3.8-9.7-13-17.1-23.3-18.7s-21.3,2.7-27.8,10.8
	c-13.2-8.1-32.6-3.8-40.9,9.3c-8.1-2.3-17.1-0.7-23.8,4.4c-6.7,5.1-10.7,13.3-10.7,21.7c-19.7,3-35.8,21.7-36,41.5
	c-17.4,1-32.9,15.9-34.5,33.2c-0.8,9.1,2.5,19.3,10.5,23.8c5.3,3,11.6,3,17.6,3c80.5-0.1,161-0.1,241.5-0.2c10.9,0,22.9-0.4,31-7.7
	C1396.4,148.5,1399,140.9,1399.4,133.1"/>
<path fill="#DD7537" d="M975.5,59.2v109.6c73.2,3.6,178.7,33.1,178.7,33.1l-50.6-66.6l43.4-42.5C1147.1,92.9,1042.6,61.8,975.5,59.2
	"/>
<path fill="#BE7345" d="M1037.1,148.3c-20.5,0.2-40,0.2-61.5,1.7v8.2C998.2,152.2,1023.8,149,1037.1,148.3 M1046.3,148L1046.3,148
	C1046.4,148,1046.4,148,1046.3,148L1046.3,148z"/>
<path fill="#DD7537" d="M430.3,188.6V72.9c-68.2-3.3-177.7-33.5-177.7-33.5l50.8,62.4l-51,45.7C252.3,147.6,356.8,182.1,430.3,188.6
	"/>
<path fill="#BE7345" d="M430.3,84.1c-2.1,1.5-25.7,7.9-32.6,7.6c10.4,0.5,21.8,2,32.6,1.2V84.1z"/>
<path fill="#EC9059" d="M1037.1,148.3c-111.9-0.2-225.5,19.9-337.4,34.5c-115.3,19-224.6,31.9-333.9,23.8
	c10.6-38.3,21.3-76.5,32-114.8c194.2,11.7,402.9-61.3,607.5-54.9C1015.8,74,1026.4,111.2,1037.1,148.3"/>
<path fill="#666666" d="M1048.2,29c-0.5-0.6-1.4-0.5-1.9-0.1c-0.1,0.1-0.1,0.1-0.2,0.2c-0.3,0.6-0.7,1.3-1.2,1.9
	c0.9-0.9,4.2,0.9,2.3,4.1C1048.8,32.5,1049,30,1048.2,29z"/>
<path fill="#666666" d="M1045,30.9c0.4-0.6,0.8-1.3,1.2-1.9l0,0l0,0c2.4-6.1-0.3-9.3-1.8-6.7c0,0-0.2,0.8,0,0
	c0.1-0.3,0.1-0.5,0.1-0.8c0.5-3.6-1.8-5.5-3.3-3.5l0,0c-0.5,2-1.2,4.1-2.3,6.3c0,0,0,0,0,0.1c1.5-1.7,4.6-1.1,3.2,3.1
	c0.2-0.3,0.2-0.3,0,0C1043.4,25.9,1046.6,27.4,1045,30.9L1045,30.9z"/>
<path fill="#666666" d="M1038.9,24.4c1.1-2.2,1.8-4.3,2.3-6.3l0,0c0.4-3-2.8-5.4-3.7-2.6c-0.4,1.9-0.9,4.1-2.1,6.6l0,0
	C1036.9,20,1039.7,21.3,1038.9,24.4z"/>
<path fill="#666666" d="M1035.4,20.2c-0.2-0.5-1.3-1.2-1.6,0l0,0c-0.8-2.9-2.9-3-3.3-1c-1-4-3.4-3.8-3.3-1.1v0.2
	c0.3,1.7,0.3,3,0.1,4.8l3.2,1.5c0.6-1.3,2.2-1.6,2.9,0.2c0.1-0.1,0.3-0.5,0.4-0.7C1033.8,24.1,1034.9,21.5,1035.4,20.2z"/>
<path fill="#333333" d="M1033.5,55.3c1.1-0.2,2.1-0.5,3.1-0.8h0.1c-0.8,0.4-0.2,1.9,0.6,2.1c-0.8,0.4-1.5,0.2-1.8-0.6
	c-0.1,0.9,0.5,1.3,1,1.6c-1.3,0.6-2.2-0.7-2.3-1.4c-0.3,0.3,0,1,0.3,1.3C1033.5,57.7,1032.7,56,1033.5,55.3L1033.5,55.3z"/>
<path fill="#333333" d="M1037.3,54.3c1.1-0.4,2.2-0.9,3.3-1.4l0.1,0.2c0.3,1,1.1,1,1.7,0.9c-0.5,0.9-2.2,1-2.8,0.6
	c0.1,0.3,0.8,0.9,1.6,0.9c-0.7,1-1.5,0.9-2,0.6C1038.6,56.3,1037.2,55.7,1037.3,54.3"/>
<path fill="#333333" d="M1008,36.6c0.5,0.9,1.1,1.6,1.6,2.2c-1-0.5-4.5-0.1-6.4-0.4C1005.1,38,1006.7,37.1,1008,36.6L1008,36.6z"/>
<path fill="#666666" d="M1003.4,38.4c0.7-0.9,2.5-3.3,3.5-4.1h0.1c0,0.2,0.1,0.3,0.1,0.5c0.2,0.4,0.4,0.8,0.6,1.2
	c0.1,0.2,0.2,0.4,0.4,0.6l0,0C1006.7,37.1,1005.1,38,1003.4,38.4"/>
<path fill="#989898" d="M1030.5,24.5c0,0-1.3-3.4-3.2-1.5c0,0-0.3,2.3-0.5,3.8c0.9,0.3,1.8,0.6,2.8,1c0.1-0.1,0.1-0.1,0,0
	c0.5,0.2,0.9,0.4,1.4,0.6l0,0c0,0,0,0,0.1-0.1c0.9-1.2,1.7-2.5,2.4-3.7C1032.8,22.9,1031.3,23,1030.5,24.5z"/>
<path fill="#989898" d="M1045.1,30.6c1.4-3.4-1.7-4.8-3.1-3.2c-0.2,0.3-0.4,0.7-0.6,1c0.2-0.3,0.4-0.7,0.6-1
	c1.4-4.1-1.7-4.8-3.2-3.1c0,0,0.4-1.2,0-2.3c0,0-1.5-2.6-3.4-0.1l-0.1,0.1c-0.1,0.2-0.1,0.3-0.1,0.4c-2.1,4.5-5.7,7.2-7.9,9.7l0,0
	c-0.2,0.3-0.4,0.6-0.6,0.9l0,0l0,0c1.5,0,3,0.6,4.6,1.3v-0.1v0.1c1.1,0.5,2.2,1.1,3.3,1.7l0,0l0,0v0.1c1.1,0.6,2.2,1.1,3.4,1.5l0,0
	c1.6,0.6,3.4,1,5.3,0.8c0.2-0.1,0.3-0.1,0.5-0.2c1.4-0.9,2.5-2.1,3.3-3.2c0.1-0.1,0.1-0.2,0.2-0.2
	C1048.6,33.1,1047.8,30,1045.1,30.6z M1038.2,37.7L1038.2,37.7C1038.2,37.7,1038.2,37.8,1038.2,37.7L1038.2,37.7z"/>
<path fill="#D8C824" d="M1017.8,39.7c-0.1,0-0.3,0.1-0.5,0.1C1017.5,39.8,1017.7,39.7,1017.8,39.7z"/>
<path fill="#D8C824" d="M1052.9,41.3c0-0.4-0.2-0.8-0.3-1.1c-0.1-0.2-0.2-0.3-0.3-0.5c-0.4-0.5-0.9-0.8-1.2-0.9
	c-0.5-0.2-0.9-0.4-1.3-0.5l0,0c-1.4-0.6-2.7-1-3.5-1.3l0,0c-0.5,0.4-1,0.8-1.6,1.2c11.8,3,3,12-8.7,16l0,0c-0.3,0.1-0.6,0.1-0.9,0.2
	s-0.7,0.2-1,0.2h-0.1c-0.6,0.1-1.1,0.2-1.7,0.2c-8.1,0.8-12.5-3.7-14.5-8.1c-1.2-2.7-2-5.6-1.1-6.8c0.2,0,0.4-0.1,0.6-0.1
	c-2,0.3-5,0.2-7.7-1c1.2,1.2,3,2,4,2.7c2.9,2.1,2.3,8.1,9.3,12.2c3.4,2,6.9,2.3,10.4,1.6c1.1-0.2,2.1-0.5,3.1-0.8
	c0.2-0.1,0.5-0.2,0.7-0.2c1.1-0.4,2.2-0.9,3.3-1.4c3.4-1.6,6.2-3.6,7.8-4.8l0,0c0.6-0.5,1.1-0.9,1.3-1c0.5-0.4,0.9-0.8,1.2-1.2
	c0.8-0.9,1.4-1.8,1.7-2.5c0.1-0.2,0.1-0.3,0.2-0.5c0.2-0.5,0.2-0.9,0.2-1.3C1052.9,41.6,1052.9,41.4,1052.9,41.3z"/>
<path fill="#333333" d="M1067,44.3c1.1-1.8,0.1-2.9-1.7-3.2l0,0l0,0c0.4-0.5,1.1-2-1.7-2.1l0,0l0,0l0,0c1.4-1.3-1.2-1.8-3.4-1.5
	c0.3,0,0.5,0,0.8,0c-0.3,0-0.5,0-0.8,0c-0.1,0-0.3,0-0.4,0.1c-2.1,0.4-6.7,1.5-10.1,0.7c0.4,0.2,0.9,0.3,1.3,0.5
	c0.3,0.1,0.8,0.4,1.2,0.9l0,0l0,0c0.4,0.6,0.6,1.1,0.7,1.6l0,0l0,0c0,0.1-0.1,1.1-0.3,1.7s-1,2.1-1.9,3l0,0
	c-0.4,0.4-0.8,0.8-1.2,1.2c-0.2,0.2-0.6,0.5-1.3,1c0.2-0.1,0.3-0.2,0.5-0.3c2.7-1.8,4.7-1.9,6.8-1.9c3,0,8.7,1.5,11.3,0.7
	C1067.9,46.3,1068.4,44.8,1067,44.3z"/>
<path fill="#CBCBCB" d="M1043.4,38.7c-1.9,0.1-3.7-0.2-5.3-0.8c-1.2-0.4-2.3-1-3.4-1.5c-1.1-0.6-2.2-1.2-3.3-1.7
	c-1.5-0.7-3-1.3-4.6-1.3c0.3-0.6,0.1-0.6,1.1-1.5c2.1-1.2,5,0.3,7.6,2.3c2.8,2,8,4.7,9.8,3.2C1044.6,38,1044,38.5,1043.4,38.7"/>
<path fill="#1A1A1A" d="M1016.5,30.7c0.5,1.1,0,2.4-1.1,2.8c-1.1,0.5-2.4,0-2.8-1.1c-0.5-1.1,0-2.4,1.1-2.8
	C1014.8,29.2,1016.1,29.7,1016.5,30.7"/>
<ellipse transform="matrix(0.9205 -0.3908 0.3908 0.9205 68.362 398.9675)" fill="none" stroke="#FFFFFF" stroke-width="0.1461" cx="1014.5" cy="31.5" rx="2.2" ry="2.2"/>
<path fill="#FFFFFF" d="M1012.9,31.8c-0.1-0.4,0-0.9,0.2-1.2c0.4-0.5,1.9-0.8,1.7,0.2c-0.1,0.4-0.3,0.4-0.5,0.6
	c-0.3,0.3-0.3,0.6-0.7,0.8C1013.4,32.3,1013,32.1,1012.9,31.8"/>
<path fill="#FFFFFF" d="M1006.6,35.1c0.4,0.6-1.2,1.9-2,2.3C1005.5,36.3,1006.4,35.4,1006.6,35.1"/>
<g>
	<path fill="#FFFFFF" d="M464.9,174.2l9.3-44.2l10.3-1.5l-3.3,15.4h0.4c1.4,0,2.7-0.3,3.9-1c1.2-0.7,2.3-1.6,3.2-2.7
		s1.6-2.3,2.2-3.7s0.8-2.7,0.8-4c0-1-0.2-1.9-0.5-2.8s-0.9-1.7-1.6-2.4s-1.7-1.3-2.9-1.7c-1.2-0.4-2.6-0.6-4.3-0.6
		c-1.4,0-2.8,0.2-4.2,0.5c-1.4,0.3-2.7,0.8-4,1.4s-2.5,1.4-3.6,2.3s-2.1,2-3,3.3s-1.5,2.7-2,4.3s-0.7,3.3-0.7,5.2
		c0,0.9,0.1,1.6,0.2,2.2s0.2,1,0.3,1.3c0.1,0.3,0.2,0.6,0.3,0.8c0.1,0.2,0.2,0.3,0.2,0.5c-2.4,0-4.2-0.5-5.5-1.4c-1.3-1-2-2.6-2-5
		c0-1.6,0.3-3.2,1-4.7c0.6-1.5,1.5-3,2.7-4.4c1.1-1.4,2.5-2.6,4.1-3.8s3.3-2.2,5.2-3c1.9-0.8,3.9-1.5,6-2s4.3-0.7,6.5-0.7
		c2.6,0,4.8,0.3,6.7,0.9c1.9,0.6,3.4,1.4,4.6,2.5c1.2,1,2.1,2.2,2.7,3.6c0.6,1.3,0.9,2.7,0.9,4.2c0,1-0.1,2.1-0.4,3.1
		s-0.7,2.1-1.3,3c-0.6,0.9-1.3,1.9-2.2,2.7c-0.9,0.9-1.9,1.6-3,2.2c1.5,0.3,2.8,0.8,3.8,1.5s1.9,1.6,2.6,2.6s1.1,2.1,1.4,3.4
		c0.3,1.2,0.4,2.5,0.4,3.8c0,1.1-0.1,2.4-0.3,3.8c-0.2,1.4-0.6,2.9-1,4.4c-0.5,1.5-1.1,3-1.9,4.4s-1.7,2.7-2.9,3.8
		c-1.1,1.1-2.5,2-4,2.7s-3.3,1-5.2,1c-0.8,0-1.5-0.1-2.4-0.2c-0.8-0.1-1.6-0.4-2.2-0.8c-0.7-0.4-1.2-0.9-1.7-1.6
		c-0.4-0.7-0.7-1.5-0.7-2.6c0-0.6,0.1-1.2,0.2-1.9s0.4-1.4,0.7-2.2c0.9,1,1.7,1.6,2.4,2c0.7,0.4,1.5,0.5,2.3,0.5
		c1.3,0,2.4-0.4,3.2-1.2c0.9-0.8,1.6-1.8,2.1-3.1c0.5-1.2,0.9-2.6,1.2-4.1c0.2-1.5,0.4-2.9,0.4-4.2c0-1.2-0.1-2.4-0.3-3.4
		c-0.2-1.1-0.6-2-1.1-2.8s-1.2-1.5-2-1.9c-0.8-0.5-1.9-0.7-3.2-0.7c-0.3,0-0.7,0-1.3,0c-0.6,0-1.2,0.1-1.9,0.2l-5.7,26.6
		L464.9,174.2z"/>
</g>
<g>
	<path fill="#FFFFFF" d="M531.8,160.5c-0.1,0.4-0.1,0.8-0.2,1.2c-0.1,0.4,0,0.7,0,1.1c0.1,1,0.3,1.6,0.8,2c0.5,0.3,1.2,0.5,2.2,0.4
		c0.3,0,0.6-0.1,0.8-0.1c0.2-0.1,0.5-0.2,0.7-0.3c-0.4,1.2-0.8,2.3-1.2,3.2s-0.8,1.7-1.3,2.3s-1.1,1.1-1.7,1.4
		c-0.7,0.3-1.4,0.5-2.3,0.6c-1.9,0.1-3.5-0.3-4.8-1.4c-1.3-1.1-2.1-2.6-2.5-4.7c-0.5,0.8-1,1.7-1.7,2.5c-0.6,0.8-1.4,1.6-2.2,2.2
		c-0.8,0.7-1.7,1.2-2.8,1.7c-1,0.4-2.1,0.7-3.4,0.8c-1.2,0.1-2.4,0-3.5-0.4s-2.2-0.9-3.1-1.7s-1.7-1.9-2.3-3.3
		c-0.6-1.4-1-3.1-1.1-5.2c-0.1-1.6-0.1-3.3,0.1-5.1s0.6-3.7,1.1-5.6c0.5-1.9,1.3-3.7,2.1-5.4c0.9-1.7,1.9-3.3,3.2-4.7
		c1.2-1.4,2.7-2.5,4.3-3.4c1.6-0.9,3.5-1.4,5.5-1.5s3.4,0.1,4.4,0.7s1.4,1.4,1.5,2.4v0.5l0.5-3.8l10-0.6L531.8,160.5z M524.3,143.9
		c0-0.2-0.1-0.5-0.2-0.8c-0.1-0.3-0.3-0.6-0.5-0.9s-0.5-0.5-0.9-0.7s-0.8-0.2-1.4-0.2c-1,0.1-1.9,0.4-2.7,1.1s-1.6,1.6-2.2,2.7
		c-0.7,1.1-1.2,2.3-1.7,3.7s-0.9,2.8-1.2,4.2s-0.5,2.9-0.6,4.3c-0.1,1.4-0.1,2.6-0.1,3.7c0.1,1.3,0.3,2.4,0.6,3.1s0.6,1.2,1,1.6
		c0.4,0.3,0.8,0.5,1.2,0.6c0.4,0,0.8,0.1,1.1,0c0.5,0,1.1-0.2,1.6-0.5c0.6-0.3,1.1-0.7,1.6-1.3c0.5-0.5,0.9-1.2,1.3-2
		s0.7-1.7,0.8-2.8L524.3,143.9z"/>
</g>
<g>
	<path fill="#FFFFFF" d="M543.8,123.2l10.1-2.4l-1.8,15.9c0.7-0.5,1.3-0.9,1.8-1.2s1-0.6,1.5-0.7c0.4-0.2,0.8-0.3,1.2-0.4
		c0.4-0.1,0.7-0.1,1.1-0.2c1.2-0.1,2.4,0,3.4,0.3s2,0.9,2.8,1.8c0.8,0.9,1.5,2,2,3.5s0.9,3.3,1.1,5.5c0.1,1.4,0.1,2.9,0,4.6
		s-0.4,3.5-0.8,5.3c-0.4,1.8-1,3.6-1.9,5.3c-0.8,1.8-1.9,3.3-3.1,4.8s-2.8,2.6-4.7,3.6c-1.8,1-4,1.6-6.5,1.8
		c-3.2,0.3-5.7-0.2-7.5-1.6c-1.8-1.4-2.8-3.5-3.1-6.3c-0.1-0.7-0.1-1.3-0.1-2s0.1-1.4,0.2-2L543.8,123.2z M549.5,158.9
		c-0.1,0.6-0.1,1.1-0.1,1.6c0.2,2.2,1.5,3.1,4,2.9c0.7-0.1,1.4-0.4,2.1-1c0.7-0.6,1.2-1.3,1.8-2.2s1-2,1.4-3.2s0.7-2.4,0.9-3.7
		s0.4-2.6,0.4-3.9c0.1-1.3,0-2.6-0.1-3.8c-0.1-0.8-0.2-1.7-0.5-2.4c-0.2-0.8-0.5-1.5-0.9-2.1s-0.8-1.1-1.3-1.4s-1.1-0.5-1.7-0.4
		c-0.3,0-0.6,0.1-0.9,0.1s-0.8,0.2-1.2,0.3s-0.8,0.3-1.1,0.5s-0.6,0.4-0.8,0.7L549.5,158.9z"/>
</g>
<g>
	<path fill="#FFFFFF" d="M587.2,161.1c-0.6,0.9-1.3,1.7-2,2.3s-1.4,1.1-2.1,1.5c-0.7,0.4-1.4,0.6-2,0.8c-0.7,0.2-1.3,0.3-1.9,0.4
		c-1,0.1-2,0.1-3-0.1c-0.9-0.2-1.8-0.6-2.5-1.2c-0.7-0.6-1.4-1.4-1.9-2.4s-0.8-2.2-1-3.7c-0.1-0.6-0.1-1.3-0.1-2.1s0-1.6,0.1-2.5
		l2.1-22.8l9.9-1.2l-2.2,24.1c-0.1,0.6-0.1,1.2,0,1.8c0,0.4,0.1,0.8,0.2,1.1c0.1,0.4,0.3,0.7,0.5,0.9s0.4,0.5,0.7,0.6s0.6,0.2,1,0.1
		c0.7-0.1,1.3-0.3,1.8-0.7s1-0.9,1.4-1.5s0.7-1.3,1-2.1s0.5-1.7,0.6-2.6l2.1-22.8l10-1.2l-3.8,41c-0.2,2.5-0.7,4.6-1.5,6.3
		c-0.8,1.6-1.7,3-2.8,4s-2.2,1.7-3.5,2.2c-1.2,0.4-2.4,0.7-3.6,0.9c-1,0.1-2.1,0.1-3.1-0.2c-1-0.2-2-0.7-2.8-1.2
		c-0.8-0.6-1.5-1.3-2.1-2.1c-0.6-0.9-0.9-1.9-1.1-3c-0.2-1.6,0-3,0.5-4.2s1.2-2.2,2.2-3.1s2.2-1.7,3.6-2.4c1.4-0.7,2.9-1.4,4.5-2.1
		L587.2,161.1z M586.6,166.5c-1,0.5-2,1-2.9,1.6s-1.7,1.2-2.3,1.8c-0.6,0.7-1.1,1.4-1.4,2.2c-0.3,0.8-0.4,1.6-0.3,2.6
		c0,0.3,0.1,0.5,0.3,0.8s0.4,0.5,0.7,0.7s0.6,0.3,0.9,0.4c0.4,0.1,0.7,0.1,1.1,0.1c0.3,0,0.7-0.2,1.1-0.4c0.4-0.2,0.7-0.6,1.1-1
		c0.3-0.5,0.6-1.1,0.8-1.8s0.4-1.6,0.5-2.7L586.6,166.5z"/>
</g>
<g>
	<path fill="#FFFFFF" d="M617.8,161l2.6-35.5l9.9-1.4l-0.2,3.7c0.6-0.9,1.3-1.7,1.9-2.3c0.7-0.6,1.3-1.1,2-1.5s1.3-0.6,1.9-0.8
		c0.6-0.2,1.2-0.3,1.7-0.4c1.1-0.2,2.2-0.1,3.1,0c1,0.2,1.9,0.5,2.6,1c0.8,0.5,1.4,1.3,1.9,2.2c0.5,0.9,0.9,2.1,1.1,3.5
		c0.1,0.9,0.2,1.9,0.2,3s-0.1,2.2-0.2,3.4c-0.1,1.2-0.2,2.3-0.3,3.4c-0.1,1.1-0.2,2.2-0.4,3.3c-0.1,1-0.2,2-0.2,2.9s0,1.7,0.1,2.3
		c0.1,0.9,0.4,1.5,0.9,2s1.2,0.7,2.3,0.5c1.2-0.2,1.9-0.4,2.2-0.8c0,1.3-0.2,2.4-0.5,3.4s-0.8,1.8-1.4,2.5c-0.6,0.7-1.3,1.2-2.1,1.6
		s-1.7,0.6-2.6,0.8c-1.3,0.2-2.5,0.1-3.4-0.2c-1-0.3-1.8-0.8-2.4-1.5c-0.6-0.7-1.1-1.4-1.5-2.3c-0.4-0.9-0.6-1.9-0.7-2.8
		c-0.2-1.2-0.2-2.6-0.1-4.2c0.1-1.6,0.2-3.3,0.4-5s0.3-3.3,0.4-4.9c0.1-1.6,0.1-2.9-0.1-4c-0.3-2.4-1.3-3.4-3-3.2
		c-0.6,0.1-1.2,0.3-1.7,0.8c-0.5,0.4-0.9,0.9-1.3,1.6c-0.4,0.6-0.7,1.4-0.9,2.2c-0.3,0.8-0.5,1.7-0.6,2.6l-1.6,22.8L617.8,161z"/>
</g>
<g>
	<path fill="#FFFFFF" d="M682.3,140.5c-0.1,0.4-0.1,0.8-0.1,1.2s0,0.7,0.1,1.1c0.1,1,0.5,1.6,1,1.9c0.5,0.3,1.3,0.4,2.2,0.2
		c0.3,0,0.6-0.1,0.8-0.2c0.2-0.1,0.5-0.2,0.6-0.3c-0.3,1.3-0.6,2.4-0.9,3.3c-0.3,0.9-0.7,1.7-1.1,2.4c-0.4,0.7-1,1.2-1.6,1.5
		c-0.6,0.4-1.4,0.6-2.3,0.8c-1.9,0.3-3.5,0-4.9-1c-1.3-0.9-2.3-2.4-2.9-4.4c-0.4,0.9-0.9,1.7-1.5,2.6s-1.2,1.7-2,2.4
		s-1.6,1.4-2.6,1.9s-2.1,0.9-3.3,1.1c-1.2,0.2-2.4,0.2-3.5-0.1c-1.2-0.2-2.2-0.7-3.2-1.5s-1.8-1.8-2.6-3.1c-0.7-1.3-1.2-3-1.6-5.1
		c-0.2-1.6-0.3-3.3-0.3-5.1s0.3-3.7,0.7-5.6s0.9-3.8,1.7-5.6c0.7-1.8,1.7-3.4,2.8-4.9s2.5-2.7,4-3.7c1.6-1,3.3-1.7,5.3-2
		s3.4-0.2,4.4,0.4s1.6,1.3,1.7,2.3l0.1,0.5l0.2-3.8l9.9-1.5L682.3,140.5z M673.5,124.6c0-0.2-0.1-0.4-0.2-0.7
		c-0.1-0.3-0.3-0.6-0.6-0.8c-0.3-0.3-0.6-0.4-1-0.6c-0.4-0.1-0.9-0.2-1.4-0.1c-1,0.1-1.8,0.6-2.6,1.4s-1.4,1.7-2,2.9s-1,2.4-1.4,3.9
		c-0.4,1.4-0.6,2.9-0.8,4.3c-0.2,1.5-0.3,2.9-0.3,4.3c0,1.4,0.1,2.6,0.2,3.7c0.2,1.3,0.5,2.3,0.8,3c0.4,0.7,0.7,1.2,1.1,1.5
		c0.4,0.3,0.8,0.4,1.2,0.5c0.4,0,0.8,0,1.1-0.1c0.5-0.1,1-0.3,1.6-0.6c0.5-0.3,1-0.8,1.5-1.4s0.8-1.3,1.2-2.1
		c0.3-0.8,0.5-1.8,0.6-2.8L673.5,124.6z"/>
</g>
<g>
	<path fill="#FFFFFF" d="M707.2,148l1.3-24.5c0.1-0.6,0-1.1-0.1-1.8c-0.1-0.4-0.2-0.8-0.3-1.1c-0.1-0.3-0.3-0.7-0.5-0.9
		c-0.2-0.3-0.5-0.4-0.7-0.6c-0.3-0.1-0.6-0.2-1-0.1c-0.7,0.1-1.3,0.4-1.8,0.8s-1,1-1.3,1.6c-0.4,0.7-0.7,1.4-0.9,2.3
		c-0.2,0.8-0.4,1.7-0.6,2.6l-1.2,22.8l-9.9,1.6l1.9-35.5l9.9-1.6l-0.2,3.7c0.6-0.9,1.3-1.7,1.9-2.4c0.7-0.6,1.3-1.1,2-1.5
		s1.3-0.7,2-0.9c0.7-0.2,1.3-0.4,1.9-0.5c0.9-0.1,1.8-0.2,2.6-0.1s1.6,0.3,2.3,0.7s1.3,0.9,1.8,1.6s1,1.6,1.3,2.6
		c0.6-1.4,1.3-2.6,2.1-3.5s1.5-1.6,2.3-2.2s1.5-0.9,2.3-1.2c0.7-0.3,1.4-0.4,2.1-0.5c1.1-0.2,2.1-0.2,3.1,0c1,0.1,1.9,0.5,2.6,1
		c0.8,0.5,1.4,1.2,2,2.2c0.5,0.9,0.9,2.1,1.1,3.5c0.1,0.9,0.2,1.9,0.2,3s0,2.2-0.1,3.4s-0.2,2.3-0.3,3.5c-0.1,1.1-0.2,2.2-0.3,3.3
		c-0.1,1.1-0.1,2-0.2,2.9c0,0.9,0,1.7,0.1,2.3c0.1,0.9,0.4,1.5,0.9,2s1.2,0.6,2.3,0.5c1.1-0.2,1.8-0.4,2.2-0.8
		c0,1.3-0.1,2.4-0.4,3.4c-0.3,1-0.8,1.8-1.4,2.5c-0.6,0.7-1.3,1.2-2.1,1.6c-0.8,0.4-1.7,0.7-2.6,0.8c-1.3,0.2-2.5,0.2-3.4-0.1
		c-1-0.3-1.8-0.8-2.4-1.4c-0.7-0.6-1.2-1.4-1.5-2.3c-0.4-0.9-0.6-1.8-0.8-2.8c-0.2-1.2-0.2-2.6-0.2-4.2c0.1-1.6,0.2-3.3,0.3-5
		s0.2-3.3,0.3-4.9s0-2.9-0.1-4c-0.4-2.4-1.4-3.4-3.1-3.2c-0.6,0.1-1.2,0.4-1.7,0.8s-0.9,1-1.3,1.6c-0.4,0.6-0.7,1.4-0.9,2.2
		c-0.2,0.8-0.4,1.7-0.6,2.6l-1.2,22.8L707.2,148z"/>
</g>
<g>
	<path fill="#FFFFFF" d="M765.2,128.9c0,2.1-0.3,3.8-0.9,5.2c-0.6,1.4-1.3,2.6-2.2,3.6s-2,1.7-3.2,2.2s-2.5,0.9-3.9,1.1
		c-1.6,0.3-3.1,0.3-4.5,0.1s-2.6-0.7-3.7-1.4c-1.1-0.7-2-1.7-2.7-3s-1.3-2.9-1.6-4.9c-0.2-1.3-0.3-2.9-0.3-4.7s0.1-3.6,0.4-5.5
		c0.3-1.9,0.8-3.8,1.5-5.7c0.7-1.9,1.6-3.7,2.8-5.3c1.2-1.6,2.6-3,4.3-4.1s3.7-1.9,6.1-2.3c1.6-0.2,2.8-0.3,3.9,0
		c1,0.2,1.9,0.6,2.6,1.1c0.7,0.5,1.2,1.2,1.5,1.9c0.3,0.8,0.6,1.6,0.7,2.4c0.3,2,0.2,3.9-0.4,5.8c-0.6,1.9-1.5,3.6-2.8,5.1
		s-2.8,2.8-4.6,3.9s-3.7,1.9-5.8,2.3c0,0.4,0,0.8,0.1,1.1s0.1,0.7,0.1,1c0.2,1.1,0.4,2,0.8,2.7c0.3,0.7,0.7,1.2,1.2,1.6
		c0.5,0.4,1,0.6,1.5,0.7s1.1,0.1,1.7,0c0.7-0.1,1.4-0.3,2.1-0.6s1.4-0.7,2-1.2c0.7-0.4,1.3-0.9,1.9-1.5
		C764.2,130,764.7,129.4,765.2,128.9z M752.3,123.4c1.3-0.3,2.5-0.8,3.6-1.7c1.1-0.9,2-1.9,2.8-3.1s1.3-2.5,1.7-3.9
		c0.3-1.4,0.4-2.9,0.2-4.3c-0.1-0.9-0.4-1.5-0.7-2s-0.8-0.7-1.5-0.6c-0.9,0.1-1.7,0.7-2.4,1.7s-1.3,2.2-1.8,3.7s-0.9,3.1-1.3,4.9
		C752.6,119.9,752.4,121.7,752.3,123.4z"/>
</g>
<g>
	<path fill="#FFFFFF" d="M786.5,99.1c0.6,3,1.1,5.5,1.6,7.7s0.9,4.1,1.3,5.6c0.4,1.6,0.7,2.9,1,4.1c0.3,1.1,0.5,2.1,0.7,2.9
		c0.2,0.9,0.4,1.6,0.5,2.3s0.3,1.4,0.4,2.2c0.2,1.5,0.2,2.9,0,4.1c-0.2,1.2-0.6,2.4-1.2,3.4c-0.6,1-1.3,1.9-2.1,2.6
		c-0.8,0.8-1.7,1.4-2.7,2c-1,0.5-2,1-3,1.3s-2,0.6-3,0.7c-1.7,0.3-3.3,0.2-4.6-0.1c-1.4-0.3-2.5-0.8-3.5-1.6c-1-0.7-1.7-1.6-2.3-2.5
		c-0.6-1-0.9-2-1.1-3.1c-0.1-0.8-0.1-1.6,0-2.3s0.3-1.4,0.5-2c0.3-0.6,0.6-1.1,0.9-1.6c0.3-0.5,0.8-0.8,1.2-1.1
		c1.4-3.8,2.5-7.5,3.3-11c0.8-3.6,1.5-7.2,2-10.7L786.5,99.1z M772.1,128.7c0.3,1.6,0.8,2.8,1.5,3.5s1.9,0.9,3.4,0.7
		c0.8-0.1,1.5-0.3,2.2-0.7c0.7-0.3,1.3-0.8,1.8-1.4c0.5-0.6,0.8-1.3,1-2.2c0.2-0.9,0.2-1.9,0-3.1c-0.1-0.6-0.2-1.1-0.3-1.7
		c-0.1-0.5-0.3-1.1-0.4-1.7c-0.1-0.6-0.3-1.3-0.5-2c-0.2-0.8-0.4-1.6-0.7-2.6s-0.6-2.1-0.9-3.5c-0.3-1.3-0.7-2.8-1.1-4.6
		c-0.3,2.4-0.8,4.7-1.4,6.9c-0.6,2.3-1.3,4.6-2.1,7c0.5,0.2,0.9,0.4,1.3,0.8c0.4,0.3,0.6,0.8,0.7,1.4c0.1,0.4,0.1,0.9,0,1.3
		s-0.2,0.8-0.4,1.2c-0.2,0.4-0.5,0.7-0.8,0.9s-0.7,0.4-1.2,0.5c-0.4,0.1-0.8,0.1-1.1,0C772.7,129.3,772.4,129,772.1,128.7z"/>
</g>
<g>
	<path fill="#FFFFFF" d="M838.3,117.4c0.8,1.5,1.3,2.9,1.5,4.2c0.2,1.3,0.1,2.4-0.2,3.5s-0.9,2.1-1.6,2.9c-0.7,0.8-1.6,1.6-2.7,2.2
		c-1.1,0.6-2.2,1-3.4,1.1c-1.1,0.2-2.2,0.2-3.4,0.1c-1.2-0.1-2.4-0.3-3.6-0.4c-1.2-0.2-2.5-0.3-3.7-0.4c-1.3-0.1-2.6-0.1-3.8,0.1
		c-1.2,0.2-2.4,0.5-3.6,1c-1.2,0.5-2.5,1.2-3.8,2.2h-0.3c-0.4-1.1-0.7-2.1-0.9-3.2c-0.2-1.6-0.1-3.2,0.3-4.9c0.4-1.6,1.1-3.2,2-4.8
		s1.9-3.2,3.1-4.8c1.2-1.6,2.4-3.2,3.6-4.8c1.2-1.6,2.4-3.2,3.6-4.9c1.2-1.7,2.2-3.3,3-5s1.5-3.4,1.9-5.2c0.4-1.8,0.5-3.6,0.2-5.5
		c-0.2-1.2-0.5-2.4-0.8-3.4c-0.4-1-0.8-1.9-1.3-2.6s-1.2-1.2-1.9-1.5s-1.5-0.4-2.4-0.3c-0.8,0.1-1.5,0.4-2.2,0.8
		c-0.6,0.4-1.1,0.9-1.5,1.5s-0.7,1.2-0.8,2c-0.2,0.7-0.2,1.5-0.1,2.2c0.3,1.7,0.8,3.1,1.6,4.2s1.7,1.8,2.7,2.2v0.3
		c-0.7,0.8-1.4,1.5-2.3,2.1c-0.9,0.6-1.7,0.9-2.6,1c-0.7,0.1-1.3,0-2-0.2s-1.3-0.6-1.8-1.1s-1-1.2-1.4-2.1c-0.4-0.8-0.7-1.8-0.9-3
		c-0.2-1.4-0.1-2.8,0.3-4.3c0.4-1.5,1.1-2.9,2.2-4.2c1-1.3,2.4-2.5,4.1-3.5c1.7-1,3.7-1.7,6.1-2c2-0.3,3.8-0.3,5.5,0
		s3.3,0.9,4.6,1.8s2.5,2.1,3.4,3.5c0.9,1.5,1.5,3.2,1.8,5.2c0.3,1.7,0.2,3.3-0.1,4.8c-0.4,1.5-0.9,3-1.7,4.5s-1.7,2.9-2.8,4.3
		s-2.3,2.8-3.5,4.1c-1.2,1.3-2.5,2.7-3.8,4s-2.5,2.6-3.6,4c-1.1,1.3-2.2,2.7-3.1,4c-0.9,1.3-1.6,2.7-2.1,4.1
		c0.7-0.3,1.4-0.6,2.1-0.7c0.7-0.2,1.3-0.3,2-0.4c1.1-0.2,2.3-0.3,3.3-0.3c1.1,0,2.1,0,3.1,0.1s1.9,0.1,2.8,0.1c0.9,0,1.7,0,2.5-0.1
		c1.2-0.2,2.3-0.6,3.2-1.3c1-0.7,2-1.8,3-3.3L838.3,117.4z"/>
</g>
<g>
	<path fill="#FFFFFF" d="M860.3,127.9c-2.7,0.4-5,0.3-7-0.4c-1.9-0.6-3.5-1.7-4.8-3.1s-2.3-3.1-3-5.2c-0.7-2-1.3-4.3-1.6-6.7
		c-0.5-3.2-0.6-6.3-0.6-9.3c0.1-3.1,0.4-6,1-8.7c0.6-2.8,1.4-5.4,2.5-7.8s2.4-4.5,3.9-6.3s3.3-3.3,5.2-4.5s4.1-1.9,6.4-2.3
		c2.3-0.3,4.3-0.2,6.1,0.4s3.3,1.5,4.6,2.8s2.4,2.9,3.2,4.9s1.4,4.2,1.8,6.7c0.2,1.7,0.4,3.5,0.5,5.5s0.1,4,0,6
		c-0.1,2.1-0.4,4.2-0.7,6.3c-0.4,2.1-0.8,4.2-1.5,6.2c-0.6,2-1.4,3.9-2.4,5.6c-0.9,1.8-2.1,3.3-3.4,4.7s-2.8,2.5-4.5,3.5
		C864.3,127,862.4,127.6,860.3,127.9z M862.8,77.9c-1.1,0.2-2.1,0.8-3.1,1.9c-0.9,1.1-1.8,2.5-2.5,4.3s-1.4,3.8-1.9,6.1
		s-0.9,4.7-1.2,7.3c-0.2,2.6-0.4,5.2-0.3,7.9c0.1,2.7,0.2,5.3,0.6,7.9c0.2,1.3,0.4,2.6,0.7,3.8c0.3,1.2,0.7,2.3,1.2,3.2
		c0.5,0.9,1,1.6,1.7,2.1s1.5,0.7,2.4,0.6c1.1-0.2,2.2-0.8,3.1-1.8c0.9-1.1,1.8-2.5,2.5-4.2s1.3-3.7,1.8-6s0.8-4.7,1-7.3
		c0.2-2.6,0.3-5.2,0.2-8c-0.1-2.7-0.3-5.5-0.7-8.1c-0.2-1.4-0.5-2.6-0.8-3.8c-0.3-1.2-0.7-2.2-1.2-3.1s-1-1.6-1.6-2
		C864.1,78,863.5,77.8,862.8,77.9z"/>
</g>
<g>
	<path fill="#FFFFFF" d="M885,124.7l3.6-44.2l-6.6,0.8l0.4-3.3c0.9-0.1,2-0.3,3.2-0.5s2.4-0.6,3.8-1.2c1.4-0.6,2.9-1.3,4.6-2.2
		c1.6-0.9,3.4-2.2,5.4-3.7l-4.4,53.1L885,124.7z"/>
</g>
<g>
	<path fill="#FFFFFF" d="M925.5,89.5c1.6-0.2,3.1-0.1,4.4,0.3c1.4,0.4,2.6,1.1,3.6,2s1.9,2.1,2.6,3.6c0.7,1.4,1.1,3.1,1.3,5
		c0.2,1.7,0.2,3.4-0.1,5.1s-0.7,3.3-1.4,4.9c-0.6,1.6-1.5,3-2.4,4.4c-1,1.4-2.1,2.6-3.4,3.6c-1.3,1.1-2.6,1.9-4.1,2.6
		s-3.1,1.1-4.7,1.3c-2.4,0.3-4.6,0.2-6.4-0.3c-1.9-0.5-3.5-1.4-4.8-2.8c-1.3-1.3-2.4-3.1-3.2-5.4s-1.4-5-1.8-8.2
		c-0.3-3.2-0.4-6.2-0.1-9.1c0.3-3,0.8-5.8,1.5-8.3c0.8-2.6,1.8-5.1,3-7.3c1.2-2.2,2.7-4.2,4.3-5.9c1.6-1.7,3.5-3,5.4-4
		c2-1,4.1-1.7,6.4-1.9c1.5-0.2,2.9-0.1,4.2,0.1s2.4,0.7,3.4,1.2c1,0.6,1.7,1.4,2.3,2.3s0.9,2,1.1,3.1c0.1,0.9,0.1,1.7-0.1,2.5
		c-0.2,0.8-0.5,1.5-0.8,2.2c-0.4,0.6-0.9,1.1-1.5,1.5s-1.2,0.6-2,0.7s-1.5,0-2.2-0.4c-0.7-0.3-1.2-0.8-1.6-1.4
		c0.7-0.5,1.2-1.1,1.5-1.9s0.4-1.6,0.3-2.4c-0.1-0.5-0.2-1-0.4-1.4c-0.2-0.5-0.5-0.9-0.8-1.2c-0.3-0.3-0.8-0.6-1.2-0.7
		c-0.5-0.2-1-0.2-1.6-0.1c-1.4,0.2-2.8,0.9-4.1,2.2c-1.3,1.3-2.4,3.1-3.4,5.2c-1,2.2-1.8,4.7-2.5,7.6c-0.6,2.9-1,6.1-1.2,9.3
		l0.2-0.1c0.6-2.3,1.8-4,3.6-5.3C920.8,90.6,923,89.8,925.5,89.5z M915.7,107.1c0.2,1.8,0.5,3.4,0.9,4.6c0.4,1.3,0.9,2.3,1.4,3
		c0.6,0.8,1.2,1.3,1.9,1.6c0.7,0.3,1.5,0.4,2.3,0.3c1-0.1,1.9-0.6,2.8-1.4c0.9-0.8,1.6-1.9,2.2-3.3s1.1-2.9,1.3-4.7
		c0.2-1.8,0.3-3.7,0.1-5.8c-0.1-1.3-0.4-2.5-0.8-3.4c-0.4-0.9-0.9-1.6-1.4-2.1c-0.6-0.5-1.2-0.9-1.9-1.1s-1.5-0.2-2.3-0.1
		c-1.4,0.2-2.6,0.6-3.5,1.2c-0.9,0.7-1.7,1.5-2.2,2.6s-0.9,2.3-1,3.8C915.5,103.8,915.5,105.4,915.7,107.1z"/>
</g>
<path fill="#E5D351" d="M1044.6,38c-1.3,0.9-5,0.4-6.6-0.2c-1.2-0.4-2.3-1-3.4-1.5c-1.1-0.6-2.2-1.2-3.3-1.7c-1.5-0.7-3-1.3-4.6-1.3
	l0,0c-1.4,0-2.8,0.3-3.4,0.9c0,0.1,0,0.2-0.1,0.3c-0.1,2.3-2,4.8-6.8,5.5c-0.8,1.2-0.1,4.1,1.1,6.8c2.3,5,7.8,10,18.1,7.4l0,0
	C1047.6,50,1056.5,41,1044.6,38z"/>
</svg>
