<?xml version="1.0" encoding="utf-8"?>
<svg version="1.1" id="Layer_1" xmlns="http://www.w3.org/2000/svg" xmlns:xlink="http://www.w3.org/1999/xlink" x="0px" y="0px"
	 viewBox="0 0 570 122" enable-background="new 0 0 570 122" xml:space="preserve">
<path fill="#A1C454" d="M196.2,79.1c-1.2-2.8-3.6-5-6.6-5.8c-0.8-0.2-1.6-0.3-2.4-0.3c0.4-3.5-0.7-7.2-3.2-9.9
	c-3.1-3.4-7.7-4.8-12.2-4.6c1.1-4.4-0.2-9.3-3.1-12.8c-4.3-5.2-11.9-6.2-18-3.8c-0.9,0.4-2.2,0.9-3.3,1.6c-0.3-1.3-0.7-2.5-1.3-3.7
	c-1.2-2.3-3.2-4-5.5-4.9c-2-0.9-4.3-1.5-6.8-1.5c-5.8,0-10.8,2.9-12.5,7c-0.2,0.1-0.3,0.2-0.5,0.4c0-0.1,0-0.1,0-0.2
	c0-0.1,0-0.3,0-0.4c-0.7-1.7-1.9-3.2-3.4-4.5c-2.6-2.6-6.4-4.5-10.8-5.1c-7.4-1.1-14.1,1.7-16.8,6.4c-2.1-3.6-6.1-6-10.4-6.4
	c-4.7-0.4-9.8,1.4-13.1,4.9c-4.2-3.5-10.1-4.2-14.6-1.2c-2.1,1.4-3.6,3.4-4.5,5.7c0,0,0,0,0,0c-0.6-0.1-1.3-0.2-1.9-0.2
	c-3.9-0.2-7.9,1.7-11,3.9c-2.6,1.8-4.9,4.2-5.8,7.2c-3.9-0.1-7.9,2.3-11,4.5c-3.3,2.3-6,5.2-7.5,9c-0.8,2-1,4.2-0.6,6.3
	c-1,0.2-2.1,0.5-3,1c-5.6,2.8-8.1,10.6-4.8,16c1.7,2.8,4.5,3.8,7.5,4.1h188.1c0.1-1,0.2-1.9,0.3-2.9
	C197.8,85.6,197.5,82.2,196.2,79.1"/>
<path fill="#B5D17A" d="M558,96.9C555.6,85,540.5,77.6,529.7,83c0.7-8.5-7.8-16.5-16.3-15.3c0.1-9.2-8.9-17.5-18.1-16.6
	c0-0.3,0.1-0.6,0.1-0.9c0-0.1,0.1-0.2,0.1-0.3c1.9-6-4.4-13.4-14.2-16.5c-7.1-2.3-14.1-1.7-18.1,1.2c-0.3-0.2-0.6-0.3-0.9-0.5
	c-2.2-3.2-6.1-6-11-7.6c-7.8-2.5-15.4-0.9-18.5,3.5c-2.1-3.6-6.7-7.1-12.6-9c-6.2-2-12.2-1.7-16.1,0.3c-1.6-4.5-7.9-8.4-15.9-9.3
	c-5.9-0.7-11.2,0.4-14.7,2.6c-0.1,0-0.2-0.1-0.3-0.1c-1.2-4.8-7.7-9-16.1-10c-6.3-0.7-12.1,0.6-15.5,3.2c-2.1-4.4-9.4-7.7-18.2-7.7
	c-9.3,0-16.9,3.6-18.5,8.4c-8.6-7.5-23.1-7.7-31.5,0.2c-8.9-6.4-22.7-4.3-29.3,4.5c-10.5-3.1-22.8,0.9-29.5,9.7
	c-8.7-5.3-20-6.1-29.4-2.2c-9.4,3.9-16.8,12.5-19.2,22.4c-10-1.1-20.3,6.7-21.8,16.7c-12.4-3.1-25.3,11.3-20.8,23.3
	c-5.9-2.3-13.1-0.3-17.2,4.5c-4,4.9-4.6,12.3-1.3,17.7c-0.3-0.5-3.8,1.4-4.1,1.6c-1.3,0.8-2.4,2-3.4,3.2c-1.8,2.5-2.9,5.8-2.4,8.8
	c0.3,2,1.8,2.6,3.5,2.7c1.6,0.1,3.3-0.2,4.7-0.2c4.5,0,9.1,0,13.6,0c18.2,0,36.3,0,54.5,0c18.2,0,36.3,0,54.5,0
	c18.2,0,36.3,0,54.5,0c18.2,0,36.3,0,54.5,0c18.2,0,36.3,0,54.5,0c18.2,0,36.3,0,54.5,0c18.2,0,36.3,0,54.5,0c18.2,0,36.3,0,54.5,0
	c4.5,0,8.9,0,13.4,0C573.7,113.9,568.6,98.6,558,96.9"/>
</svg>
