<?xml version="1.0" encoding="utf-8"?>
<svg version="1.1" id="Layer_1" xmlns="http://www.w3.org/2000/svg" xmlns:xlink="http://www.w3.org/1999/xlink" x="0px" y="0px"
	 viewBox="0 0 65 55" enable-background="new 0 0 65 55" xml:space="preserve">
<path fill="#333333" d="M22.1,34c0.5,0.4,0.8,0.6,1.4,1c0.3,0.1,0.6,0.4,1,0.5c-1.5-0.9-2.5-2-3.3-3.2c-0.1,0-0.1-0.1-0.2-0.2
	c-1.6-2.5-1.7-5.1-1-6.1c0.5-0.6,1.6-0.3,2.1,0.1V26l0,0c-2.4-6.1,0.3-9.4,1.8-6.7c-0.3-0.8-0.5-1.7-0.6-2.5
	c0.2,0.8,0.3,1.7,0.6,2.5l0,0c0-0.3-0.1-0.5-0.1-0.8l0,0c-0.5-3.5,1.8-5.5,3.3-3.4l0,0l0,0c-0.4-3,2.7-5.3,3.6-2.6
	c0.3,1.9,0.8,4,2,6.6c0.1,0.2,0.1,0.3,0.2,0.5c2.1,4.5,5.7,7.2,7.9,9.8l0,0l0,0c0.3,0.3,0.5,0.6,0.6,0.9l0,0c1.3,0,2.8,0.3,3.4,0.9
	c0.1,0.1,0.1,0.2,0.1,0.3l0,0c0.1,2.3,2,4.8,6.8,5.5c1.6,0.2,4.2,1,7-1.1c0.5-0.6,1.1-1.3,1.6-2.2c0.2-0.2,0.3-0.4,0.4-0.6l0,0l0,0
	l0,0c0.2-0.4,0.4-0.8,0.6-1.2c0-0.2,0.1-0.3,0.1-0.5c0.8-2.9,0.3-7-2.2-9.6c-3.7-3.9-10.7-5.4-15.9,1.4l0,0c0,0,0,0.1-0.1,0.1
	c-0.4,0.1-0.9,0.3-1.3,0.4c-1.2-7.2,0.8-13.1,1.9-16.4c0.5-1.6,1-2.6,0.4-2.9c-1.1-0.5-3.1,0.7-4.3,3.2c-0.5-1.9-3.1-0.4-4.4,3.9
	c-1-1.3-2.6,0.3-3.5,2.9l0,0C30.1,6.8,31.5,0.6,30.1,0c-1.3-0.5-2.9,1.6-3.6,5.3c-0.1,0.4-0.1,0.4,0,0c-0.5-3-3.5-0.1-3.8,6.5v0.1
	c0,0.6,0.1,2.5,0.1,2.9c0-0.3-0.1-2.3-0.1-2.9c-2.1-2.4-4.8,4.3-2.2,11.2C17.7,19.9,16.4,29.1,22.1,34z M32.7,17.2
	c0.2-0.5,1.3-1.1,1.6,0.1l0,0c0.8-2.9,3-3.2,3.2-0.9v0.1l0,0c0.9-4.1,3.4-3.9,3.3-1.2v0.1c-0.2,1.7-0.2,3,0,4.7
	c0.1,1.1,0.3,2.3,0.5,3.8l0,0c-0.9,0.3-1.9,0.6-2.8,1c-0.5,0.2-0.9,0.4-1.4,0.6l0,0c0-0.1,0-0.1,0-0.1c-1-1.2-1.7-2.5-2.4-3.7
	c0-0.1-0.1-0.2-0.2-0.4C33.8,20,32.8,17.3,32.7,17.2z"/>
<g>
	<path fill="#666666" d="M20.8,32.2c-1.9-3.2,1.4-5,2.3-4.1c-0.5-0.6-0.9-1.3-1.2-1.9c-0.1-0.1-0.1-0.1-0.2-0.2
		c-0.5-0.4-1.4-0.5-1.9,0.1C19.1,27,19.2,29.6,20.8,32.2z"/>
	<path fill="#666666" d="M23.1,28.1c-1.7-3.7,1.5-5.2,2.9-3.4c-0.2-0.3-0.2-0.3,0,0c-1.4-4.2,1.7-4.8,3.2-3.1c0-0.1,0-0.1,0-0.1
		c-1.1-2.2-1.8-4.3-2.3-6.3l0,0c-1.5-2-3.8-0.1-3.3,3.5c0,0.3,0,0.5,0.1,0.8c0.2,0.8,0,0,0,0c-1.5-2.7-4.2,0.6-1.8,6.7l0,0l0,0
		C22.3,26.8,22.7,27.5,23.1,28.1L23.1,28.1z"/>
	<path fill="#666666" d="M32.7,19.2L32.7,19.2c-1.2-2.5-1.7-4.7-2.1-6.6c-0.9-2.8-4.1-0.4-3.7,2.6l0,0c0.5,2,1.2,4.1,2.3,6.3
		C28.4,18.4,31.2,17.1,32.7,19.2z"/>
</g>
<path fill="#666666" d="M34.4,21.2c0.1,0.2,0.3,0.6,0.4,0.7c0.7-1.8,2.3-1.5,2.9-0.2l3.2-1.5c-0.2-1.8-0.2-3.1,0.1-4.8v-0.2
	c0.1-2.7-2.3-2.9-3.3,1.1c-0.4-2-2.5-1.9-3.3,1l0,0c-0.3-1.2-1.4-0.5-1.6,0C33.2,18.6,34.4,21.1,34.4,21.2z"/>
<path fill="#333333" d="M34.7,52.6c0.7,0.6-0.1,2.4-1,2.2c0.3-0.3,0.6-1,0.3-1.3c-0.1,0.7-1,2-2.3,1.4c0.5-0.3,1.1-0.7,1-1.6
	c-0.3,0.8-1,1-1.8,0.6c0.8-0.2,1.4-1.7,0.6-2.1h0.1C32.6,52.1,33.6,52.4,34.7,52.6L34.7,52.6z"/>
<path fill="#333333" d="M30.8,51.5c0.1,1.5-1.3,2.1-1.9,1.8c-0.5,0.3-1.3,0.4-2-0.6c0.8,0,1.5-0.6,1.6-0.9c-0.6,0.4-2.3,0.3-2.8-0.6
	c0.6,0.1,1.4,0.1,1.7-0.9l0.1-0.2C28.6,50.6,29.7,51.1,30.8,51.5"/>
<path fill="#333333" d="M60.2,33.8c1.3,0.5,3,1.3,4.8,1.8c-1.9,0.3-5.4-0.1-6.4,0.4C59.1,35.4,59.7,34.7,60.2,33.8L60.2,33.8z"/>
<path fill="#666666" d="M64.9,35.6c-1.7-0.5-3.4-1.3-4.7-1.8l0,0c0.2-0.2,0.3-0.4,0.4-0.6c0.2-0.4,0.4-0.8,0.6-1.2
	c0-0.2,0.1-0.3,0.1-0.5h0.1C62.4,32.3,64.2,34.7,64.9,35.6"/>
<path fill="#989898" d="M34.6,21.7c0.7,1.2,1.5,2.5,2.4,3.7c0.1,0.1,0.1,0.1,0.1,0.1l0,0c0.5-0.2,0.9-0.4,1.4-0.6
	c-0.1-0.1-0.1-0.1,0,0c1-0.4,1.9-0.7,2.8-1c-0.2-1.5-0.5-3.8-0.5-3.8c-1.9-1.9-3.2,1.5-3.2,1.5C36.8,20,35.4,20,34.6,21.7z"/>
<path fill="#989898" d="M20.8,32c0.1,0,0.1,0.1,0.2,0.2c0.8,1.1,1.9,2.3,3.3,3.2c0.2,0.1,0.3,0.1,0.5,0.2c1.9,0.2,3.7-0.2,5.3-0.8
	l0,0c1.2-0.4,2.3-0.9,3.4-1.5v-0.1l0,0v0.1c1.1-0.6,2.2-1.2,3.3-1.7v-0.1v0.1c1.6-0.7,3.1-1.3,4.6-1.3l0,0l0,0
	c-0.2-0.3-0.4-0.6-0.6-0.9l0,0c-2.2-2.6-5.8-5.3-7.9-9.8c0-0.1,0-0.2-0.1-0.4l-0.1-0.1c-1.9-2.5-3.4,0.1-3.4,0.1
	c-0.4,1.1,0,2.3,0,2.3c-1.5-1.7-4.6-1-3.2,3.1c0.2,0.3,0.4,0.7,0.6,1c-0.2-0.3-0.4-0.7-0.6-1c-1.4-1.6-4.5-0.2-3.1,3.2
	C20.3,27,19.5,30.3,20.8,32z M30,34.9L30,34.9L30,34.9L30,34.9z"/>
<g>
	<path fill="#D8C824" d="M50.9,37c-0.2,0-0.4-0.1-0.5-0.1C50.6,36.9,50.7,36.9,50.9,37z"/>
	<path fill="#D8C824" d="M15.3,39c0,0.4,0,0.8,0.2,1.3c0.1,0.2,0.1,0.3,0.2,0.5c0.3,0.7,0.9,1.6,1.7,2.5c0.3,0.4,0.7,0.8,1.2,1.2
		c0.2,0.1,0.7,0.5,1.3,1l0,0c1.6,1.2,4.4,3.2,7.8,4.8c1.1,0.5,2.2,1,3.3,1.4c0.2,0,0.5,0.1,0.7,0.2c1,0.3,2,0.6,3.1,0.8
		c3.6,0.7,7.1,0.4,10.5-1.6c7.1-4.2,6.5-10.2,9.4-12.3c1-0.7,2.8-1.5,4-2.7c-2.7,1.2-5.7,1.3-7.7,1c0.2,0,0.4,0.1,0.6,0.1
		c0.9,1.2,0.1,4.1-1.1,6.8c-2,4.4-6.5,8.9-14.6,8.1c-0.6,0-1.1-0.1-1.7-0.2h-0.1c-0.3,0-0.7-0.1-1-0.2c-0.3-0.1-0.6-0.1-0.9-0.2l0,0
		c-11.8-4-20.7-13.1-8.8-16.1c-0.6-0.4-1.1-0.8-1.6-1.2l0,0c-0.8,0.3-2.1,0.7-3.5,1.3l0,0c-0.4,0.1-0.8,0.3-1.3,0.5
		c-0.3,0.1-0.8,0.4-1.2,0.9c-0.1,0.2-0.2,0.3-0.3,0.5c-0.1,0.3-0.3,0.7-0.3,1.1C15.2,38.6,15.2,38.7,15.3,39z"/>
</g>
<path fill="#333333" d="M1.1,43.8c2.6,0.8,8.4-0.7,11.4-0.7c2.1,0,4.1,0.1,6.8,1.9c0.2,0.1,0.3,0.2,0.5,0.3c-0.7-0.5-1.1-0.8-1.3-1
	c-0.4-0.4-0.8-0.8-1.2-1.2l0,0c-0.9-0.9-1.8-2.4-1.9-3c-0.2-0.6-0.3-1.6-0.3-1.7l0,0l0,0c0.1-0.5,0.3-1,0.7-1.6l0,0l0,0
	c0.4-0.5,0.9-0.8,1.2-0.9c0.4-0.2,0.9-0.3,1.3-0.5c-3.5,0.8-8.1-0.3-10.2-0.7c-0.1-0.1-0.3-0.1-0.4-0.1c-0.3,0-0.5,0-0.8,0
	c0.3,0,0.5,0,0.8,0c-2.2-0.3-4.8,0.2-3.4,1.5l0,0l0,0l0,0c-2.8,0.1-2.1,1.6-1.7,2.1l0,0l0,0c-1.8,0.3-2.8,1.4-1.7,3.2
	C-0.5,42,0,43.5,1.1,43.8z"/>
<path fill="#CBCBCB" d="M24.7,35.8c-0.6-0.1-1.3-0.7-2-1.3c1.9,1.5,7.1-1.2,9.9-3.2c2.6-2,5.5-3.5,7.6-2.3c1,0.9,0.8,0.9,1.1,1.5
	c-1.6,0-3.1,0.6-4.6,1.3c-1.1,0.5-2.2,1.1-3.3,1.7C32.3,34,31.2,34.6,30,35C28.4,35.6,26.6,36,24.7,35.8"/>
<path fill="#1A1A1A" d="M51.7,27.8c0.5-1.1,1.7-1.6,2.8-1.1c1.1,0.4,1.6,1.7,1.1,2.8c-0.4,1.1-1.7,1.6-2.8,1.1
	C51.7,30.2,51.2,28.9,51.7,27.8"/>
<ellipse transform="matrix(0.3908 -0.9205 0.9205 0.3908 6.2668 66.8682)" fill="none" stroke="#FFFFFF" stroke-width="0.147" cx="53.7" cy="28.7" rx="2.2" ry="2.2"/>
<path fill="#FFFFFF" d="M55.4,28.9c-0.1,0.4-0.5,0.5-0.7,0.4c-0.4-0.2-0.4-0.5-0.7-0.8c-0.2-0.2-0.4-0.2-0.5-0.6
	c-0.2-1,1.3-0.7,1.7-0.2C55.4,28,55.5,28.5,55.4,28.9"/>
<path fill="#FFFFFF" d="M61.6,32.3c0.4,0.3,1.2,1.1,2,2.3C62.8,34.2,61.2,32.9,61.6,32.3"/>
<path fill="#E5D351" d="M32.3,51.4L32.3,51.4C42.7,54.1,48.2,49,50.5,44c1.2-2.7,1.9-5.6,1.1-6.8c-4.8-0.7-6.7-3.2-6.8-5.5
	c-0.1-0.1-0.1-0.2-0.1-0.3c-0.6-0.6-2-0.9-3.4-0.9l0,0c-1.6,0-3.1,0.6-4.6,1.3c-1.1,0.5-2.2,1.1-3.3,1.7C32.3,34,31.2,34.6,30,35
	c-1.6,0.6-5.3,1.1-6.6,0.2C11.4,38.2,20.5,47.3,32.3,51.4z"/>
</svg>
