<?xml version="1.0" encoding="utf-8"?>
<svg version="1.1" id="Layer_1" xmlns="http://www.w3.org/2000/svg" xmlns:xlink="http://www.w3.org/1999/xlink" x="0px" y="0px"
	 viewBox="0 0 65 55" enable-background="new 0 0 65 55" xml:space="preserve">
<path fill="#333333" d="M44.5,23.1c2.6-6.9-0.1-13.6-2.2-11.2c0,0.6-0.1,2.6-0.1,2.9c0-0.4,0.1-2.3,0.1-2.9c0,0,0-0.1,0-0.1
	C42,5.2,39,2.3,38.5,5.3c0.1,0.4,0.1,0.4,0,0c-0.7-3.7-2.3-5.8-3.6-5.3c-1.4,0.6,0,6.8-1.9,14.4l0,0c-0.9-2.6-2.5-4.2-3.5-2.9
	c-1.3-4.3-3.9-5.8-4.4-3.9c-1.2-2.5-3.2-3.7-4.3-3.2c-0.6,0.3-0.1,1.3,0.4,2.9c1.1,3.3,3.1,9.2,1.9,16.4c-0.4-0.1-0.9-0.3-1.3-0.4
	c-0.1,0-0.1-0.1-0.1-0.1v0c-5.2-6.8-12.2-5.3-15.9-1.4c-2.5,2.6-3,6.7-2.2,9.6c0,0.2,0.1,0.3,0.1,0.5c0.2,0.4,0.4,0.8,0.6,1.2l0,0
	l0,0l0,0c0.1,0.2,0.2,0.4,0.4,0.6c0.5,0.9,1.1,1.6,1.6,2.2c2.8,2.1,5.4,1.3,7,1.1c4.8-0.7,6.7-3.2,6.8-5.5v0c0-0.1,0-0.2,0.1-0.3
	c0.6-0.6,2.1-0.9,3.4-0.9l0,0c0.1-0.3,0.3-0.6,0.6-0.9c0,0,0,0,0,0c0,0,0,0,0,0c2.2-2.6,5.8-5.3,7.9-9.8c0.1-0.2,0.1-0.3,0.2-0.5
	c1.2-2.6,1.7-4.7,2-6.6c0.9-2.7,4-0.4,3.6,2.6c0,0,0,0,0,0c0,0,0,0,0,0c1.5-2.1,3.8-0.1,3.3,3.4c0,0,0,0,0,0c0,0.3-0.1,0.5-0.1,0.8
	c0,0,0,0,0,0c0.3-0.8,0.4-1.7,0.6-2.5c-0.1,0.8-0.3,1.7-0.6,2.5c1.5-2.7,4.2,0.6,1.8,6.7c0,0,0,0,0,0c0,0,0,0.1,0,0.1
	c0.5-0.4,1.6-0.7,2.1-0.1c0.7,1,0.6,3.6-1,6.1c-0.1,0.1-0.1,0.2-0.2,0.2c-0.8,1.2-1.8,2.3-3.3,3.2c0.4-0.1,0.7-0.4,1-0.5
	c0.6-0.4,0.9-0.6,1.4-1C48.6,29.1,47.3,19.9,44.5,23.1z M30.5,21.3c-0.1,0.2-0.2,0.3-0.2,0.4c-0.7,1.2-1.4,2.5-2.4,3.7
	c0,0,0,0,0,0.1l0,0c-0.5-0.2-0.9-0.4-1.4-0.6c-0.9-0.4-1.9-0.7-2.8-1c0,0,0,0,0,0c0.2-1.5,0.4-2.7,0.5-3.8c0.2-1.7,0.2-3,0-4.7
	c0,0,0-0.1,0-0.1c-0.1-2.7,2.4-2.9,3.3,1.2c0,0,0,0,0,0c0,0,0-0.1,0-0.1c0.2-2.3,2.4-2,3.2,0.9c0,0,0,0,0,0c0.3-1.2,1.4-0.6,1.6-0.1
	C32.2,17.3,31.2,20,30.5,21.3z"/>
<g>
	<path fill="#666666" d="M45.2,26.1c-0.5-0.6-1.4-0.5-1.9-0.1c-0.1,0.1-0.1,0.1-0.2,0.2c-0.3,0.6-0.7,1.3-1.2,1.9
		c0.9-0.9,4.2,0.9,2.3,4.1C45.8,29.6,45.9,27,45.2,26.1z"/>
	<path fill="#666666" d="M41.9,28.1c0.4-0.6,0.8-1.3,1.2-1.9c0,0,0,0,0,0l0,0c2.4-6.1-0.3-9.4-1.8-6.7c0,0-0.2,0.8,0,0
		c0.1-0.3,0.1-0.5,0.1-0.8c0.5-3.6-1.8-5.5-3.3-3.5l0,0c-0.5,2-1.2,4.1-2.3,6.3c0,0,0,0,0,0.1c1.5-1.7,4.6-1.1,3.2,3.1
		c0.2-0.3,0.2-0.3,0,0C40.4,22.9,43.6,24.4,41.9,28.1C41.9,28.1,41.9,28.1,41.9,28.1z"/>
	<path fill="#666666" d="M35.8,21.5c1.1-2.2,1.8-4.3,2.3-6.3c0,0,0,0,0,0c0.4-3-2.8-5.4-3.7-2.6c-0.4,1.9-0.9,4.1-2.1,6.6l0,0
		C33.8,17.1,36.6,18.4,35.8,21.5z"/>
</g>
<path fill="#666666" d="M32.2,17.3c-0.2-0.5-1.3-1.2-1.6,0c0,0,0,0,0,0c-0.8-2.9-2.9-3-3.3-1c-1-4-3.4-3.8-3.3-1.1c0,0,0,0.2,0,0.2
	c0.3,1.7,0.3,3,0.1,4.8l3.2,1.5c0.6-1.3,2.2-1.6,2.9,0.2c0.1-0.1,0.3-0.5,0.4-0.7C30.6,21.1,31.8,18.6,32.2,17.3z"/>
<path fill="#333333" d="M30.3,52.6c1.1-0.2,2.1-0.5,3.1-0.8l0.1,0c-0.8,0.4-0.2,1.9,0.6,2.1c-0.8,0.4-1.5,0.2-1.8-0.6
	c-0.1,0.9,0.5,1.3,1,1.6c-1.3,0.6-2.2-0.7-2.3-1.4c-0.3,0.3,0,1,0.3,1.3C30.4,55,29.6,53.2,30.3,52.6L30.3,52.6z"/>
<path fill="#333333" d="M34.2,51.5c1.1-0.4,2.2-0.9,3.3-1.4l0.1,0.2c0.3,1,1.1,1,1.7,0.9c-0.5,0.9-2.2,1-2.8,0.6
	c0.1,0.3,0.8,0.9,1.6,0.9c-0.7,1-1.5,0.9-2,0.6C35.5,53.6,34.1,53,34.2,51.5"/>
<path fill="#333333" d="M4.8,33.8c0.5,0.9,1.1,1.6,1.6,2.2c-1-0.5-4.5-0.1-6.4-0.4C1.8,35.1,3.5,34.3,4.8,33.8L4.8,33.8z"/>
<path fill="#666666" d="M0.1,35.6c0.7-0.9,2.5-3.3,3.5-4.1l0.1,0c0,0.2,0.1,0.3,0.1,0.5c0.2,0.4,0.4,0.8,0.6,1.2
	c0.1,0.2,0.2,0.4,0.4,0.6l0,0C3.5,34.3,1.8,35.1,0.1,35.6"/>
<path fill="#989898" d="M27.4,21.6c0,0-1.3-3.4-3.2-1.5c0,0-0.3,2.3-0.5,3.8c0.9,0.3,1.8,0.6,2.8,1c0.1-0.1,0.1-0.1,0,0
	c0.5,0.2,0.9,0.4,1.4,0.6l0,0c0,0,0,0,0.1-0.1c0.9-1.2,1.7-2.5,2.4-3.7C29.6,20,28.2,20,27.4,21.6z"/>
<path fill="#989898" d="M42,27.8c1.4-3.4-1.7-4.8-3.1-3.2c-0.2,0.3-0.4,0.7-0.6,1c0.2-0.3,0.4-0.7,0.6-1c1.4-4.1-1.7-4.8-3.2-3.1
	c0,0,0.4-1.2,0-2.3c0,0-1.5-2.6-3.4-0.1l-0.1,0.1c-0.1,0.2-0.1,0.3-0.1,0.4c-2.1,4.5-5.7,7.2-7.9,9.8c0,0,0,0,0,0
	c-0.2,0.3-0.4,0.6-0.6,0.9l0,0c0,0,0,0,0,0c1.5,0,3,0.6,4.6,1.3l0-0.1l0,0.1c1.1,0.5,2.2,1.1,3.3,1.7l0-0.1c0,0,0,0,0,0l0,0.1
	c1.1,0.6,2.2,1.1,3.4,1.5l0,0c1.6,0.6,3.4,1,5.3,0.8c0.2-0.1,0.3-0.1,0.5-0.2c1.4-0.9,2.5-2.1,3.3-3.2c0.1-0.1,0.1-0.2,0.2-0.2
	C45.5,30.3,44.7,27,42,27.8z M35,34.9C35,34.9,35,34.9,35,34.9C35,34.9,35,34.9,35,34.9L35,34.9z"/>
<g>
	<path fill="#D8C824" d="M14.6,36.9c-0.1,0-0.3,0.1-0.5,0.1C14.3,36.9,14.4,36.9,14.6,36.9z"/>
	<path fill="#D8C824" d="M49.8,38.5c0-0.4-0.2-0.8-0.3-1.1c-0.1-0.2-0.2-0.3-0.3-0.5c-0.4-0.5-0.9-0.8-1.2-0.9
		c-0.5-0.2-0.9-0.4-1.3-0.5c0,0,0,0,0,0c-1.4-0.6-2.7-1-3.5-1.3l0,0c-0.5,0.4-1,0.8-1.6,1.2c11.9,3,3,12.1-8.8,16.1c0,0,0,0,0,0
		c-0.3,0.1-0.6,0.1-0.9,0.2c-0.3,0.1-0.7,0.2-1,0.2c0,0-0.1,0-0.1,0c-0.6,0.1-1.1,0.2-1.7,0.2c-8.1,0.8-12.6-3.7-14.6-8.1
		c-1.2-2.7-2-5.6-1.1-6.8c0.2,0,0.4-0.1,0.6-0.1c-2,0.3-5,0.2-7.7-1c1.2,1.2,3,2,4,2.7c2.9,2.1,2.3,8.1,9.4,12.3
		c3.4,2,6.9,2.3,10.5,1.6c1.1-0.2,2.1-0.5,3.1-0.8c0.2-0.1,0.5-0.2,0.7-0.2c1.1-0.4,2.2-0.9,3.3-1.4c3.4-1.6,6.2-3.6,7.8-4.8
		c0,0,0,0,0,0c0.6-0.5,1.1-0.9,1.3-1c0.5-0.4,0.9-0.8,1.2-1.2c0.8-0.9,1.4-1.8,1.7-2.5c0.1-0.2,0.1-0.3,0.2-0.5
		c0.2-0.5,0.2-0.9,0.2-1.3C49.8,38.7,49.8,38.6,49.8,38.5z"/>
</g>
<path fill="#333333" d="M64.1,41.4c1.1-1.8,0.1-2.9-1.7-3.2c0,0,0,0,0,0c0,0,0,0,0,0c0.4-0.5,1.1-2-1.7-2.1c0,0,0,0,0,0h0l0,0
	c1.4-1.3-1.2-1.8-3.4-1.5c0.3,0,0.5,0,0.8,0c-0.3,0-0.5,0-0.8,0c-0.1,0-0.3,0-0.4,0.1c-2.1,0.4-6.7,1.5-10.2,0.7
	c0.4,0.2,0.9,0.3,1.3,0.5c0.3,0.1,0.8,0.4,1.2,0.9l0,0l0,0c0.4,0.6,0.6,1.1,0.7,1.6l0,0l0,0c0,0.1-0.1,1.1-0.3,1.7
	c-0.1,0.6-1,2.1-1.9,3l0,0c-0.4,0.4-0.8,0.8-1.2,1.2c-0.2,0.2-0.6,0.5-1.3,1c0.2-0.1,0.3-0.2,0.5-0.3c2.7-1.8,4.7-1.9,6.8-1.9
	c3,0,8.8,1.5,11.4,0.7C65,43.5,65.5,42,64.1,41.4z"/>
<path fill="#CBCBCB" d="M40.3,35.8C38.4,36,36.6,35.6,35,35c-1.2-0.4-2.3-1-3.4-1.5c-1.1-0.6-2.2-1.2-3.3-1.7
	c-1.5-0.7-3-1.3-4.6-1.3c0.3-0.6,0.1-0.6,1.1-1.5c2.1-1.2,5,0.3,7.6,2.3c2.8,2,8,4.7,9.9,3.2C41.6,35.1,40.9,35.7,40.3,35.8"/>
<path fill="#1A1A1A" d="M13.3,27.8c0.5,1.1,0,2.4-1.1,2.8c-1.1,0.5-2.4,0-2.8-1.1c-0.5-1.1,0-2.4,1.1-2.8
	C11.6,26.2,12.8,26.7,13.3,27.8"/>
<ellipse transform="matrix(0.9205 -0.3908 0.3908 0.9205 -10.3126 6.6974)" fill="none" stroke="#FFFFFF" stroke-width="0.147" cx="11.3" cy="28.7" rx="2.2" ry="2.2"/>
<path fill="#FFFFFF" d="M9.6,28.9c-0.1-0.4,0-0.9,0.2-1.2c0.4-0.5,1.9-0.8,1.7,0.2c-0.1,0.4-0.3,0.4-0.5,0.6
	c-0.3,0.3-0.3,0.6-0.7,0.8C10.1,29.4,9.7,29.3,9.6,28.9"/>
<path fill="#FFFFFF" d="M3.4,32.3c0.4,0.6-1.2,1.9-2,2.3C2.2,33.4,3,32.6,3.4,32.3"/>
<path fill="#E5D351" d="M41.6,35.2c-1.3,0.9-5,0.4-6.6-0.2c-1.2-0.4-2.3-1-3.4-1.5c-1.1-0.6-2.2-1.2-3.3-1.7c-1.5-0.7-3-1.3-4.6-1.3
	c0,0,0,0,0,0c-1.4,0-2.8,0.3-3.4,0.9c0,0.1,0,0.2-0.1,0.3c-0.1,2.3-2,4.8-6.8,5.5c-0.8,1.2-0.1,4.1,1.1,6.8c2.3,5,7.8,10.1,18.2,7.4
	c0,0,0,0,0,0C44.5,47.3,53.6,38.2,41.6,35.2z"/>
</svg>
